Sinistre-Black.ufo
<glyph name="exclam" format="2">
  <advance width="342"/>
  <unicode hex="0021"/>
  <outline>
    <contour>
      <point x="88" y="564" type="curve" smooth="yes"/>
      <point x="144" y="195" type="line"/>
      <point x="205" y="195" type="line"/>
      <point x="230" y="408" type="line" smooth="yes"/>
      <point x="255" y="621"/>
      <point x="271" y="710"/>
      <point x="316" y="761" type="curve"/>
      <point x="238" y="768"/>
      <point x="106" y="736"/>
      <point x="30" y="726" type="curve"/>
      <point x="60" y="698"/>
      <point x="73" y="662"/>
    </contour>
    <component base="period" xOffset="55" yOffset="-21"/>
  </outline>
</glyph>
<glyph name="ampersand" format="2">
  <advance width="1245"/>
  <unicode hex="0026"/>
  <outline>
    <contour>
      <point x="60" y="342" type="curve" smooth="yes"/>
      <point x="60" y="37"/>
      <point x="353" y="-136"/>
      <point x="670" y="-122" type="curve" smooth="yes"/>
      <point x="1012" y="-107"/>
      <point x="1195" y="115"/>
      <point x="1195" y="342" type="curve" smooth="yes"/>
      <point x="1195" y="524"/>
      <point x="1071" y="711"/>
      <point x="793" y="801" type="curve"/>
      <point x="778" y="782" type="line"/>
      <point x="930" y="732"/>
      <point x="1019" y="517"/>
      <point x="1019" y="317" type="curve" smooth="yes"/>
      <point x="1019" y="125"/>
      <point x="938" y="-52"/>
      <point x="716" y="-57" type="curve" smooth="yes"/>
      <point x="386" y="-64"/>
      <point x="249" y="168"/>
      <point x="283" y="448" type="curve"/>
      <point x="638" y="448" type="line"/>
      <point x="638" y="84" type="line" smooth="yes"/>
      <point x="638" y="48"/>
      <point x="632" y="24"/>
      <point x="618" y="0" type="curve"/>
      <point x="840" y="0" type="line"/>
      <point x="827" y="23"/>
      <point x="822" y="48"/>
      <point x="822" y="84" type="curve" smooth="yes"/>
      <point x="822" y="448" type="line"/>
      <point x="920" y="448" type="line"/>
      <point x="942" y="520" type="line"/>
      <point x="917" y="501"/>
      <point x="880" y="500"/>
      <point x="834" y="500" type="curve" smooth="yes"/>
      <point x="822" y="500" type="line"/>
      <point x="822" y="533" type="line" smooth="yes"/>
      <point x="822" y="595"/>
      <point x="824" y="666"/>
      <point x="830" y="746" type="curve"/>
      <point x="818" y="754" type="line"/>
      <point x="620" y="631" type="line"/>
      <point x="619" y="617" type="line"/>
      <point x="633" y="599"/>
      <point x="638" y="574"/>
      <point x="638" y="531" type="curve" smooth="yes"/>
      <point x="638" y="500" type="line"/>
      <point x="485" y="500" type="line"/>
      <point x="555" y="527"/>
      <point x="606" y="575"/>
      <point x="606" y="629" type="curve" smooth="yes"/>
      <point x="606" y="692"/>
      <point x="538" y="725"/>
      <point x="449" y="725" type="curve" smooth="yes"/>
      <point x="200" y="725"/>
      <point x="60" y="539"/>
    </contour>
    <contour>
      <point x="308" y="500" type="curve" smooth="yes"/>
      <point x="289" y="500" type="line"/>
      <point x="314" y="621"/>
      <point x="360" y="664"/>
      <point x="404" y="664" type="curve" smooth="yes"/>
      <point x="437" y="664"/>
      <point x="459" y="639"/>
      <point x="457" y="604" type="curve" smooth="yes"/>
      <point x="454" y="557"/>
      <point x="406" y="500"/>
    </contour>
  </outline>
</glyph>
<glyph name="parenleft" format="2">
  <advance width="290"/>
  <unicode hex="0028"/>
  <outline>
    <contour>
      <point x="113" y="-150" type="curve"/>
      <point x="270" y="-29" type="line"/>
      <point x="146" y="226"/>
      <point x="87" y="572"/>
      <point x="270" y="840" type="curve"/>
      <point x="233" y="862" type="line"/>
      <point x="37" y="589"/>
      <point x="-44" y="120"/>
    </contour>
  </outline>
</glyph>
<glyph name="parenright" format="2">
  <advance width="280"/>
  <unicode hex="0029"/>
  <outline>
    <contour>
      <point x="30" y="-128" type="curve"/>
      <point x="67" y="-150" type="line"/>
      <point x="263" y="123"/>
      <point x="344" y="592"/>
      <point x="187" y="862" type="curve"/>
      <point x="56" y="689" type="line"/>
      <point x="177" y="429"/>
      <point x="213" y="140"/>
    </contour>
  </outline>
</glyph>
<glyph name="asterisk" format="2">
  <advance width="366"/>
  <unicode hex="002A"/>
  <outline>
    <contour>
      <point x="118" y="490" type="line"/>
      <point x="184" y="525" type="line"/>
      <point x="249" y="489" type="line"/>
      <point x="211" y="582" type="line"/>
      <point x="304" y="546" type="line"/>
      <point x="268" y="612" type="line"/>
      <point x="306" y="677" type="line"/>
      <point x="211" y="640" type="line"/>
      <point x="249" y="734" type="line"/>
      <point x="182" y="696" type="line"/>
      <point x="118" y="736" type="line"/>
      <point x="156" y="640" type="line"/>
      <point x="61" y="677" type="line"/>
      <point x="98" y="611" type="line"/>
      <point x="60" y="546" type="line"/>
      <point x="155" y="582" type="line"/>
    </contour>
  </outline>
</glyph>
<glyph name="plus" format="2">
  <advance width="614"/>
  <unicode hex="002B"/>
  <outline>
    <contour>
      <point x="231" y="-1" type="line"/>
      <point x="382" y="-1" type="line"/>
      <point x="352" y="238" type="line"/>
      <point x="582" y="211" type="line"/>
      <point x="582" y="356" type="line"/>
      <point x="352" y="322" type="line"/>
      <point x="383" y="556" type="line"/>
      <point x="231" y="556" type="line"/>
      <point x="266" y="320" type="line"/>
      <point x="32" y="343" type="line"/>
      <point x="32" y="211" type="line"/>
      <point x="266" y="238" type="line"/>
    </contour>
  </outline>
</glyph>
<glyph name="comma" format="2">
  <advance width="234"/>
  <unicode hex="002C"/>
  <outline>
    <contour>
      <point x="23" y="-130" type="curve"/>
      <point x="31" y="-143" type="line"/>
      <point x="121" y="-103"/>
      <point x="184" y="-16"/>
      <point x="184" y="59" type="curve" smooth="yes"/>
      <point x="184" y="107"/>
      <point x="159" y="150"/>
      <point x="99" y="174" type="curve"/>
      <point x="82" y="140"/>
      <point x="46" y="92"/>
      <point x="20" y="77" type="curve"/>
      <point x="69" y="49"/>
      <point x="92" y="14"/>
      <point x="92" y="-22" type="curve" smooth="yes"/>
      <point x="92" y="-59"/>
      <point x="68" y="-97"/>
    </contour>
  </outline>
</glyph>
<glyph name="period" format="2">
  <advance width="262"/>
  <unicode hex="002E"/>
  <outline>
    <contour>
      <point x="116" y="-18" type="curve"/>
      <point x="146" y="17"/>
      <point x="182" y="61"/>
      <point x="212" y="78" type="curve"/>
      <point x="175" y="105"/>
      <point x="132" y="141"/>
      <point x="116" y="174" type="curve"/>
      <point x="89" y="136"/>
      <point x="53" y="92"/>
      <point x="20" y="78" type="curve"/>
      <point x="59" y="49"/>
      <point x="103" y="13"/>
    </contour>
  </outline>
</glyph>
<glyph name="zero" format="2">
  <advance width="677"/>
  <unicode hex="0030"/>
  <outline>
    <contour>
      <point x="343" y="-20" type="curve" smooth="yes"/>
      <point x="525" y="-20"/>
      <point x="647" y="141"/>
      <point x="647" y="356" type="curve" smooth="yes"/>
      <point x="647" y="567"/>
      <point x="525" y="733"/>
      <point x="343" y="733" type="curve" smooth="yes"/>
      <point x="160" y="733"/>
      <point x="30" y="566"/>
      <point x="30" y="355" type="curve" smooth="yes"/>
      <point x="30" y="140"/>
      <point x="152" y="-20"/>
    </contour>
    <contour>
      <point x="355" y="51" type="curve" smooth="yes"/>
      <point x="296" y="51"/>
      <point x="245" y="149"/>
      <point x="231" y="353" type="curve" smooth="yes"/>
      <point x="218" y="564"/>
      <point x="260" y="664"/>
      <point x="323" y="664" type="curve" smooth="yes"/>
      <point x="383" y="664"/>
      <point x="435" y="570"/>
      <point x="446" y="373" type="curve" smooth="yes"/>
      <point x="459" y="155"/>
      <point x="420" y="51"/>
    </contour>
  </outline>
</glyph>
<glyph name="one" format="2">
  <advance width="332"/>
  <unicode hex="0031"/>
  <outline>
    <contour>
      <point x="55" y="0" type="curve"/>
      <point x="282" y="0" type="line"/>
      <point x="268" y="24"/>
      <point x="262" y="48"/>
      <point x="262" y="84" type="curve" smooth="yes"/>
      <point x="262" y="639" type="line" smooth="yes"/>
      <point x="262" y="673"/>
      <point x="263" y="689"/>
      <point x="270" y="714" type="curve"/>
      <point x="259" y="726" type="line"/>
      <point x="50" y="623" type="line"/>
      <point x="50" y="603" type="line"/>
      <point x="74" y="591"/>
      <point x="75" y="556"/>
      <point x="75" y="534" type="curve" smooth="yes"/>
      <point x="75" y="84" type="line" smooth="yes"/>
      <point x="75" y="48"/>
      <point x="69" y="24"/>
    </contour>
  </outline>
</glyph>
<glyph name="two" format="2">
  <advance width="611"/>
  <unicode hex="0032"/>
  <outline>
    <contour>
      <point x="508" y="-34" type="curve"/>
      <point x="529" y="75"/>
      <point x="560" y="182"/>
      <point x="574" y="266" type="curve"/>
      <point x="551" y="273" type="line"/>
      <point x="527" y="209"/>
      <point x="418" y="77"/>
      <point x="284" y="64" type="curve" smooth="yes"/>
      <point x="243" y="60" type="line"/>
      <point x="369" y="185"/>
      <point x="557" y="380"/>
      <point x="558" y="559" type="curve" smooth="yes"/>
      <point x="558" y="681"/>
      <point x="465" y="743"/>
      <point x="357" y="743" type="curve" smooth="yes"/>
      <point x="245" y="743"/>
      <point x="94" y="676"/>
      <point x="31" y="540" type="curve"/>
      <point x="77" y="524"/>
      <point x="157" y="484"/>
      <point x="150" y="352" type="curve"/>
      <point x="174" y="352" type="line"/>
      <point x="221" y="608"/>
      <point x="291" y="689"/>
      <point x="337" y="689" type="curve" smooth="yes"/>
      <point x="360" y="689"/>
      <point x="371" y="665"/>
      <point x="371" y="632" type="curve" smooth="yes"/>
      <point x="371" y="487"/>
      <point x="173" y="266"/>
      <point x="46" y="123" type="curve"/>
      <point x="46" y="0" type="line"/>
      <point x="374" y="0" type="line" smooth="yes"/>
      <point x="437" y="0"/>
      <point x="479" y="-11"/>
    </contour>
  </outline>
</glyph>
<glyph name="three" format="2">
  <advance width="595"/>
  <unicode hex="0033"/>
  <outline>
    <contour>
      <point x="308" y="580" type="line"/>
      <point x="170" y="382" type="line"/>
      <point x="188" y="367" type="line"/>
      <point x="210" y="385"/>
      <point x="233" y="394"/>
      <point x="256" y="394" type="curve" smooth="yes"/>
      <point x="335" y="394"/>
      <point x="379" y="302"/>
      <point x="379" y="213" type="curve" smooth="yes"/>
      <point x="379" y="105"/>
      <point x="324" y="55"/>
      <point x="263" y="55" type="curve" smooth="yes"/>
      <point x="184" y="55"/>
      <point x="94" y="140"/>
      <point x="99" y="293" type="curve"/>
      <point x="75" y="293" type="line"/>
      <point x="70" y="192"/>
      <point x="53" y="124"/>
      <point x="10" y="81" type="curve"/>
      <point x="68" y="21"/>
      <point x="162" y="-12"/>
      <point x="256" y="-12" type="curve" smooth="yes"/>
      <point x="434" y="-12"/>
      <point x="565" y="102"/>
      <point x="565" y="276" type="curve" smooth="yes"/>
      <point x="565" y="422"/>
      <point x="478" y="486"/>
      <point x="391" y="486" type="curve" smooth="yes"/>
      <point x="360" y="486"/>
      <point x="329" y="478"/>
      <point x="302" y="462" type="curve"/>
      <point x="299" y="465" type="line"/>
      <point x="543" y="714" type="line"/>
      <point x="535" y="730" type="line"/>
      <point x="516" y="724"/>
      <point x="475" y="722"/>
      <point x="315" y="722" type="curve" smooth="yes"/>
      <point x="203" y="722"/>
      <point x="150" y="724"/>
      <point x="106" y="737" type="curve"/>
      <point x="55" y="498" type="line"/>
      <point x="75" y="490" type="line"/>
      <point x="110" y="558"/>
      <point x="157" y="580"/>
      <point x="255" y="580" type="curve" smooth="yes"/>
    </contour>
  </outline>
</glyph>
<glyph name="four" format="2">
  <advance width="700"/>
  <unicode hex="0034"/>
  <outline>
    <contour>
      <point x="332" y="-187" type="curve"/>
      <point x="350" y="-201" type="line"/>
      <point x="395" y="-151"/>
      <point x="487" y="-25"/>
      <point x="587" y="-25" type="curve"/>
      <point x="587" y="172" type="line"/>
      <point x="633" y="173"/>
      <point x="645" y="170"/>
      <point x="666" y="163" type="curve"/>
      <point x="649" y="244" type="line"/>
      <point x="587" y="244" type="line"/>
      <point x="587" y="722" type="line"/>
      <point x="319" y="722" type="line"/>
      <point x="319" y="698" type="line"/>
      <point x="335" y="698" type="line" smooth="yes"/>
      <point x="369" y="698"/>
      <point x="387" y="676"/>
      <point x="387" y="634" type="curve" smooth="yes"/>
      <point x="387" y="244" type="line"/>
      <point x="192" y="244" type="line"/>
      <point x="257" y="364"/>
      <point x="304" y="471"/>
      <point x="304" y="563" type="curve" smooth="yes"/>
      <point x="304" y="675"/>
      <point x="245" y="734"/>
      <point x="181" y="734" type="curve" smooth="yes"/>
      <point x="109" y="734"/>
      <point x="30" y="659"/>
      <point x="20" y="495" type="curve"/>
      <point x="38" y="492" type="line"/>
      <point x="83" y="582"/>
      <point x="169" y="547"/>
      <point x="166" y="438" type="curve" smooth="yes"/>
      <point x="164" y="362"/>
      <point x="133" y="242"/>
      <point x="84" y="172" type="curve"/>
      <point x="387" y="172" type="line"/>
      <point x="387" y="49" type="line" smooth="yes"/>
      <point x="387" y="-55"/>
      <point x="381" y="-121"/>
    </contour>
  </outline>
</glyph>
<glyph name="five" format="2">
  <advance width="590"/>
  <unicode hex="0035"/>
  <outline>
    <contour>
      <point x="87" y="21"/>
      <point x="182" y="-12"/>
      <point x="277" y="-12" type="curve" smooth="yes"/>
      <point x="485" y="-12"/>
      <point x="575" y="128"/>
      <point x="568" y="261" type="curve" smooth="yes"/>
      <point x="562" y="381"/>
      <point x="476" y="496"/>
      <point x="327" y="496" type="curve" smooth="yes"/>
      <point x="274" y="496"/>
      <point x="220" y="479"/>
      <point x="176" y="444" type="curve"/>
      <point x="169" y="448" type="line"/>
      <point x="197" y="580" type="line"/>
      <point x="297" y="580" type="line" smooth="yes"/>
      <point x="431" y="580"/>
      <point x="481" y="572"/>
      <point x="513" y="497" type="curve"/>
      <point x="529" y="501" type="line"/>
      <point x="514" y="579"/>
      <point x="496" y="670"/>
      <point x="481" y="734" type="curve"/>
      <point x="460" y="722"/>
      <point x="420" y="723"/>
      <point x="378" y="722" type="curve" smooth="yes"/>
      <point x="278" y="721"/>
      <point x="195" y="719"/>
      <point x="120" y="734" type="curve"/>
      <point x="108" y="722" type="line"/>
      <point x="132" y="687"/>
      <point x="131" y="569"/>
      <point x="99" y="364" type="curve"/>
      <point x="115" y="358" type="line"/>
      <point x="152" y="379"/>
      <point x="188" y="389"/>
      <point x="221" y="389" type="curve" smooth="yes"/>
      <point x="326" y="389"/>
      <point x="377" y="295"/>
      <point x="382" y="207" type="curve" smooth="yes"/>
      <point x="386" y="130"/>
      <point x="353" y="56"/>
      <point x="289" y="56" type="curve" smooth="yes"/>
      <point x="209" y="56"/>
      <point x="118" y="139"/>
      <point x="107" y="286" type="curve"/>
      <point x="85" y="285" type="line"/>
      <point x="87" y="167"/>
      <point x="70" y="129"/>
      <point x="30" y="84" type="curve"/>
    </contour>
  </outline>
</glyph>
<glyph name="six" format="2">
  <advance width="582"/>
  <unicode hex="0036"/>
  <outline>
    <contour>
      <point x="295" y="-1" type="curve" smooth="yes"/>
      <point x="452" y="-1"/>
      <point x="552" y="147"/>
      <point x="552" y="283" type="curve" smooth="yes"/>
      <point x="552" y="388"/>
      <point x="491" y="486"/>
      <point x="349" y="500" type="curve"/>
      <point x="192" y="367" type="line"/>
      <point x="214" y="337" type="line"/>
      <point x="222" y="346"/>
      <point x="251" y="363"/>
      <point x="281" y="363" type="curve" smooth="yes"/>
      <point x="322" y="363"/>
      <point x="366" y="332"/>
      <point x="366" y="207" type="curve" smooth="yes"/>
      <point x="366" y="123"/>
      <point x="337" y="57"/>
      <point x="305" y="57" type="curve" smooth="yes"/>
      <point x="250" y="57"/>
      <point x="231" y="228"/>
      <point x="231" y="296" type="curve" smooth="yes"/>
      <point x="231" y="441"/>
      <point x="278" y="620"/>
      <point x="435" y="744" type="curve"/>
      <point x="427" y="762" type="line"/>
      <point x="149" y="646"/>
      <point x="30" y="442"/>
      <point x="30" y="274" type="curve" smooth="yes"/>
      <point x="30" y="121"/>
      <point x="128" y="-1"/>
    </contour>
  </outline>
</glyph>
<glyph name="seven" format="2">
  <advance width="576"/>
  <unicode hex="0037"/>
  <outline>
    <contour>
      <point x="154" y="6" type="curve"/>
      <point x="178" y="-1" type="line"/>
      <point x="236" y="99"/>
      <point x="384" y="396"/>
      <point x="478" y="584" type="curve" smooth="yes"/>
      <point x="506" y="639"/>
      <point x="530" y="685"/>
      <point x="544" y="714" type="curve"/>
      <point x="532" y="730" type="line"/>
      <point x="513" y="724"/>
      <point x="495" y="722"/>
      <point x="288" y="722" type="curve" smooth="yes"/>
      <point x="185" y="722"/>
      <point x="137" y="726"/>
      <point x="88" y="737" type="curve"/>
      <point x="15" y="498" type="line"/>
      <point x="32" y="486" type="line"/>
      <point x="82" y="553"/>
      <point x="140" y="580"/>
      <point x="237" y="580" type="curve" smooth="yes"/>
      <point x="276" y="580" type="line"/>
      <point x="266" y="477"/>
      <point x="220" y="220"/>
    </contour>
  </outline>
</glyph>
<glyph name="eight" format="2">
  <advance width="611"/>
  <unicode hex="0038"/>
  <outline>
    <contour>
      <point x="308" y="-17" type="curve" smooth="yes"/>
      <point x="489" y="-17"/>
      <point x="581" y="95"/>
      <point x="581" y="207" type="curve" smooth="yes"/>
      <point x="581" y="316"/>
      <point x="492" y="425"/>
      <point x="308" y="425" type="curve" smooth="yes"/>
      <point x="123" y="425"/>
      <point x="30" y="314"/>
      <point x="30" y="203" type="curve" smooth="yes"/>
      <point x="30" y="93"/>
      <point x="122" y="-17"/>
    </contour>
    <contour>
      <point x="307" y="23" type="curve" smooth="yes"/>
      <point x="275" y="23"/>
      <point x="240" y="77"/>
      <point x="236" y="199" type="curve" smooth="yes"/>
      <point x="233" y="325"/>
      <point x="271" y="379"/>
      <point x="303" y="379" type="curve" smooth="yes"/>
      <point x="335" y="379"/>
      <point x="371" y="329"/>
      <point x="375" y="211" type="curve" smooth="yes"/>
      <point x="376" y="81"/>
      <point x="339" y="23"/>
    </contour>
    <contour>
      <point x="307" y="397" type="curve" smooth="yes"/>
      <point x="449" y="397"/>
      <point x="519" y="479"/>
      <point x="519" y="562" type="curve" smooth="yes"/>
      <point x="519" y="646"/>
      <point x="448" y="730"/>
      <point x="307" y="730" type="curve" smooth="yes"/>
      <point x="165" y="730"/>
      <point x="92" y="645"/>
      <point x="92" y="560" type="curve" smooth="yes"/>
      <point x="92" y="478"/>
      <point x="162" y="397"/>
    </contour>
    <contour>
      <point x="307" y="427" type="curve" smooth="yes"/>
      <point x="283" y="427"/>
      <point x="256" y="468"/>
      <point x="253" y="560" type="curve" smooth="yes"/>
      <point x="251" y="655"/>
      <point x="280" y="695"/>
      <point x="304" y="695" type="curve" smooth="yes"/>
      <point x="328" y="695"/>
      <point x="355" y="658"/>
      <point x="358" y="569" type="curve" smooth="yes"/>
      <point x="359" y="471"/>
      <point x="331" y="427"/>
    </contour>
  </outline>
</glyph>
<glyph name="nine" format="2">
  <advance width="572"/>
  <unicode hex="0039"/>
  <outline>
    <contour>
      <point x="137" y="-13" type="curve"/>
      <point x="145" y="-31" type="line"/>
      <point x="423" y="85"/>
      <point x="542" y="289"/>
      <point x="542" y="457" type="curve" smooth="yes"/>
      <point x="542" y="610"/>
      <point x="444" y="732"/>
      <point x="277" y="732" type="curve" smooth="yes"/>
      <point x="126" y="732"/>
      <point x="40" y="597"/>
      <point x="40" y="471" type="curve" smooth="yes"/>
      <point x="40" y="358"/>
      <point x="109" y="251"/>
      <point x="250" y="251" type="curve"/>
      <point x="379" y="353" type="line"/>
      <point x="358" y="394" type="line"/>
      <point x="342" y="376"/>
      <point x="324" y="368"/>
      <point x="305" y="368" type="curve" smooth="yes"/>
      <point x="245" y="368"/>
      <point x="181" y="457"/>
      <point x="180" y="574" type="curve" smooth="yes"/>
      <point x="180" y="639"/>
      <point x="205" y="669"/>
      <point x="237" y="669" type="curve" smooth="yes"/>
      <point x="288" y="669"/>
      <point x="355" y="591"/>
      <point x="355" y="454" type="curve" smooth="yes"/>
      <point x="355" y="293"/>
      <point x="289" y="97"/>
    </contour>
  </outline>
</glyph>
<glyph name="equal" format="2">
  <advance width="718"/>
  <unicode hex="003D"/>
  <outline>
    <contour>
      <point x="40" y="342" type="line"/>
      <point x="678" y="382" type="line"/>
      <point x="678" y="569" type="line"/>
      <point x="40" y="418" type="line"/>
    </contour>
    <contour>
      <point x="40" y="109" type="line"/>
      <point x="678" y="120" type="line"/>
      <point x="678" y="306" type="line"/>
      <point x="40" y="186" type="line"/>
    </contour>
  </outline>
</glyph>
<glyph name="greater" format="2">
  <advance width="582"/>
  <unicode hex="003E"/>
  <note>
greater
</note>
  <outline>
    <contour>
      <point x="22" y="13" type="curve"/>
      <point x="25" y="-9" type="line"/>
      <point x="146" y="0"/>
      <point x="266" y="3"/>
      <point x="326" y="75" type="curve" smooth="yes"/>
      <point x="403" y="167"/>
      <point x="501" y="316"/>
      <point x="556" y="354" type="curve"/>
      <point x="556" y="376" type="line"/>
      <point x="537" y="389"/>
      <point x="515" y="415"/>
      <point x="494" y="439" type="curve" smooth="yes"/>
      <point x="351" y="598" type="line" smooth="yes"/>
      <point x="306" y="648"/>
      <point x="292" y="696"/>
      <point x="350" y="717" type="curve"/>
      <point x="350" y="722" type="line"/>
      <point x="41" y="722" type="line"/>
      <point x="41" y="697" type="line"/>
      <point x="111" y="703"/>
      <point x="180" y="691"/>
      <point x="235" y="625" type="curve" smooth="yes"/>
      <point x="421" y="402" type="line"/>
      <point x="355" y="357"/>
      <point x="234" y="205"/>
      <point x="169" y="124" type="curve" smooth="yes"/>
      <point x="124" y="68"/>
      <point x="79" y="26"/>
    </contour>
  </outline>
</glyph>
<glyph name="question" format="2">
  <advance width="537"/>
  <unicode hex="003F"/>
  <outline>
    <contour>
      <point x="20" y="686" type="curve"/>
      <point x="56" y="443" type="line"/>
      <point x="80" y="443" type="line"/>
      <point x="99" y="597"/>
      <point x="163" y="669"/>
      <point x="218" y="669" type="curve" smooth="yes"/>
      <point x="263" y="669"/>
      <point x="302" y="619"/>
      <point x="302" y="524" type="curve" smooth="yes"/>
      <point x="302" y="436"/>
      <point x="252" y="333"/>
      <point x="102" y="292" type="curve"/>
      <point x="102" y="264"/>
      <point x="104" y="162"/>
      <point x="102" y="134" type="curve"/>
      <point x="204" y="149" type="line"/>
      <point x="196" y="181"/>
      <point x="192" y="233"/>
      <point x="192" y="269" type="curve"/>
      <point x="458" y="337"/>
      <point x="524" y="442"/>
      <point x="524" y="532" type="curve" smooth="yes"/>
      <point x="524" y="679"/>
      <point x="404" y="735"/>
      <point x="259" y="735" type="curve" smooth="yes"/>
      <point x="180" y="735"/>
      <point x="95" y="717"/>
    </contour>
    <contour>
      <point x="231" y="-25" type="curve"/>
      <point x="214" y="29"/>
      <point x="203" y="90"/>
      <point x="218" y="123" type="curve"/>
      <point x="164" y="106"/>
      <point x="103" y="94"/>
      <point x="71" y="110" type="curve"/>
      <point x="88" y="56"/>
      <point x="99" y="-5"/>
      <point x="84" y="-38" type="curve"/>
      <point x="138" y="-21"/>
      <point x="199" y="-9"/>
    </contour>
  </outline>
</glyph>
<glyph name="at" format="2">
  <advance width="965"/>
  <unicode hex="0040"/>
  <note>
at
</note>
  <outline>
    <contour>
      <point x="269" y="-265" type="curve" smooth="yes"/>
      <point x="434" y="-265"/>
      <point x="764" y="-41"/>
      <point x="871" y="187" type="curve"/>
      <point x="856" y="195" type="line"/>
      <point x="739" y="13"/>
      <point x="560" y="-85"/>
      <point x="411" y="-85" type="curve" smooth="yes"/>
      <point x="256" y="-85"/>
      <point x="156" y="32"/>
      <point x="156" y="176" type="curve" smooth="yes"/>
      <point x="156" y="448"/>
      <point x="513" y="646"/>
      <point x="656" y="652" type="curve" smooth="yes"/>
      <point x="727" y="655"/>
      <point x="773" y="576"/>
      <point x="772" y="478" type="curve" smooth="yes"/>
      <point x="771" y="344"/>
      <point x="705" y="181"/>
      <point x="644" y="165" type="curve" smooth="yes"/>
      <point x="610" y="156"/>
      <point x="597" y="231"/>
      <point x="610" y="327" type="curve" smooth="yes"/>
      <point x="621" y="414"/>
      <point x="630" y="454"/>
      <point x="654" y="519" type="curve"/>
      <point x="652" y="532"/>
      <point x="636" y="562"/>
      <point x="622" y="567" type="curve"/>
      <point x="399" y="495"/>
      <point x="243" y="339"/>
      <point x="243" y="196" type="curve" smooth="yes"/>
      <point x="243" y="128"/>
      <point x="280" y="63"/>
      <point x="360" y="12" type="curve"/>
      <point x="418" y="59"/>
      <point x="483" y="148"/>
      <point x="534" y="250" type="curve"/>
      <point x="540" y="249" type="line"/>
      <point x="528" y="193"/>
      <point x="499" y="100"/>
      <point x="529" y="26" type="curve"/>
      <point x="690" y="56"/>
      <point x="938" y="390"/>
      <point x="938" y="615" type="curve" smooth="yes"/>
      <point x="938" y="689"/>
      <point x="906" y="764"/>
      <point x="849" y="782" type="curve" smooth="yes"/>
      <point x="755" y="811"/>
      <point x="56" y="568"/>
      <point x="43" y="45" type="curve" smooth="yes"/>
      <point x="38" y="-132"/>
      <point x="155" y="-265"/>
    </contour>
    <contour>
      <point x="415" y="200" type="curve"/>
      <point x="370" y="224"/>
      <point x="353" y="257"/>
      <point x="353" y="300" type="curve" smooth="yes"/>
      <point x="353" y="367"/>
      <point x="417" y="442"/>
      <point x="536" y="480" type="curve"/>
      <point x="541" y="476" type="line"/>
      <point x="529" y="347"/>
      <point x="487" y="274"/>
    </contour>
  </outline>
</glyph>
<glyph name="A" format="2">
  <advance width="785"/>
  <unicode hex="0041"/>
  <guideline x="471" y="648" angle="293.7931"/>
  <anchor x="430" y="0" name="bottom"/>
  <anchor x="716" y="10" name="ogonek"/>
  <anchor x="430" y="722" name="top"/>
  <outline>
    <contour>
      <point x="515" y="0" type="curve"/>
      <point x="765" y="0" type="line"/>
      <point x="463" y="673" type="line" smooth="yes"/>
      <point x="456" y="688"/>
      <point x="448" y="706"/>
      <point x="445" y="722" type="curve"/>
      <point x="106" y="722" type="line"/>
      <point x="106" y="698" type="line"/>
      <point x="139" y="698" type="line" smooth="yes"/>
      <point x="211" y="698"/>
      <point x="240" y="674"/>
      <point x="257" y="636" type="curve" smooth="yes"/>
      <point x="324" y="485" type="line"/>
      <point x="10" y="402"/>
      <point x="86" y="56"/>
      <point x="20" y="-45" type="curve"/>
      <point x="31" y="-57" type="line"/>
      <point x="203" y="71"/>
      <point x="305" y="161"/>
      <point x="395" y="325" type="curve"/>
      <point x="504" y="80" type="line" smooth="yes"/>
      <point x="516" y="53"/>
      <point x="525" y="22"/>
    </contour>
    <contour>
      <point x="237" y="193" type="curve"/>
      <point x="231" y="311"/>
      <point x="273" y="396"/>
      <point x="352" y="441" type="curve"/>
      <point x="355" y="436" type="line"/>
      <point x="346" y="345"/>
      <point x="310" y="260"/>
    </contour>
  </outline>
</glyph>
<glyph name="B" format="2">
  <advance width="694"/>
  <unicode hex="0042"/>
  <anchor x="296" y="0" name="bottom"/>
  <anchor x="296" y="722" name="top"/>
  <outline>
    <contour>
      <point x="68" y="0" type="curve"/>
      <point x="165" y="-5"/>
      <point x="262" y="-5"/>
      <point x="359" y="0" type="curve" smooth="yes"/>
      <point x="560" y="10"/>
      <point x="664" y="128"/>
      <point x="664" y="250" type="curve" smooth="yes"/>
      <point x="664" y="353"/>
      <point x="588" y="452"/>
      <point x="431" y="464" type="curve"/>
      <point x="536" y="480"/>
      <point x="587" y="548"/>
      <point x="587" y="610" type="curve" smooth="yes"/>
      <point x="587" y="684"/>
      <point x="523" y="726"/>
      <point x="439" y="726" type="curve" smooth="yes"/>
      <point x="389" y="726"/>
      <point x="334" y="713"/>
      <point x="288" y="694" type="curve"/>
      <point x="288" y="722" type="line"/>
      <point x="20" y="722" type="line"/>
      <point x="20" y="698" type="line"/>
      <point x="36" y="698" type="line" smooth="yes"/>
      <point x="70" y="698"/>
      <point x="88" y="676"/>
      <point x="88" y="634" type="curve" smooth="yes"/>
      <point x="88" y="84" type="line" smooth="yes"/>
      <point x="88" y="48"/>
      <point x="82" y="24"/>
    </contour>
    <contour>
      <point x="288" y="70" type="curve"/>
      <point x="288" y="639" type="line"/>
      <point x="303" y="644"/>
      <point x="317" y="646"/>
      <point x="332" y="646" type="curve" smooth="yes"/>
      <point x="384" y="646"/>
      <point x="416" y="607"/>
      <point x="416" y="564" type="curve" smooth="yes"/>
      <point x="416" y="517"/>
      <point x="382" y="476"/>
      <point x="288" y="477" type="curve"/>
      <point x="288" y="429" type="line"/>
      <point x="408" y="434"/>
      <point x="449" y="349"/>
      <point x="449" y="251" type="curve" smooth="yes"/>
      <point x="449" y="157"/>
      <point x="399" y="63"/>
    </contour>
  </outline>
</glyph>
<glyph name="C" format="2">
  <advance width="727"/>
  <unicode hex="0043"/>
  <anchor x="350" y="0" name="bottom"/>
  <anchor x="408" y="722" name="top"/>
  <outline>
    <contour>
      <point x="421" y="-15" type="curve" smooth="yes"/>
      <point x="504" y="-15"/>
      <point x="590" y="-1"/>
      <point x="674" y="22" type="curve"/>
      <point x="697" y="297" type="line"/>
      <point x="681" y="300" type="line"/>
      <point x="642" y="189"/>
      <point x="553" y="61"/>
      <point x="447" y="60" type="curve" smooth="yes"/>
      <point x="313" y="59"/>
      <point x="249" y="223"/>
      <point x="249" y="375" type="curve" smooth="yes"/>
      <point x="249" y="557"/>
      <point x="337" y="667"/>
      <point x="432" y="667" type="curve" smooth="yes"/>
      <point x="534" y="667"/>
      <point x="605" y="555"/>
      <point x="625" y="443" type="curve"/>
      <point x="640" y="443" type="line"/>
      <point x="676" y="682" type="line"/>
      <point x="618" y="717"/>
      <point x="529" y="739"/>
      <point x="434" y="739" type="curve" smooth="yes"/>
      <point x="196" y="740"/>
      <point x="30" y="603"/>
      <point x="30" y="356" type="curve" smooth="yes"/>
      <point x="30" y="122"/>
      <point x="177" y="-15"/>
    </contour>
  </outline>
</glyph>
<glyph name="D" format="2">
  <advance width="793"/>
  <unicode hex="0044"/>
  <anchor x="358" y="0" name="bottom"/>
  <anchor x="358" y="361" name="center"/>
  <anchor x="358" y="722" name="top"/>
  <outline>
    <contour>
      <point x="68" y="0" type="curve"/>
      <point x="364" y="0" type="line" smooth="yes"/>
      <point x="626" y="0"/>
      <point x="763" y="168"/>
      <point x="763" y="378" type="curve" smooth="yes"/>
      <point x="763" y="571"/>
      <point x="637" y="722"/>
      <point x="372" y="723" type="curve" smooth="yes"/>
      <point x="269" y="723"/>
      <point x="182" y="721"/>
      <point x="99" y="722" type="curve" smooth="yes"/>
      <point x="21" y="723" type="line"/>
      <point x="20" y="699" type="line"/>
      <point x="36" y="699" type="line" smooth="yes"/>
      <point x="70" y="698"/>
      <point x="88" y="676"/>
      <point x="88" y="634" type="curve" smooth="yes"/>
      <point x="88" y="84" type="line" smooth="yes"/>
      <point x="88" y="48"/>
      <point x="82" y="24"/>
    </contour>
    <contour>
      <point x="288" y="70" type="curve"/>
      <point x="288" y="660" type="line"/>
      <point x="322" y="661"/>
      <point x="352" y="657"/>
      <point x="379" y="647" type="curve" smooth="yes"/>
      <point x="482" y="612"/>
      <point x="533" y="508"/>
      <point x="533" y="379" type="curve" smooth="yes"/>
      <point x="533" y="222"/>
      <point x="431" y="59"/>
    </contour>
  </outline>
</glyph>
<glyph name="E" format="2">
  <advance width="684"/>
  <unicode hex="0045"/>
  <anchor x="353" y="0" name="bottom"/>
  <anchor x="589" y="10" name="ogonek"/>
  <anchor x="304" y="722" name="top"/>
  <anchor x="78" y="722" name="topleft"/>
  <outline>
    <contour>
      <point x="68" y="0" type="curve"/>
      <point x="599" y="0" type="line"/>
      <point x="651" y="261" type="line"/>
      <point x="624" y="269" type="line"/>
      <point x="586" y="128"/>
      <point x="459" y="92"/>
      <point x="288" y="90" type="curve"/>
      <point x="288" y="413" type="line"/>
      <point x="365" y="412" type="line" smooth="yes"/>
      <point x="444" y="411"/>
      <point x="524" y="406"/>
      <point x="539" y="364" type="curve"/>
      <point x="556" y="368" type="line"/>
      <point x="556" y="529" type="line"/>
      <point x="539" y="531" type="line"/>
      <point x="524" y="489"/>
      <point x="444" y="484"/>
      <point x="365" y="483" type="curve" smooth="yes"/>
      <point x="288" y="482" type="line"/>
      <point x="288" y="652" type="line"/>
      <point x="362" y="652" type="line" smooth="yes"/>
      <point x="524" y="652"/>
      <point x="577" y="601"/>
      <point x="624" y="518" type="curve"/>
      <point x="646" y="527" type="line"/>
      <point x="602" y="722" type="line"/>
      <point x="20" y="722" type="line"/>
      <point x="20" y="698" type="line"/>
      <point x="36" y="698" type="line" smooth="yes"/>
      <point x="70" y="698"/>
      <point x="88" y="676"/>
      <point x="88" y="634" type="curve" smooth="yes"/>
      <point x="88" y="84" type="line" smooth="yes"/>
      <point x="88" y="48"/>
      <point x="82" y="24"/>
    </contour>
  </outline>
</glyph>
<glyph name="F" format="2">
  <advance width="661"/>
  <unicode hex="0046"/>
  <anchor x="256" y="0" name="bottom"/>
  <anchor x="256" y="722" name="top"/>
  <outline>
    <contour>
      <point x="37" y="-188" type="curve"/>
      <point x="57" y="-201" type="line"/>
      <point x="118" y="-112"/>
      <point x="189" y="-32"/>
      <point x="288" y="-25" type="curve"/>
      <point x="288" y="413" type="line"/>
      <point x="365" y="412" type="line" smooth="yes"/>
      <point x="444" y="411"/>
      <point x="524" y="406"/>
      <point x="539" y="364" type="curve"/>
      <point x="556" y="368" type="line"/>
      <point x="556" y="529" type="line"/>
      <point x="539" y="531" type="line"/>
      <point x="524" y="489"/>
      <point x="444" y="484"/>
      <point x="365" y="483" type="curve" smooth="yes"/>
      <point x="288" y="482" type="line"/>
      <point x="288" y="652" type="line"/>
      <point x="362" y="652" type="line" smooth="yes"/>
      <point x="524" y="652"/>
      <point x="572" y="597"/>
      <point x="628" y="519" type="curve"/>
      <point x="646" y="527" type="line"/>
      <point x="602" y="722" type="line"/>
      <point x="20" y="722" type="line"/>
      <point x="20" y="698" type="line"/>
      <point x="36" y="698" type="line" smooth="yes"/>
      <point x="70" y="698"/>
      <point x="88" y="676"/>
      <point x="88" y="634" type="curve" smooth="yes"/>
      <point x="88" y="49" type="line" smooth="yes"/>
      <point x="88" y="-55"/>
      <point x="82" y="-121"/>
    </contour>
  </outline>
</glyph>
<glyph name="G" format="2">
  <advance width="793"/>
  <unicode hex="0047"/>
  <guideline x="674" y="354" angle="310.4401"/>
  <anchor x="372" y="0" name="bottom"/>
  <anchor x="433" y="722" name="top"/>
  <outline>
    <contour>
      <point x="438" y="-15" type="curve" smooth="yes"/>
      <point x="560" y="-15"/>
      <point x="684" y="31"/>
      <point x="763" y="96" type="curve"/>
      <point x="750" y="118"/>
      <point x="749" y="144"/>
      <point x="749" y="173" type="curve" smooth="yes"/>
      <point x="749" y="424" type="line"/>
      <point x="425" y="424" type="line"/>
      <point x="425" y="398" type="line"/>
      <point x="538" y="400"/>
      <point x="554" y="386"/>
      <point x="554" y="286" type="curve" smooth="yes"/>
      <point x="554" y="82" type="line"/>
      <point x="529" y="69"/>
      <point x="499" y="61"/>
      <point x="472" y="61" type="curve" smooth="yes"/>
      <point x="333" y="61"/>
      <point x="264" y="224"/>
      <point x="264" y="382" type="curve" smooth="yes"/>
      <point x="264" y="574"/>
      <point x="359" y="671"/>
      <point x="459" y="671" type="curve" smooth="yes"/>
      <point x="542" y="671"/>
      <point x="628" y="606"/>
      <point x="669" y="473" type="curve"/>
      <point x="692" y="476" type="line"/>
      <point x="685" y="686" type="line"/>
      <point x="630" y="725"/>
      <point x="552" y="745"/>
      <point x="469" y="745" type="curve" smooth="yes"/>
      <point x="265" y="745"/>
      <point x="30" y="623"/>
      <point x="30" y="360" type="curve" smooth="yes"/>
      <point x="30" y="147"/>
      <point x="162" y="-15"/>
    </contour>
  </outline>
</glyph>
<glyph name="H" format="2">
  <advance width="758"/>
  <unicode hex="0048"/>
  <anchor x="398" y="0" name="bottom"/>
  <anchor x="378" y="722" name="top"/>
  <outline>
    <contour>
      <point x="480" y="0" type="curve"/>
      <point x="718" y="0" type="line"/>
      <point x="705" y="23"/>
      <point x="700" y="48"/>
      <point x="700" y="84" type="curve" smooth="yes"/>
      <point x="700" y="596" type="line" smooth="yes"/>
      <point x="700" y="650"/>
      <point x="702" y="688"/>
      <point x="707" y="722" type="curve"/>
      <point x="432" y="722" type="line"/>
      <point x="432" y="698" type="line"/>
      <point x="448" y="698" type="line" smooth="yes"/>
      <point x="482" y="698"/>
      <point x="500" y="676"/>
      <point x="500" y="634" type="curve" smooth="yes"/>
      <point x="500" y="84" type="line" smooth="yes"/>
      <point x="500" y="48"/>
      <point x="494" y="24"/>
    </contour>
    <contour>
      <point x="68" y="0" type="curve"/>
      <point x="306" y="0" type="line"/>
      <point x="293" y="23"/>
      <point x="288" y="48"/>
      <point x="288" y="84" type="curve" smooth="yes"/>
      <point x="288" y="596" type="line" smooth="yes"/>
      <point x="288" y="650"/>
      <point x="290" y="688"/>
      <point x="295" y="722" type="curve"/>
      <point x="20" y="722" type="line"/>
      <point x="20" y="698" type="line"/>
      <point x="36" y="698" type="line" smooth="yes"/>
      <point x="70" y="698"/>
      <point x="88" y="676"/>
      <point x="88" y="634" type="curve" smooth="yes"/>
      <point x="88" y="84" type="line" smooth="yes"/>
      <point x="88" y="48"/>
      <point x="82" y="24"/>
    </contour>
    <contour>
      <point x="268" y="413" type="line"/>
      <point x="520" y="413" type="line"/>
      <point x="520" y="483" type="line"/>
      <point x="268" y="483" type="line"/>
    </contour>
  </outline>
</glyph>
<glyph name="J" format="2">
  <advance width="335"/>
  <unicode hex="004A"/>
  <anchor x="139" y="0" name="bottom"/>
  <anchor x="150" y="722" name="top"/>
  <outline>
    <contour>
      <point x="5" y="-293" type="curve"/>
      <point x="30" y="-314" type="line"/>
      <point x="203" y="-157"/>
      <point x="293" y="-85"/>
      <point x="293" y="69" type="curve" smooth="yes"/>
      <point x="293" y="722" type="line"/>
      <point x="25" y="722" type="line"/>
      <point x="25" y="698" type="line"/>
      <point x="41" y="698" type="line" smooth="yes"/>
      <point x="75" y="698"/>
      <point x="93" y="676"/>
      <point x="93" y="634" type="curve" smooth="yes"/>
      <point x="93" y="87" type="line" smooth="yes"/>
      <point x="93" y="-81"/>
      <point x="76" y="-184"/>
    </contour>
  </outline>
</glyph>
<glyph name="M" format="2">
  <advance width="894"/>
  <unicode hex="004D"/>
  <anchor x="409" y="0" name="bottom"/>
  <anchor x="409" y="722" name="top"/>
  <outline>
    <contour>
      <point x="35" y="0" type="curve"/>
      <point x="149" y="0" type="line"/>
      <point x="139" y="31"/>
      <point x="138" y="54"/>
      <point x="143" y="111" type="curve" smooth="yes"/>
      <point x="175" y="473" type="line"/>
      <point x="357" y="0" type="line"/>
      <point x="416" y="0" type="line"/>
      <point x="594" y="461" type="line"/>
      <point x="625" y="128" type="line" smooth="yes"/>
      <point x="631" y="64"/>
      <point x="631" y="36"/>
      <point x="622" y="0" type="curve"/>
      <point x="855" y="0" type="line"/>
      <point x="843" y="26"/>
      <point x="840" y="55"/>
      <point x="834" y="130" type="curve" smooth="yes"/>
      <point x="791" y="634" type="line" smooth="yes"/>
      <point x="787" y="676"/>
      <point x="809" y="698"/>
      <point x="846" y="698" type="curve" smooth="yes"/>
      <point x="864" y="698" type="line"/>
      <point x="864" y="722" type="line"/>
      <point x="615" y="722" type="line"/>
      <point x="460" y="339" type="line"/>
      <point x="314" y="722" type="line"/>
      <point x="30" y="722" type="line"/>
      <point x="30" y="698" type="line"/>
      <point x="48" y="698" type="line" smooth="yes"/>
      <point x="85" y="698"/>
      <point x="105" y="676"/>
      <point x="105" y="634" type="curve" smooth="yes"/>
      <point x="105" y="638" type="line"/>
      <point x="59" y="111" type="line" smooth="yes"/>
      <point x="54" y="54"/>
      <point x="49" y="28"/>
    </contour>
  </outline>
</glyph>
<glyph name="N" format="2">
  <advance width="843"/>
  <unicode hex="004E"/>
  <anchor x="386" y="0" name="bottom"/>
  <anchor x="386" y="722" name="top"/>
  <outline>
    <contour>
      <point x="99" y="0" type="curve"/>
      <point x="343" y="0" type="line"/>
      <point x="343" y="24" type="line"/>
      <point x="288" y="30"/>
      <point x="256" y="56"/>
      <point x="235" y="113" type="curve" smooth="yes"/>
      <point x="205" y="195"/>
      <point x="208" y="334"/>
      <point x="208" y="517" type="curve"/>
      <point x="640" y="0" type="line"/>
      <point x="775" y="0" type="line"/>
      <point x="775" y="588" type="line" smooth="yes"/>
      <point x="775" y="645"/>
      <point x="780" y="684"/>
      <point x="793" y="722" type="curve"/>
      <point x="560" y="722" type="line"/>
      <point x="560" y="698" type="line"/>
      <point x="599" y="699"/>
      <point x="639" y="687"/>
      <point x="666" y="630" type="curve" smooth="yes"/>
      <point x="695" y="569"/>
      <point x="697" y="452"/>
      <point x="697" y="245" type="curve"/>
      <point x="299" y="722" type="line"/>
      <point x="10" y="722" type="line"/>
      <point x="10" y="698" type="line"/>
      <point x="52" y="696"/>
      <point x="68" y="683"/>
      <point x="130" y="608" type="curve"/>
      <point x="119" y="134" type="line" smooth="yes"/>
      <point x="118" y="77"/>
      <point x="112" y="38"/>
    </contour>
  </outline>
</glyph>
<glyph name="O" format="2">
  <advance width="802"/>
  <unicode hex="004F"/>
  <anchor x="421" y="0" name="bottom"/>
  <anchor x="421" y="361" name="center"/>
  <anchor x="784" y="10" name="ogonek"/>
  <anchor x="396" y="722" name="top"/>
  <anchor x="-14" y="722" name="topleft"/>
  <anchor x="855" y="722" name="topright"/>
  <outline>
    <contour>
      <point x="403" y="-20" type="curve" smooth="yes"/>
      <point x="658" y="-20"/>
      <point x="772" y="161"/>
      <point x="772" y="356" type="curve" smooth="yes"/>
      <point x="772" y="537"/>
      <point x="662" y="733"/>
      <point x="403" y="733" type="curve" smooth="yes"/>
      <point x="143" y="733"/>
      <point x="30" y="537"/>
      <point x="30" y="356" type="curve" smooth="yes"/>
      <point x="30" y="161"/>
      <point x="141" y="-20"/>
    </contour>
    <contour>
      <point x="413" y="61" type="curve" smooth="yes"/>
      <point x="341" y="61"/>
      <point x="267" y="149"/>
      <point x="255" y="353" type="curve" smooth="yes"/>
      <point x="243" y="564"/>
      <point x="309" y="652"/>
      <point x="387" y="654" type="curve" smooth="yes"/>
      <point x="464" y="656"/>
      <point x="538" y="569"/>
      <point x="549" y="372" type="curve" smooth="yes"/>
      <point x="561" y="154"/>
      <point x="487" y="61"/>
    </contour>
  </outline>
</glyph>
<glyph name="P" format="2">
  <advance width="735"/>
  <unicode hex="0050"/>
  <anchor x="300" y="0" name="bottom"/>
  <anchor x="300" y="722" name="top"/>
  <outline>
    <contour>
      <point x="68" y="0" type="curve"/>
      <point x="320" y="0" type="line"/>
      <point x="298" y="22"/>
      <point x="288" y="43"/>
      <point x="288" y="76" type="curve" smooth="yes"/>
      <point x="288" y="300" type="line"/>
      <point x="330" y="285"/>
      <point x="376" y="278"/>
      <point x="421" y="278" type="curve" smooth="yes"/>
      <point x="616" y="278"/>
      <point x="705" y="396"/>
      <point x="705" y="512" type="curve" smooth="yes"/>
      <point x="705" y="623"/>
      <point x="623" y="731"/>
      <point x="478" y="731" type="curve" smooth="yes"/>
      <point x="424" y="731"/>
      <point x="360" y="715"/>
      <point x="288" y="679" type="curve"/>
      <point x="288" y="722" type="line"/>
      <point x="20" y="722" type="line"/>
      <point x="20" y="698" type="line"/>
      <point x="36" y="698" type="line" smooth="yes"/>
      <point x="70" y="698"/>
      <point x="88" y="676"/>
      <point x="88" y="634" type="curve" smooth="yes"/>
      <point x="88" y="84" type="line" smooth="yes"/>
      <point x="88" y="48"/>
      <point x="82" y="24"/>
    </contour>
    <contour>
      <point x="288" y="367" type="curve"/>
      <point x="288" y="609" type="line"/>
      <point x="318" y="623"/>
      <point x="345" y="629"/>
      <point x="369" y="629" type="curve" smooth="yes"/>
      <point x="449" y="629"/>
      <point x="495" y="562"/>
      <point x="495" y="494" type="curve" smooth="yes"/>
      <point x="495" y="427"/>
      <point x="449" y="360"/>
      <point x="347" y="360" type="curve" smooth="yes"/>
      <point x="329" y="360"/>
      <point x="310" y="362"/>
    </contour>
  </outline>
</glyph>
<glyph name="Q" format="2">
  <advance width="818"/>
  <unicode hex="0051"/>
  <anchor x="433" y="0" name="bottom"/>
  <anchor x="433" y="722" name="top"/>
  <outline>
    <contour>
      <point x="959" y="-325" type="curve" smooth="yes"/>
      <point x="1136" y="-325"/>
      <point x="1301" y="-262"/>
      <point x="1458" y="-125" type="curve"/>
      <point x="1447" y="-112" type="line"/>
      <point x="1332" y="-199"/>
      <point x="1246" y="-223"/>
      <point x="1141" y="-223" type="curve" smooth="yes"/>
      <point x="982" y="-223"/>
      <point x="791" y="-153"/>
      <point x="511" y="-7" type="curve"/>
      <point x="688" y="38"/>
      <point x="779" y="200"/>
      <point x="779" y="361" type="curve" smooth="yes"/>
      <point x="779" y="548"/>
      <point x="656" y="733"/>
      <point x="405" y="733" type="curve" smooth="yes"/>
      <point x="145" y="733"/>
      <point x="29" y="537"/>
      <point x="30" y="336" type="curve" smooth="yes"/>
      <point x="32" y="65"/>
      <point x="294" y="-74"/>
      <point x="502" y="-190" type="curve" smooth="yes"/>
      <point x="668" y="-282"/>
      <point x="822" y="-325"/>
    </contour>
    <contour>
      <point x="405" y="61" type="curve" smooth="yes"/>
      <point x="341" y="61"/>
      <point x="266" y="149"/>
      <point x="261" y="353" type="curve" smooth="yes"/>
      <point x="256" y="564"/>
      <point x="332" y="654"/>
      <point x="399" y="654" type="curve" smooth="yes"/>
      <point x="462" y="654"/>
      <point x="537" y="570"/>
      <point x="542" y="373" type="curve" smooth="yes"/>
      <point x="546" y="155"/>
      <point x="471" y="61"/>
    </contour>
  </outline>
</glyph>
<glyph name="R" format="2">
  <advance width="768"/>
  <unicode hex="0052"/>
  <anchor x="420" y="0" name="bottom"/>
  <anchor x="420" y="722" name="top"/>
  <outline>
    <contour>
      <point x="834" y="-146" type="curve"/>
      <point x="840" y="-128" type="line"/>
      <point x="731" y="-96"/>
      <point x="708" y="167"/>
      <point x="605" y="264" type="curve" smooth="yes"/>
      <point x="565" y="302"/>
      <point x="490" y="336"/>
      <point x="361" y="339" type="curve"/>
      <point x="377" y="330" type="line"/>
      <point x="598" y="324"/>
      <point x="688" y="434"/>
      <point x="688" y="541" type="curve" smooth="yes"/>
      <point x="688" y="638"/>
      <point x="615" y="732"/>
      <point x="483" y="732" type="curve" smooth="yes"/>
      <point x="421" y="732"/>
      <point x="353" y="712"/>
      <point x="288" y="675" type="curve"/>
      <point x="288" y="722" type="line"/>
      <point x="20" y="722" type="line"/>
      <point x="20" y="698" type="line"/>
      <point x="36" y="698" type="line" smooth="yes"/>
      <point x="70" y="698"/>
      <point x="88" y="676"/>
      <point x="88" y="634" type="curve" smooth="yes"/>
      <point x="88" y="84" type="line" smooth="yes"/>
      <point x="88" y="48"/>
      <point x="82" y="24"/>
      <point x="68" y="0" type="curve"/>
      <point x="308" y="0" type="line"/>
      <point x="294" y="24"/>
      <point x="288" y="48"/>
      <point x="288" y="84" type="curve" smooth="yes"/>
      <point x="288" y="311" type="line"/>
      <point x="377" y="295"/>
      <point x="400" y="267"/>
      <point x="491" y="93" type="curve" smooth="yes"/>
      <point x="568" y="-54"/>
      <point x="644" y="-102"/>
    </contour>
    <contour>
      <point x="488" y="508" type="curve" smooth="yes"/>
      <point x="488" y="430"/>
      <point x="444" y="391"/>
      <point x="389" y="378" type="curve" smooth="yes"/>
      <point x="357" y="370"/>
      <point x="321" y="371"/>
      <point x="288" y="378" type="curve"/>
      <point x="288" y="610" type="line"/>
      <point x="322" y="627"/>
      <point x="351" y="635"/>
      <point x="377" y="635" type="curve" smooth="yes"/>
      <point x="451" y="635"/>
      <point x="488" y="571"/>
    </contour>
  </outline>
</glyph>
<glyph name="S" format="2">
  <advance width="711"/>
  <unicode hex="0053"/>
  <anchor x="311" y="0" name="bottom"/>
  <anchor x="331" y="732" name="top"/>
  <outline>
    <contour>
      <point x="30" y="66" type="line"/>
      <point x="117" y="5"/>
      <point x="236" y="-29"/>
      <point x="348" y="-29" type="curve" smooth="yes"/>
      <point x="521" y="-29"/>
      <point x="676" y="50"/>
      <point x="678" y="241" type="curve" smooth="yes"/>
      <point x="679" y="357"/>
      <point x="594" y="411"/>
      <point x="483" y="450" type="curve" smooth="yes"/>
      <point x="358" y="493"/>
      <point x="250" y="518"/>
      <point x="251" y="587" type="curve" smooth="yes"/>
      <point x="252" y="633"/>
      <point x="304" y="654"/>
      <point x="363" y="654" type="curve" smooth="yes"/>
      <point x="438" y="654"/>
      <point x="522" y="617"/>
      <point x="522" y="528" type="curve" smooth="yes"/>
      <point x="522" y="512"/>
      <point x="520" y="495"/>
      <point x="515" y="475" type="curve"/>
      <point x="541" y="464" type="line"/>
      <point x="655" y="662" type="line"/>
      <point x="579" y="714"/>
      <point x="476" y="742"/>
      <point x="376" y="744" type="curve" smooth="yes"/>
      <point x="221" y="746"/>
      <point x="84" y="685"/>
      <point x="84" y="524" type="curve" smooth="yes"/>
      <point x="84" y="404"/>
      <point x="167" y="355"/>
      <point x="277" y="318" type="curve" smooth="yes"/>
      <point x="411" y="273"/>
      <point x="494" y="242"/>
      <point x="496" y="169" type="curve" smooth="yes"/>
      <point x="498" y="97"/>
      <point x="440" y="63"/>
      <point x="371" y="63" type="curve" smooth="yes"/>
      <point x="291" y="63"/>
      <point x="198" y="110"/>
      <point x="173" y="200" type="curve" smooth="yes"/>
      <point x="163" y="238"/>
      <point x="166" y="281"/>
      <point x="183" y="322" type="curve"/>
      <point x="156" y="337" type="line"/>
    </contour>
  </outline>
</glyph>
<glyph name="T" format="2">
  <advance width="735"/>
  <unicode hex="0054"/>
  <anchor x="303" y="0" name="bottom"/>
  <anchor x="303" y="361" name="center"/>
  <anchor x="303" y="722" name="top"/>
  <outline>
    <contour>
      <point x="248" y="-1" type="curve"/>
      <point x="488" y="0" type="line"/>
      <point x="474" y="24"/>
      <point x="468" y="48"/>
      <point x="468" y="84" type="curve" smooth="yes"/>
      <point x="468" y="652" type="line"/>
      <point x="550" y="650"/>
      <point x="662" y="555"/>
      <point x="681" y="395" type="curve"/>
      <point x="703" y="398" type="line"/>
      <point x="658" y="722" type="line"/>
      <point x="78" y="722" type="line"/>
      <point x="32" y="398" type="line"/>
      <point x="54" y="395" type="line"/>
      <point x="77" y="555"/>
      <point x="183" y="650"/>
      <point x="268" y="652" type="curve"/>
      <point x="268" y="83" type="line" smooth="yes"/>
      <point x="268" y="47"/>
      <point x="262" y="23"/>
    </contour>
  </outline>
</glyph>
<glyph name="U" format="2">
  <advance width="709"/>
  <unicode hex="0055"/>
  <anchor x="344" y="0" name="bottom"/>
  <anchor x="615" y="10" name="ogonek"/>
  <anchor x="344" y="722" name="top"/>
  <anchor x="663" y="722" name="topright"/>
  <outline>
    <contour>
      <point x="357" y="-29" type="curve" smooth="yes"/>
      <point x="558" y="-30"/>
      <point x="659" y="94"/>
      <point x="659" y="279" type="curve" smooth="yes"/>
      <point x="659" y="638" type="line" smooth="yes"/>
      <point x="659" y="674"/>
      <point x="665" y="698"/>
      <point x="679" y="722" type="curve"/>
      <point x="447" y="722" type="line"/>
      <point x="447" y="698" type="line"/>
      <point x="467" y="698" type="line" smooth="yes"/>
      <point x="507" y="698"/>
      <point x="529" y="676"/>
      <point x="529" y="634" type="curve" smooth="yes"/>
      <point x="529" y="217" type="line" smooth="yes"/>
      <point x="529" y="138"/>
      <point x="480" y="77"/>
      <point x="396" y="77" type="curve" smooth="yes"/>
      <point x="316" y="77"/>
      <point x="250" y="112"/>
      <point x="250" y="208" type="curve" smooth="yes"/>
      <point x="250" y="634" type="line" smooth="yes"/>
      <point x="250" y="676"/>
      <point x="272" y="698"/>
      <point x="312" y="698" type="curve" smooth="yes"/>
      <point x="332" y="698" type="line"/>
      <point x="332" y="722" type="line"/>
      <point x="30" y="722" type="line"/>
      <point x="44" y="698"/>
      <point x="50" y="674"/>
      <point x="50" y="638" type="curve" smooth="yes"/>
      <point x="50" y="250" type="line" smooth="yes"/>
      <point x="50" y="33"/>
      <point x="201" y="-28"/>
    </contour>
  </outline>
</glyph>
<glyph name="V" format="2">
  <advance width="802"/>
  <unicode hex="0056"/>
  <guideline x="463" y="337" angle="293.7931"/>
  <guideline x="697" y="581" angle="246.2069"/>
  <anchor x="410" y="0" name="bottom"/>
  <anchor x="410" y="722" name="top"/>
  <outline>
    <contour>
      <point x="93" y="636" type="curve" smooth="yes"/>
      <point x="374" y="0" type="line"/>
      <point x="447" y="0" type="line"/>
      <point x="710" y="635" type="line" smooth="yes"/>
      <point x="725" y="674"/>
      <point x="737" y="698"/>
      <point x="774" y="698" type="curve" smooth="yes"/>
      <point x="792" y="698" type="line"/>
      <point x="792" y="722" type="line"/>
      <point x="626" y="722" type="line"/>
      <point x="641" y="697"/>
      <point x="643" y="655"/>
      <point x="615" y="587" type="curve" smooth="yes"/>
      <point x="525" y="364" type="line" smooth="yes"/>
      <point x="500" y="302"/>
      <point x="495" y="292"/>
      <point x="490" y="274" type="curve"/>
      <point x="485" y="286"/>
      <point x="473" y="315"/>
      <point x="463" y="337" type="curve" smooth="yes"/>
      <point x="370" y="549" type="line" smooth="yes"/>
      <point x="327" y="646"/>
      <point x="319" y="675"/>
      <point x="319" y="722" type="curve"/>
      <point x="10" y="722" type="line"/>
      <point x="10" y="698" type="line"/>
      <point x="28" y="698" type="line" smooth="yes"/>
      <point x="65" y="698"/>
      <point x="76" y="674"/>
    </contour>
  </outline>
</glyph>
<glyph name="W" format="2">
  <advance width="1189"/>
  <unicode hex="0057"/>
  <anchor x="618" y="0" name="bottom"/>
  <anchor x="530" y="723" name="top"/>
  <outline>
    <contour>
      <point x="94" y="636" type="curve" smooth="yes"/>
      <point x="332" y="0" type="line"/>
      <point x="431" y="-1" type="line"/>
      <point x="600" y="447" type="line"/>
      <point x="768" y="0" type="line"/>
      <point x="872" y="-1" type="line"/>
      <point x="1096" y="635" type="line" smooth="yes"/>
      <point x="1110" y="675"/>
      <point x="1123" y="698"/>
      <point x="1161" y="698" type="curve" smooth="yes"/>
      <point x="1178" y="698" type="line"/>
      <point x="1179" y="722" type="line"/>
      <point x="1022" y="722" type="line"/>
      <point x="1029" y="697"/>
      <point x="1032" y="660"/>
      <point x="1006" y="587" type="curve" smooth="yes"/>
      <point x="895" y="274" type="line"/>
      <point x="733" y="721" type="line"/>
      <point x="449" y="722" type="line"/>
      <point x="449" y="698" type="line"/>
      <point x="466" y="698" type="line" smooth="yes"/>
      <point x="504" y="698"/>
      <point x="515" y="675"/>
      <point x="530" y="635" type="curve" smooth="yes"/>
      <point x="563" y="546" type="line"/>
      <point x="459" y="274" type="line"/>
      <point x="294" y="721" type="line"/>
      <point x="10" y="722" type="line"/>
      <point x="10" y="698" type="line"/>
      <point x="28" y="698" type="line" smooth="yes"/>
      <point x="65" y="698"/>
      <point x="79" y="676"/>
    </contour>
  </outline>
</glyph>
<glyph name="X" format="2">
  <advance width="812"/>
  <unicode hex="0058"/>
  <anchor x="279" y="0" name="bottom"/>
  <anchor x="279" y="722" name="top"/>
  <outline>
    <contour>
      <point x="822" y="14" type="curve"/>
      <point x="815" y="41" type="line"/>
      <point x="756" y="30"/>
      <point x="725" y="54"/>
      <point x="684" y="119" type="curve" smooth="yes"/>
      <point x="343" y="656" type="line" smooth="yes"/>
      <point x="323" y="687"/>
      <point x="315" y="704"/>
      <point x="314" y="722" type="curve"/>
      <point x="21" y="722" type="line"/>
      <point x="21" y="698" type="line"/>
      <point x="40" y="698" type="line" smooth="yes"/>
      <point x="81" y="698"/>
      <point x="90" y="673"/>
      <point x="113" y="637" type="curve" smooth="yes"/>
      <point x="459" y="91" type="line" smooth="yes"/>
      <point x="513" y="5"/>
      <point x="561" y="-28"/>
      <point x="633" y="-32" type="curve" smooth="yes"/>
      <point x="686" y="-35"/>
      <point x="748" y="-21"/>
    </contour>
    <contour>
      <point x="20" y="22" type="curve"/>
      <point x="21" y="0" type="line"/>
      <point x="265" y="0" type="line"/>
      <point x="256" y="27"/>
      <point x="251" y="68"/>
      <point x="290" y="148" type="curve" smooth="yes"/>
      <point x="418" y="411" type="line"/>
      <point x="334" y="452" type="line"/>
      <point x="137" y="110" type="line" smooth="yes"/>
      <point x="105" y="54"/>
      <point x="78" y="27"/>
    </contour>
    <contour>
      <point x="485" y="348" type="line"/>
      <point x="605" y="520" type="line" smooth="yes"/>
      <point x="699" y="655"/>
      <point x="732" y="697"/>
      <point x="804" y="701" type="curve"/>
      <point x="804" y="722" type="line"/>
      <point x="566" y="722" type="line"/>
      <point x="569" y="692"/>
      <point x="566" y="654"/>
      <point x="514" y="564" type="curve" smooth="yes"/>
      <point x="424" y="407" type="line"/>
    </contour>
  </outline>
</glyph>
<glyph name="Y" format="2">
  <advance width="679"/>
  <unicode hex="0059"/>
  <anchor x="335" y="0" name="bottom"/>
  <anchor x="335" y="722" name="top"/>
  <anchor x="30" y="722" name="topleft"/>
  <outline>
    <contour>
      <point x="212" y="-132" type="curve"/>
      <point x="236" y="-146" type="line"/>
      <point x="305" y="-39"/>
      <point x="368" y="-10"/>
      <point x="458" y="0" type="curve"/>
      <point x="458" y="371" type="line"/>
      <point x="558" y="569" type="line" smooth="yes"/>
      <point x="607" y="666"/>
      <point x="632" y="697"/>
      <point x="672" y="698" type="curve"/>
      <point x="672" y="722" type="line"/>
      <point x="505" y="722" type="line"/>
      <point x="516" y="693"/>
      <point x="524" y="665"/>
      <point x="477" y="568" type="curve" smooth="yes"/>
      <point x="426" y="464" type="line"/>
      <point x="313" y="656" type="line" smooth="yes"/>
      <point x="295" y="687"/>
      <point x="287" y="704"/>
      <point x="286" y="722" type="curve"/>
      <point x="7" y="722" type="line"/>
      <point x="7" y="698" type="line"/>
      <point x="27" y="698" type="line" smooth="yes"/>
      <point x="67" y="698"/>
      <point x="78" y="673"/>
      <point x="99" y="637" type="curve" smooth="yes"/>
      <point x="258" y="367" type="line"/>
      <point x="258" y="75" type="line" smooth="yes"/>
      <point x="258" y="-31"/>
      <point x="251" y="-68"/>
    </contour>
  </outline>
</glyph>
<glyph name="Z" format="2">
  <advance width="689"/>
  <unicode hex="005A"/>
  <anchor x="326" y="0" name="bottom"/>
  <anchor x="326" y="361" name="center"/>
  <anchor x="326" y="722" name="top"/>
  <outline>
    <contour>
      <point x="27" y="-6" type="line"/>
      <point x="91" y="-1"/>
      <point x="165" y="2"/>
      <point x="237" y="0" type="curve" smooth="yes"/>
      <point x="349" y="-3"/>
      <point x="482" y="-3"/>
      <point x="607" y="1" type="curve"/>
      <point x="611" y="96"/>
      <point x="648" y="221"/>
      <point x="654" y="286" type="curve"/>
      <point x="629" y="291" type="line"/>
      <point x="610" y="215"/>
      <point x="580" y="199"/>
      <point x="525" y="185" type="curve" smooth="yes"/>
      <point x="476" y="173"/>
      <point x="411" y="170"/>
      <point x="333" y="170" type="curve" smooth="yes"/>
      <point x="278" y="170"/>
      <point x="227" y="170"/>
      <point x="181" y="167" type="curve"/>
      <point x="177" y="175" type="line"/>
      <point x="680" y="722" type="line"/>
      <point x="667" y="742" type="line"/>
      <point x="618" y="721"/>
      <point x="544" y="722"/>
      <point x="407" y="722" type="curve" smooth="yes"/>
      <point x="254" y="722"/>
      <point x="175" y="718"/>
      <point x="136" y="742" type="curve"/>
      <point x="35" y="444" type="line"/>
      <point x="61" y="435" type="line"/>
      <point x="102" y="520"/>
      <point x="126" y="548"/>
      <point x="218" y="548" type="curve" smooth="yes"/>
      <point x="406" y="548" type="line"/>
      <point x="-6" y="39" type="line"/>
    </contour>
  </outline>
</glyph>
<glyph name="bracketleft" format="2">
  <advance width="501"/>
  <unicode hex="005B"/>
  <note>
bracketleft
</note>
  <outline>
    <contour>
      <point x="60" y="-96" type="curve"/>
      <point x="433" y="-96" type="line"/>
      <point x="434" y="36"/>
      <point x="440" y="92"/>
      <point x="461" y="156" type="curve"/>
      <point x="437" y="163" type="line"/>
      <point x="394" y="53"/>
      <point x="343" y="-48"/>
      <point x="271" y="-48" type="curve" smooth="yes"/>
      <point x="234" y="-48"/>
      <point x="230" y="-35"/>
      <point x="230" y="15" type="curve" smooth="yes"/>
      <point x="230" y="772" type="line"/>
      <point x="258" y="772" type="line" smooth="yes"/>
      <point x="325" y="772"/>
      <point x="358" y="722"/>
      <point x="419" y="565" type="curve"/>
      <point x="445" y="576" type="line"/>
      <point x="424" y="640"/>
      <point x="421" y="788"/>
      <point x="420" y="820" type="curve"/>
      <point x="60" y="820" type="line"/>
      <point x="76" y="793"/>
      <point x="80" y="779"/>
      <point x="80" y="722" type="curve" smooth="yes"/>
      <point x="80" y="-7" type="line" smooth="yes"/>
      <point x="80" y="-52"/>
      <point x="75" y="-69"/>
    </contour>
  </outline>
</glyph>
<glyph name="bracketright" format="2">
  <advance width="501"/>
  <unicode hex="005D"/>
  <note>
bracketright
</note>
  <outline>
    <contour>
      <point x="68" y="-96" type="curve"/>
      <point x="441" y="-96" type="line"/>
      <point x="426" y="-69"/>
      <point x="421" y="-52"/>
      <point x="421" y="-7" type="curve" smooth="yes"/>
      <point x="421" y="722" type="line" smooth="yes"/>
      <point x="421" y="779"/>
      <point x="425" y="793"/>
      <point x="441" y="820" type="curve"/>
      <point x="81" y="820" type="line"/>
      <point x="80" y="788"/>
      <point x="77" y="640"/>
      <point x="56" y="576" type="curve"/>
      <point x="82" y="565" type="line"/>
      <point x="133" y="705"/>
      <point x="192" y="772"/>
      <point x="238" y="772" type="curve" smooth="yes"/>
      <point x="271" y="772" type="line"/>
      <point x="271" y="15" type="line" smooth="yes"/>
      <point x="271" y="-35"/>
      <point x="267" y="-48"/>
      <point x="230" y="-48" type="curve" smooth="yes"/>
      <point x="158" y="-48"/>
      <point x="107" y="53"/>
      <point x="64" y="163" type="curve"/>
      <point x="40" y="156" type="line"/>
      <point x="61" y="92"/>
      <point x="67" y="36"/>
    </contour>
  </outline>
</glyph>
<glyph name="a" format="2">
  <advance width="634"/>
  <unicode hex="0061"/>
  <guideline x="289" y="458" angle="294.8481"/>
  <guideline x="400" y="44" angle="293.9625"/>
  <anchor x="619" y="0" name="ogonek"/>
  <anchor x="297" y="500" name="top"/>
  <outline>
    <contour>
      <point x="398" y="0" type="curve"/>
      <point x="619" y="0" type="line"/>
      <point x="415" y="460" type="line" smooth="yes"/>
      <point x="407" y="477"/>
      <point x="405" y="488"/>
      <point x="408" y="500" type="curve"/>
      <point x="64" y="500" type="line"/>
      <point x="64" y="476" type="line"/>
      <point x="103" y="476" type="line" smooth="yes"/>
      <point x="184" y="476"/>
      <point x="218" y="452"/>
      <point x="236" y="414" type="curve" smooth="yes"/>
      <point x="393" y="64" type="line" smooth="yes"/>
      <point x="404" y="37"/>
      <point x="406" y="19"/>
    </contour>
    <contour>
      <point x="197" y="-12" type="curve" smooth="yes"/>
      <point x="291" y="-12"/>
      <point x="366" y="51"/>
      <point x="377" y="140" type="curve"/>
      <point x="353" y="200" type="line"/>
      <point x="342" y="154"/>
      <point x="308" y="124"/>
      <point x="265" y="124" type="curve" smooth="yes"/>
      <point x="219" y="124"/>
      <point x="189" y="158"/>
      <point x="189" y="212" type="curve" smooth="yes"/>
      <point x="189" y="279"/>
      <point x="234" y="324"/>
      <point x="305" y="328" type="curve"/>
      <point x="281" y="360" type="line"/>
      <point x="131" y="360"/>
      <point x="25" y="275"/>
      <point x="25" y="156" type="curve" smooth="yes"/>
      <point x="25" y="58"/>
      <point x="96" y="-12"/>
    </contour>
  </outline>
</glyph>
<glyph name="b" format="2">
  <advance width="604"/>
  <unicode hex="0062"/>
  <anchor x="338" y="0" name="bottom"/>
  <anchor x="328" y="250" name="center"/>
  <anchor x="338" y="800" name="top"/>
  <outline>
    <contour>
      <point x="277" y="-8" type="curve" smooth="yes"/>
      <point x="433" y="-8"/>
      <point x="579" y="76"/>
      <point x="579" y="265" type="curve" smooth="yes"/>
      <point x="579" y="425"/>
      <point x="466" y="511"/>
      <point x="332" y="511" type="curve" smooth="yes"/>
      <point x="279" y="511"/>
      <point x="223" y="498"/>
      <point x="170" y="470" type="curve"/>
      <point x="210" y="404" type="line"/>
      <point x="243" y="435"/>
      <point x="272" y="447"/>
      <point x="298" y="447" type="curve" smooth="yes"/>
      <point x="353" y="447"/>
      <point x="383" y="368"/>
      <point x="383" y="252" type="curve" smooth="yes"/>
      <point x="383" y="154"/>
      <point x="354" y="54"/>
      <point x="293" y="54" type="curve" smooth="yes"/>
      <point x="258" y="54"/>
      <point x="247" y="87"/>
      <point x="247" y="132" type="curve" smooth="yes"/>
      <point x="247" y="657" type="line" smooth="yes"/>
      <point x="247" y="746"/>
      <point x="249" y="771"/>
      <point x="265" y="820" type="curve"/>
      <point x="253" y="828" type="line"/>
      <point x="37" y="668" type="line"/>
      <point x="37" y="656" type="line"/>
      <point x="55" y="638"/>
      <point x="63" y="611"/>
      <point x="63" y="568" type="curve" smooth="yes"/>
      <point x="63" y="193" type="line" smooth="yes"/>
      <point x="63" y="154"/>
      <point x="53" y="124"/>
      <point x="27" y="91" type="curve"/>
      <point x="86" y="24"/>
      <point x="177" y="-8"/>
    </contour>
  </outline>
</glyph>
<glyph name="c" format="2">
  <advance width="535"/>
  <unicode hex="0063"/>
  <anchor x="267" y="0" name="bottom"/>
  <anchor x="267" y="500" name="top"/>
  <outline>
    <contour>
      <point x="273" y="-12" type="curve" smooth="yes"/>
      <point x="372" y="-12"/>
      <point x="472" y="44"/>
      <point x="518" y="168" type="curve"/>
      <point x="502" y="176" type="line"/>
      <point x="480" y="141"/>
      <point x="433" y="120"/>
      <point x="382" y="120" type="curve" smooth="yes"/>
      <point x="300" y="120"/>
      <point x="211" y="173"/>
      <point x="211" y="307" type="curve" smooth="yes"/>
      <point x="211" y="400"/>
      <point x="276" y="447"/>
      <point x="332" y="447" type="curve" smooth="yes"/>
      <point x="416" y="447"/>
      <point x="420" y="363"/>
      <point x="412" y="314" type="curve"/>
      <point x="431" y="310" type="line"/>
      <point x="496" y="475" type="line"/>
      <point x="447" y="499"/>
      <point x="386" y="513"/>
      <point x="325" y="513" type="curve" smooth="yes"/>
      <point x="177" y="513"/>
      <point x="25" y="435"/>
      <point x="25" y="239" type="curve" smooth="yes"/>
      <point x="25" y="80"/>
      <point x="148" y="-12"/>
    </contour>
  </outline>
</glyph>
<glyph name="d" format="2">
  <advance width="611"/>
  <unicode hex="0064"/>
  <anchor x="313" y="0" name="bottom"/>
  <anchor x="313" y="250" name="center"/>
  <anchor x="313" y="800" name="top"/>
  <anchor x="574" y="500" name="topright"/>
  <outline>
    <contour>
      <point x="351" y="656" type="curve" smooth="yes"/>
      <point x="351" y="505" type="line"/>
      <point x="333" y="507"/>
      <point x="316" y="509"/>
      <point x="300" y="509" type="curve" smooth="yes"/>
      <point x="113" y="509"/>
      <point x="25" y="357"/>
      <point x="25" y="214" type="curve" smooth="yes"/>
      <point x="25" y="47"/>
      <point x="129" y="-20"/>
      <point x="230" y="-20" type="curve" smooth="yes"/>
      <point x="281" y="-20"/>
      <point x="330" y="-3"/>
      <point x="365" y="26" type="curve"/>
      <point x="369" y="16"/>
      <point x="374" y="6"/>
      <point x="377" y="0" type="curve"/>
      <point x="553" y="0" type="line"/>
      <point x="540" y="23"/>
      <point x="535" y="48"/>
      <point x="535" y="84" type="curve" smooth="yes"/>
      <point x="535" y="568" type="line" smooth="yes"/>
      <point x="535" y="611"/>
      <point x="543" y="638"/>
      <point x="561" y="656" type="curve"/>
      <point x="561" y="668" type="line"/>
      <point x="345" y="828" type="line"/>
      <point x="333" y="820" type="line"/>
      <point x="349" y="771"/>
      <point x="351" y="745"/>
    </contour>
    <contour>
      <point x="219" y="253" type="curve" smooth="yes"/>
      <point x="219" y="344"/>
      <point x="256" y="439"/>
      <point x="325" y="439" type="curve" smooth="yes"/>
      <point x="333" y="439"/>
      <point x="342" y="438"/>
      <point x="351" y="435" type="curve"/>
      <point x="351" y="106" type="line" smooth="yes"/>
      <point x="351" y="79"/>
      <point x="332" y="63"/>
      <point x="309" y="63" type="curve" smooth="yes"/>
      <point x="243" y="63"/>
      <point x="219" y="155"/>
    </contour>
  </outline>
</glyph>
<glyph name="e" format="2">
  <advance width="528"/>
  <unicode hex="0065"/>
  <anchor x="267" y="0" name="bottom"/>
  <anchor x="469" y="10" name="ogonek"/>
  <anchor x="267" y="500" name="top"/>
  <outline>
    <contour>
      <point x="273" y="-12" type="curve" smooth="yes"/>
      <point x="385" y="-12"/>
      <point x="474" y="58"/>
      <point x="508" y="168" type="curve"/>
      <point x="490" y="178" type="line"/>
      <point x="473" y="142"/>
      <point x="426" y="119"/>
      <point x="374" y="119" type="curve" smooth="yes"/>
      <point x="295" y="119"/>
      <point x="209" y="175"/>
      <point x="209" y="324" type="curve" smooth="yes"/>
      <point x="209" y="400"/>
      <point x="232" y="447"/>
      <point x="264" y="447" type="curve" smooth="yes"/>
      <point x="296" y="447"/>
      <point x="315" y="391"/>
      <point x="313" y="334" type="curve"/>
      <point x="187" y="334" type="line"/>
      <point x="187" y="282" type="line"/>
      <point x="471" y="282" type="line"/>
      <point x="481" y="312" type="line"/>
      <point x="483" y="409"/>
      <point x="412" y="507"/>
      <point x="282" y="507" type="curve" smooth="yes"/>
      <point x="114" y="507"/>
      <point x="25" y="372"/>
      <point x="25" y="239" type="curve" smooth="yes"/>
      <point x="25" y="112"/>
      <point x="107" y="-12"/>
    </contour>
  </outline>
</glyph>
<glyph name="g" format="2">
  <advance width="653"/>
  <unicode hex="0067"/>
  <anchor x="334" y="-200" name="bottom"/>
  <anchor x="335" y="515" name="top"/>
  <outline>
    <contour>
      <point x="121" y="-32" type="curve"/>
      <point x="20" y="-184" type="line"/>
      <point x="51" y="-277"/>
      <point x="136" y="-317"/>
      <point x="231" y="-322" type="curve" smooth="yes"/>
      <point x="386" y="-330"/>
      <point x="575" y="-234"/>
      <point x="578" y="-49" type="curve" smooth="yes"/>
      <point x="579" y="25"/>
      <point x="534" y="47"/>
      <point x="461" y="53" type="curve" smooth="yes"/>
      <point x="372" y="60"/>
      <point x="235" y="53"/>
      <point x="209" y="96" type="curve"/>
      <point x="280" y="117"/>
      <point x="344" y="137"/>
      <point x="415" y="166" type="curve" smooth="yes"/>
      <point x="504" y="202"/>
      <point x="560" y="261"/>
      <point x="560" y="328" type="curve" smooth="yes"/>
      <point x="560" y="377"/>
      <point x="534" y="426"/>
      <point x="479" y="464" type="curve"/>
      <point x="529" y="472"/>
      <point x="577" y="476"/>
      <point x="633" y="476" type="curve"/>
      <point x="633" y="500" type="line"/>
      <point x="587" y="503"/>
      <point x="557" y="524"/>
      <point x="535" y="557" type="curve"/>
      <point x="396" y="502" type="line"/>
      <point x="382" y="504"/>
      <point x="364" y="506"/>
      <point x="333" y="506" type="curve" smooth="yes"/>
      <point x="221" y="506"/>
      <point x="78" y="453"/>
      <point x="78" y="317" type="curve" smooth="yes"/>
      <point x="78" y="251"/>
      <point x="116" y="186"/>
      <point x="189" y="144" type="curve"/>
      <point x="146" y="125"/>
      <point x="91" y="108"/>
      <point x="32" y="94" type="curve"/>
      <point x="38" y="34"/>
      <point x="76" y="-8"/>
    </contour>
    <contour>
      <point x="162" y="-52" type="curve"/>
      <point x="241" y="-92"/>
      <point x="325" y="-91"/>
      <point x="380" y="-103" type="curve" smooth="yes"/>
      <point x="415" y="-110"/>
      <point x="440" y="-122"/>
      <point x="444" y="-152" type="curve" smooth="yes"/>
      <point x="452" y="-200"/>
      <point x="409" y="-223"/>
      <point x="354" y="-223" type="curve" smooth="yes"/>
      <point x="286" y="-223"/>
      <point x="199" y="-187"/>
      <point x="170" y="-119" type="curve" smooth="yes"/>
      <point x="161" y="-99"/>
      <point x="158" y="-76"/>
    </contour>
    <contour>
      <point x="254" y="356" type="curve" smooth="yes"/>
      <point x="255" y="417"/>
      <point x="285" y="445"/>
      <point x="315" y="443" type="curve" smooth="yes"/>
      <point x="352" y="441"/>
      <point x="388" y="395"/>
      <point x="390" y="321" type="curve" smooth="yes"/>
      <point x="391" y="275"/>
      <point x="376" y="230"/>
      <point x="342" y="199" type="curve"/>
      <point x="280" y="237"/>
      <point x="253" y="302"/>
    </contour>
  </outline>
</glyph>
<glyph name="i" format="2">
  <advance width="330"/>
  <unicode hex="0069"/>
  <outline>
    <component base="idotless"/>
    <contour>
      <point x="176" y="563" type="curve" smooth="yes"/>
      <point x="218" y="563"/>
      <point x="252" y="597"/>
      <point x="252" y="640" type="curve" smooth="yes"/>
      <point x="252" y="682"/>
      <point x="218" y="716"/>
      <point x="176" y="716" type="curve" smooth="yes"/>
      <point x="133" y="716"/>
      <point x="99" y="682"/>
      <point x="99" y="640" type="curve" smooth="yes"/>
      <point x="99" y="597"/>
      <point x="133" y="563"/>
    </contour>
  </outline>
</glyph>
<glyph name="k" format="2">
  <advance width="627"/>
  <unicode hex="006B"/>
  <anchor x="284" y="0" name="bottom"/>
  <anchor x="284" y="800" name="top"/>
  <outline>
    <contour>
      <point x="420" y="500" type="line"/>
      <point x="416" y="466"/>
      <point x="406" y="446"/>
      <point x="354" y="394" type="curve" smooth="yes"/>
      <point x="245" y="285" type="line"/>
      <point x="245" y="244" type="line"/>
      <point x="257" y="244" type="line"/>
      <point x="362" y="54" type="line" smooth="yes"/>
      <point x="374" y="32"/>
      <point x="378" y="17"/>
      <point x="377" y="0" type="curve"/>
      <point x="617" y="0" type="line"/>
      <point x="617" y="21" type="line"/>
      <point x="581" y="27"/>
      <point x="567" y="42"/>
      <point x="530" y="110" type="curve" smooth="yes"/>
      <point x="413" y="322" type="line"/>
      <point x="450" y="362" type="line" smooth="yes"/>
      <point x="522" y="439"/>
      <point x="547" y="470"/>
      <point x="573" y="476" type="curve"/>
      <point x="573" y="500" type="line"/>
    </contour>
    <component base="l"/>
  </outline>
</glyph>
<glyph name="m" format="2">
  <advance width="912"/>
  <unicode hex="006D"/>
  <anchor x="417" y="0" name="bottom"/>
  <anchor x="417" y="500" name="top"/>
  <outline>
    <contour>
      <point x="581" y="-28" type="curve"/>
      <point x="592" y="-49" type="line"/>
      <point x="807" y="46"/>
      <point x="892" y="196"/>
      <point x="892" y="315" type="curve" smooth="yes"/>
      <point x="892" y="424"/>
      <point x="822" y="508"/>
      <point x="721" y="508" type="curve" smooth="yes"/>
      <point x="661" y="508"/>
      <point x="590" y="481"/>
      <point x="545" y="435" type="curve"/>
      <point x="559" y="392" type="line"/>
      <point x="578" y="407"/>
      <point x="596" y="413"/>
      <point x="613" y="413" type="curve" smooth="yes"/>
      <point x="666" y="413"/>
      <point x="702" y="344"/>
      <point x="702" y="261" type="curve" smooth="yes"/>
      <point x="702" y="148"/>
      <point x="662" y="23"/>
    </contour>
    <contour>
      <point x="68" y="0" type="curve"/>
      <point x="290" y="0" type="line"/>
      <point x="277" y="23"/>
      <point x="272" y="48"/>
      <point x="272" y="84" type="curve" smooth="yes"/>
      <point x="272" y="430" type="line" smooth="yes"/>
      <point x="272" y="453"/>
      <point x="270" y="477"/>
      <point x="265" y="500" type="curve"/>
      <point x="20" y="500" type="line"/>
      <point x="20" y="476" type="line"/>
      <point x="36" y="476" type="line" smooth="yes"/>
      <point x="70" y="476"/>
      <point x="88" y="454"/>
      <point x="88" y="412" type="curve" smooth="yes"/>
      <point x="88" y="84" type="line" smooth="yes"/>
      <point x="88" y="48"/>
      <point x="82" y="24"/>
    </contour>
    <contour>
      <point x="329" y="-55" type="curve"/>
      <point x="342" y="-74" type="line"/>
      <point x="504" y="9"/>
      <point x="594" y="162"/>
      <point x="594" y="308" type="curve" smooth="yes"/>
      <point x="594" y="425"/>
      <point x="519" y="508"/>
      <point x="414" y="508" type="curve" smooth="yes"/>
      <point x="354" y="508"/>
      <point x="296" y="481"/>
      <point x="252" y="444" type="curve"/>
      <point x="252" y="392" type="line"/>
      <point x="268" y="404"/>
      <point x="288" y="412"/>
      <point x="306" y="412" type="curve" smooth="yes"/>
      <point x="375" y="412"/>
      <point x="407" y="323"/>
      <point x="407" y="222" type="curve" smooth="yes"/>
      <point x="407" y="109"/>
      <point x="379" y="-14"/>
    </contour>
  </outline>
</glyph>
<glyph name="n" format="2">
  <advance width="614"/>
  <unicode hex="006E"/>
  <anchor x="257" y="0" name="bottom"/>
  <anchor x="257" y="500" name="top"/>
  <outline>
    <contour>
      <point x="319" y="-75" type="curve"/>
      <point x="334" y="-92" type="line"/>
      <point x="484" y="-1"/>
      <point x="594" y="162"/>
      <point x="594" y="308" type="curve" smooth="yes"/>
      <point x="594" y="425"/>
      <point x="519" y="508"/>
      <point x="414" y="508" type="curve" smooth="yes"/>
      <point x="354" y="508"/>
      <point x="291" y="481"/>
      <point x="252" y="444" type="curve"/>
      <point x="252" y="392" type="line"/>
      <point x="268" y="404"/>
      <point x="288" y="412"/>
      <point x="306" y="412" type="curve" smooth="yes"/>
      <point x="366" y="412"/>
      <point x="404" y="337"/>
      <point x="404" y="220" type="curve" smooth="yes"/>
      <point x="404" y="103"/>
      <point x="371" y="-12"/>
    </contour>
    <contour>
      <point x="68" y="0" type="curve"/>
      <point x="290" y="0" type="line"/>
      <point x="277" y="23"/>
      <point x="272" y="48"/>
      <point x="272" y="84" type="curve" smooth="yes"/>
      <point x="272" y="430" type="line" smooth="yes"/>
      <point x="272" y="453"/>
      <point x="272" y="481"/>
      <point x="265" y="500" type="curve"/>
      <point x="20" y="500" type="line"/>
      <point x="20" y="476" type="line"/>
      <point x="36" y="476" type="line" smooth="yes"/>
      <point x="70" y="476"/>
      <point x="88" y="454"/>
      <point x="88" y="412" type="curve" smooth="yes"/>
      <point x="88" y="84" type="line" smooth="yes"/>
      <point x="88" y="48"/>
      <point x="82" y="24"/>
    </contour>
  </outline>
</glyph>
<glyph name="o" format="2">
  <advance width="594"/>
  <unicode hex="006F"/>
  <anchor x="295" y="500" name="top"/>
  <outline>
    <contour>
      <point x="299" y="-12" type="curve" smooth="yes"/>
      <point x="457" y="-12"/>
      <point x="569" y="95"/>
      <point x="569" y="246" type="curve" smooth="yes"/>
      <point x="569" y="399"/>
      <point x="455" y="508"/>
      <point x="295" y="508" type="curve" smooth="yes"/>
      <point x="137" y="508"/>
      <point x="25" y="401"/>
      <point x="25" y="250" type="curve" smooth="yes"/>
      <point x="25" y="97"/>
      <point x="139" y="-12"/>
    </contour>
    <contour>
      <point x="322" y="57" type="curve" smooth="yes"/>
      <point x="266" y="57"/>
      <point x="225" y="152"/>
      <point x="219" y="288" type="curve" smooth="yes"/>
      <point x="217" y="390"/>
      <point x="242" y="445"/>
      <point x="286" y="446" type="curve" smooth="yes"/>
      <point x="342" y="447"/>
      <point x="382" y="355"/>
      <point x="387" y="219" type="curve" smooth="yes"/>
      <point x="389" y="117"/>
      <point x="366" y="57"/>
    </contour>
  </outline>
</glyph>
<glyph name="p" format="2">
  <advance width="613"/>
  <unicode hex="0070"/>
  <anchor x="275" y="0" name="bottom"/>
  <anchor x="275" y="500" name="top"/>
  <outline>
    <contour>
      <point x="267" y="-154" type="curve" smooth="yes"/>
      <point x="267" y="-6" type="line"/>
      <point x="306" y="-12"/>
      <point x="342" y="-12"/>
      <point x="375" y="-7" type="curve" smooth="yes"/>
      <point x="507" y="16"/>
      <point x="588" y="132"/>
      <point x="588" y="299" type="curve" smooth="yes"/>
      <point x="588" y="437"/>
      <point x="503" y="516"/>
      <point x="398" y="516" type="curve" smooth="yes"/>
      <point x="351" y="516"/>
      <point x="300" y="500"/>
      <point x="251" y="466" type="curve"/>
      <point x="240" y="500" type="line"/>
      <point x="15" y="500" type="line"/>
      <point x="15" y="476" type="line"/>
      <point x="31" y="476" type="line" smooth="yes"/>
      <point x="65" y="476"/>
      <point x="83" y="454"/>
      <point x="83" y="412" type="curve" smooth="yes"/>
      <point x="83" y="-66" type="line" smooth="yes"/>
      <point x="83" y="-109"/>
      <point x="75" y="-136"/>
      <point x="57" y="-154" type="curve"/>
      <point x="57" y="-166" type="line"/>
      <point x="273" y="-326" type="line"/>
      <point x="285" y="-318" type="line"/>
      <point x="269" y="-269"/>
      <point x="267" y="-243"/>
    </contour>
    <contour>
      <point x="396" y="246" type="curve" smooth="yes"/>
      <point x="396" y="156"/>
      <point x="367" y="71"/>
      <point x="304" y="57" type="curve" smooth="yes"/>
      <point x="291" y="55"/>
      <point x="278" y="55"/>
      <point x="263" y="58" type="curve"/>
      <point x="263" y="400" type="line"/>
      <point x="267" y="422"/>
      <point x="285" y="436"/>
      <point x="308" y="436" type="curve" smooth="yes"/>
      <point x="360" y="436"/>
      <point x="396" y="359"/>
    </contour>
  </outline>
</glyph>
<glyph name="r" format="2">
  <advance width="526"/>
  <unicode hex="0072"/>
  <anchor x="188" y="0" name="bottom"/>
  <anchor x="328" y="500" name="top"/>
  <outline>
    <contour>
      <point x="68" y="0" type="curve"/>
      <point x="290" y="0" type="line"/>
      <point x="277" y="23"/>
      <point x="272" y="48"/>
      <point x="272" y="84" type="curve" smooth="yes"/>
      <point x="272" y="344" type="line"/>
      <point x="285" y="347"/>
      <point x="297" y="348"/>
      <point x="309" y="348" type="curve" smooth="yes"/>
      <point x="351" y="348"/>
      <point x="387" y="334"/>
      <point x="421" y="305" type="curve"/>
      <point x="484" y="359"/>
      <point x="521" y="438"/>
      <point x="516" y="508" type="curve"/>
      <point x="496" y="510" type="line"/>
      <point x="490" y="485"/>
      <point x="466" y="472"/>
      <point x="442" y="472" type="curve" smooth="yes"/>
      <point x="414" y="472"/>
      <point x="386" y="486"/>
      <point x="378" y="512" type="curve"/>
      <point x="267" y="413" type="line"/>
      <point x="267" y="453"/>
      <point x="267" y="481"/>
      <point x="262" y="500" type="curve"/>
      <point x="20" y="500" type="line"/>
      <point x="20" y="476" type="line"/>
      <point x="36" y="476" type="line" smooth="yes"/>
      <point x="70" y="476"/>
      <point x="88" y="454"/>
      <point x="88" y="412" type="curve" smooth="yes"/>
      <point x="88" y="84" type="line" smooth="yes"/>
      <point x="88" y="48"/>
      <point x="82" y="24"/>
    </contour>
  </outline>
</glyph>
<glyph name="s" format="2">
  <advance width="520"/>
  <unicode hex="0073"/>
  <anchor x="229" y="0" name="bottom"/>
  <anchor x="229" y="500" name="top"/>
  <outline>
    <contour>
      <point x="259" y="-21" type="curve" smooth="yes"/>
      <point x="382" y="-21"/>
      <point x="500" y="32"/>
      <point x="500" y="154" type="curve" smooth="yes"/>
      <point x="500" y="350"/>
      <point x="213" y="292"/>
      <point x="214" y="397" type="curve" smooth="yes"/>
      <point x="214" y="436"/>
      <point x="251" y="455"/>
      <point x="290" y="455" type="curve" smooth="yes"/>
      <point x="360" y="455"/>
      <point x="383" y="410"/>
      <point x="383" y="364" type="curve" smooth="yes"/>
      <point x="383" y="352"/>
      <point x="381" y="339"/>
      <point x="378" y="328" type="curve"/>
      <point x="400" y="320" type="line"/>
      <point x="481" y="447" type="line"/>
      <point x="429" y="497"/>
      <point x="351" y="520"/>
      <point x="275" y="520" type="curve" smooth="yes"/>
      <point x="164" y="520"/>
      <point x="60" y="468"/>
      <point x="60" y="362" type="curve" smooth="yes"/>
      <point x="61" y="166"/>
      <point x="345" y="218"/>
      <point x="345" y="104" type="curve" smooth="yes"/>
      <point x="345" y="62"/>
      <point x="309" y="42"/>
      <point x="272" y="42" type="curve" smooth="yes"/>
      <point x="191" y="42"/>
      <point x="119" y="120"/>
      <point x="104" y="212" type="curve"/>
      <point x="82" y="211" type="line"/>
      <point x="80" y="137"/>
      <point x="53" y="96"/>
      <point x="20" y="55" type="curve"/>
      <point x="58" y="9"/>
      <point x="160" y="-21"/>
    </contour>
  </outline>
</glyph>
<glyph name="t" format="2">
  <advance width="389"/>
  <unicode hex="0074"/>
  <anchor x="177" y="0" name="bottom"/>
  <anchor x="177" y="250" name="center"/>
  <anchor x="177" y="500" name="top"/>
  <anchor x="305" y="554" name="topright"/>
  <outline>
    <contour>
      <point x="59" y="0" type="curve"/>
      <point x="281" y="0" type="line"/>
      <point x="268" y="23"/>
      <point x="263" y="48"/>
      <point x="263" y="84" type="curve" smooth="yes"/>
      <point x="263" y="589" type="line" smooth="yes"/>
      <point x="263" y="678"/>
      <point x="265" y="702"/>
      <point x="281" y="751" type="curve"/>
      <point x="269" y="759" type="line"/>
      <point x="53" y="599" type="line"/>
      <point x="53" y="587" type="line"/>
      <point x="71" y="569"/>
      <point x="79" y="542"/>
      <point x="79" y="499" type="curve" smooth="yes"/>
      <point x="79" y="84" type="line" smooth="yes"/>
      <point x="79" y="48"/>
      <point x="73" y="24"/>
    </contour>
    <contour>
      <point x="289" y="500" type="curve" smooth="yes"/>
      <point x="80" y="500" type="line"/>
      <point x="20" y="448" type="line"/>
      <point x="24" y="430" type="line"/>
      <point x="349" y="430" type="line"/>
      <point x="369" y="522" type="line"/>
      <point x="351" y="526" type="line"/>
      <point x="339" y="505"/>
      <point x="327" y="500"/>
    </contour>
  </outline>
</glyph>
<glyph name="u" format="2">
  <advance width="631"/>
  <unicode hex="0075"/>
  <anchor x="567" y="0" name="ogonek"/>
  <anchor x="331" y="500" name="top"/>
  <outline>
    <contour>
      <point x="201" y="-19" type="curve" smooth="yes"/>
      <point x="275" y="-19"/>
      <point x="369" y="35"/>
      <point x="403" y="78" type="curve"/>
      <point x="403" y="136" type="line"/>
      <point x="381" y="109"/>
      <point x="343" y="90"/>
      <point x="310" y="92" type="curve" smooth="yes"/>
      <point x="278" y="94"/>
      <point x="261" y="112"/>
      <point x="261" y="164" type="curve" smooth="yes"/>
      <point x="261" y="416" type="line" smooth="yes"/>
      <point x="261" y="452"/>
      <point x="265" y="476"/>
      <point x="275" y="500" type="curve"/>
      <point x="20" y="500" type="line"/>
      <point x="20" y="476" type="line"/>
      <point x="33" y="476" type="line" smooth="yes"/>
      <point x="62" y="476"/>
      <point x="77" y="454"/>
      <point x="77" y="412" type="curve" smooth="yes"/>
      <point x="77" y="134" type="line" smooth="yes"/>
      <point x="77" y="22"/>
      <point x="129" y="-19"/>
    </contour>
    <contour>
      <point x="397" y="0" type="curve"/>
      <point x="591" y="0" type="line"/>
      <point x="578" y="23"/>
      <point x="573" y="48"/>
      <point x="573" y="84" type="curve" smooth="yes"/>
      <point x="573" y="416" type="line" smooth="yes"/>
      <point x="573" y="452"/>
      <point x="578" y="476"/>
      <point x="589" y="500" type="curve"/>
      <point x="335" y="500" type="line"/>
      <point x="335" y="478" type="line"/>
      <point x="347" y="478" type="line" smooth="yes"/>
      <point x="375" y="478"/>
      <point x="389" y="459"/>
      <point x="389" y="421" type="curve" smooth="yes"/>
      <point x="389" y="93" type="line" smooth="yes"/>
      <point x="389" y="59"/>
      <point x="392" y="17"/>
    </contour>
  </outline>
</glyph>
<glyph name="w" format="2">
  <advance width="884"/>
  <unicode hex="0077"/>
  <anchor x="375" y="0" name="bottom"/>
  <anchor x="435" y="542" name="top"/>
  <outline>
    <contour>
      <point x="185" y="-10" type="curve" smooth="yes"/>
      <point x="258" y="-10"/>
      <point x="315" y="16"/>
      <point x="365" y="58" type="curve"/>
      <point x="396" y="16"/>
      <point x="444" y="-10"/>
      <point x="504" y="-10" type="curve" smooth="yes"/>
      <point x="565" y="-10"/>
      <point x="628" y="16"/>
      <point x="679" y="71" type="curve"/>
      <point x="679" y="47"/>
      <point x="680" y="24"/>
      <point x="685" y="0" type="curve"/>
      <point x="867" y="0" type="line"/>
      <point x="854" y="23"/>
      <point x="849" y="48"/>
      <point x="849" y="84" type="curve" smooth="yes"/>
      <point x="849" y="416" type="line" smooth="yes"/>
      <point x="849" y="452"/>
      <point x="853" y="477"/>
      <point x="863" y="500" type="curve"/>
      <point x="615" y="500" type="line"/>
      <point x="615" y="478" type="line"/>
      <point x="655" y="478"/>
      <point x="669" y="463"/>
      <point x="669" y="425" type="curve" smooth="yes"/>
      <point x="669" y="149" type="line"/>
      <point x="649" y="121"/>
      <point x="621" y="107"/>
      <point x="594" y="107" type="curve" smooth="yes"/>
      <point x="548" y="107"/>
      <point x="502" y="150"/>
      <point x="492" y="256" type="curve" smooth="yes"/>
      <point x="483" y="360"/>
      <point x="513" y="490"/>
      <point x="592" y="552" type="curve"/>
      <point x="578" y="568" type="line"/>
      <point x="378" y="479"/>
      <point x="306" y="306"/>
      <point x="323" y="171" type="curve" smooth="yes"/>
      <point x="326" y="151"/>
      <point x="330" y="132"/>
      <point x="336" y="115" type="curve"/>
      <point x="315" y="106"/>
      <point x="297" y="101"/>
      <point x="281" y="101" type="curve" smooth="yes"/>
      <point x="222" y="101"/>
      <point x="195" y="161"/>
      <point x="196" y="256" type="curve" smooth="yes"/>
      <point x="197" y="360"/>
      <point x="241" y="464"/>
      <point x="337" y="519" type="curve"/>
      <point x="328" y="537" type="line"/>
      <point x="117" y="477"/>
      <point x="20" y="322"/>
      <point x="18" y="188" type="curve" smooth="yes"/>
      <point x="15" y="48"/>
      <point x="98" y="-10"/>
    </contour>
  </outline>
</glyph>
<glyph name="x" format="2">
  <advance width="625"/>
  <unicode hex="0078"/>
  <anchor x="248" y="0" name="bottom"/>
  <anchor x="248" y="500" name="top"/>
  <outline>
    <contour>
      <point x="331" y="0" type="curve"/>
      <point x="605" y="0" type="line"/>
      <point x="605" y="19" type="line"/>
      <point x="569" y="26"/>
      <point x="556" y="41"/>
      <point x="534" y="74" type="curve" smooth="yes"/>
      <point x="405" y="266" type="line"/>
      <point x="495" y="396" type="line" smooth="yes"/>
      <point x="534" y="452"/>
      <point x="559" y="474"/>
      <point x="587" y="478" type="curve"/>
      <point x="587" y="500" type="line"/>
      <point x="431" y="500" type="line"/>
      <point x="430" y="467"/>
      <point x="413" y="425"/>
      <point x="380" y="373" type="curve" smooth="yes"/>
      <point x="357" y="337" type="line"/>
      <point x="298" y="425" type="line" smooth="yes"/>
      <point x="278" y="455"/>
      <point x="275" y="476"/>
      <point x="289" y="500" type="curve"/>
      <point x="17" y="500" type="line"/>
      <point x="17" y="480" type="line"/>
      <point x="50" y="478"/>
      <point x="64" y="458"/>
      <point x="96" y="411" type="curve" smooth="yes"/>
      <point x="193" y="267" type="line"/>
      <point x="143" y="194" type="line" smooth="yes"/>
      <point x="77" y="98"/>
      <point x="51" y="56"/>
      <point x="10" y="0" type="curve"/>
      <point x="214" y="0" type="line"/>
      <point x="214" y="21" type="line"/>
      <point x="154" y="38"/>
      <point x="165" y="81"/>
      <point x="200" y="134" type="curve" smooth="yes"/>
      <point x="241" y="195" type="line"/>
      <point x="313" y="88" type="line" smooth="yes"/>
      <point x="342" y="45"/>
      <point x="345" y="24"/>
    </contour>
  </outline>
</glyph>
<glyph name="y" format="2">
  <advance width="633"/>
  <unicode hex="0079"/>
  <anchor x="317" y="0" name="bottom"/>
  <anchor x="295" y="500" name="top"/>
  <outline>
    <contour>
      <point x="145" y="-300" type="line"/>
      <point x="211" y="-273"/>
      <point x="281" y="-250"/>
      <point x="357" y="-234" type="curve"/>
      <point x="355" y="-108"/>
      <point x="367" y="-22"/>
      <point x="425" y="110" type="curve" smooth="yes"/>
      <point x="552" y="399" type="line" smooth="yes"/>
      <point x="571" y="441"/>
      <point x="588" y="474"/>
      <point x="613" y="480" type="curve"/>
      <point x="613" y="500" type="line"/>
      <point x="465" y="500" type="line"/>
      <point x="479" y="469"/>
      <point x="479" y="438"/>
      <point x="461" y="395" type="curve" smooth="yes"/>
      <point x="376" y="194" type="line"/>
      <point x="285" y="397" type="line" smooth="yes"/>
      <point x="266" y="440"/>
      <point x="263" y="469"/>
      <point x="277" y="500" type="curve"/>
      <point x="20" y="500" type="line"/>
      <point x="20" y="480" type="line"/>
      <point x="52" y="471"/>
      <point x="71" y="435"/>
      <point x="106" y="358" type="curve" smooth="yes"/>
      <point x="267" y="0" type="line"/>
      <point x="131" y="-284" type="line"/>
    </contour>
  </outline>
</glyph>
<glyph name="z" format="2">
  <advance width="519"/>
  <unicode hex="007A"/>
  <anchor x="246" y="0" name="bottom"/>
  <anchor x="255" y="250" name="center"/>
  <anchor x="264" y="500" name="top"/>
  <outline>
    <contour>
      <point x="32" y="-10" type="line"/>
      <point x="94" y="-2"/>
      <point x="122" y="0"/>
      <point x="161" y="0" type="curve" smooth="yes"/>
      <point x="261" y="0"/>
      <point x="341" y="-6"/>
      <point x="438" y="2" type="curve"/>
      <point x="494" y="185" type="line"/>
      <point x="472" y="193" type="line"/>
      <point x="458" y="158"/>
      <point x="433" y="150"/>
      <point x="397" y="149" type="curve" smooth="yes"/>
      <point x="355" y="148"/>
      <point x="268" y="149"/>
      <point x="206" y="142" type="curve"/>
      <point x="201" y="148" type="line"/>
      <point x="259" y="239"/>
      <point x="372" y="366"/>
      <point x="494" y="490" type="curve"/>
      <point x="481" y="507" type="line"/>
      <point x="463" y="501"/>
      <point x="443" y="500"/>
      <point x="391" y="500" type="curve" smooth="yes"/>
      <point x="214" y="500" type="line" smooth="yes"/>
      <point x="138" y="500"/>
      <point x="123" y="501"/>
      <point x="100" y="510" type="curve"/>
      <point x="25" y="316" type="line"/>
      <point x="47" y="307" type="line"/>
      <point x="76" y="360"/>
      <point x="110" y="366"/>
      <point x="185" y="366" type="curve" smooth="yes"/>
      <point x="310" y="366" type="line"/>
      <point x="20" y="6" type="line"/>
    </contour>
  </outline>
</glyph>
<glyph name="braceleft" format="2">
  <advance width="587"/>
  <unicode hex="007B"/>
  <note>
braceleft
</note>
  <outline>
    <contour>
      <point x="98" y="0" type="curve"/>
      <point x="523" y="0" type="line"/>
      <point x="524" y="32"/>
      <point x="530" y="88"/>
      <point x="551" y="152" type="curve"/>
      <point x="542" y="155" type="line"/>
      <point x="489" y="45"/>
      <point x="433" y="18"/>
      <point x="361" y="18" type="curve" smooth="yes"/>
      <point x="333" y="18"/>
      <point x="312" y="29"/>
      <point x="312" y="52" type="curve" smooth="yes"/>
      <point x="312" y="101"/>
      <point x="361" y="159"/>
      <point x="361" y="235" type="curve" smooth="yes"/>
      <point x="361" y="347"/>
      <point x="273" y="398"/>
      <point x="120" y="394" type="curve"/>
      <point x="120" y="403" type="line"/>
      <point x="292" y="442"/>
      <point x="346" y="526"/>
      <point x="346" y="611" type="curve" smooth="yes"/>
      <point x="346" y="677"/>
      <point x="303" y="739"/>
      <point x="303" y="767" type="curve" smooth="yes"/>
      <point x="303" y="777"/>
      <point x="309" y="781"/>
      <point x="322" y="781" type="curve" smooth="yes"/>
      <point x="381" y="781"/>
      <point x="457" y="754"/>
      <point x="510" y="644" type="curve"/>
      <point x="519" y="647" type="line"/>
      <point x="498" y="711"/>
      <point x="492" y="767"/>
      <point x="491" y="799" type="curve"/>
      <point x="99" y="799" type="line"/>
      <point x="133" y="764"/>
      <point x="181" y="689"/>
      <point x="181" y="608" type="curve" smooth="yes"/>
      <point x="181" y="529"/>
      <point x="155" y="455"/>
      <point x="36" y="403" type="curve"/>
      <point x="36" y="387" type="line"/>
      <point x="152" y="313"/>
      <point x="180" y="228"/>
      <point x="180" y="171" type="curve" smooth="yes"/>
      <point x="180" y="97"/>
      <point x="136" y="41"/>
    </contour>
  </outline>
</glyph>
<glyph name="braceright" format="2">
  <advance width="589"/>
  <unicode hex="007D"/>
  <note>
braceright
</note>
  <outline>
    <contour>
      <point x="64" y="0" type="curve"/>
      <point x="489" y="0" type="line"/>
      <point x="451" y="41"/>
      <point x="407" y="97"/>
      <point x="407" y="171" type="curve" smooth="yes"/>
      <point x="407" y="228"/>
      <point x="435" y="313"/>
      <point x="551" y="387" type="curve"/>
      <point x="551" y="403" type="line"/>
      <point x="432" y="455"/>
      <point x="406" y="529"/>
      <point x="406" y="608" type="curve" smooth="yes"/>
      <point x="406" y="689"/>
      <point x="454" y="764"/>
      <point x="488" y="799" type="curve"/>
      <point x="96" y="799" type="line"/>
      <point x="95" y="767"/>
      <point x="89" y="711"/>
      <point x="68" y="647" type="curve"/>
      <point x="77" y="644" type="line"/>
      <point x="130" y="754"/>
      <point x="206" y="781"/>
      <point x="265" y="781" type="curve" smooth="yes"/>
      <point x="278" y="781"/>
      <point x="284" y="777"/>
      <point x="284" y="767" type="curve" smooth="yes"/>
      <point x="284" y="739"/>
      <point x="241" y="677"/>
      <point x="241" y="611" type="curve" smooth="yes"/>
      <point x="241" y="526"/>
      <point x="295" y="442"/>
      <point x="467" y="403" type="curve"/>
      <point x="467" y="394" type="line"/>
      <point x="314" y="398"/>
      <point x="226" y="347"/>
      <point x="226" y="235" type="curve" smooth="yes"/>
      <point x="226" y="159"/>
      <point x="275" y="101"/>
      <point x="275" y="52" type="curve" smooth="yes"/>
      <point x="275" y="29"/>
      <point x="254" y="18"/>
      <point x="226" y="18" type="curve" smooth="yes"/>
      <point x="154" y="18"/>
      <point x="98" y="45"/>
      <point x="45" y="155" type="curve"/>
      <point x="36" y="152" type="line"/>
      <point x="57" y="88"/>
      <point x="63" y="32"/>
    </contour>
  </outline>
</glyph>
<glyph name="asciitilde" format="2">
  <advance width="580"/>
  <unicode hex="007E"/>
  <outline>
    <contour>
      <point x="61" y="298" type="curve"/>
      <point x="84" y="298" type="line"/>
      <point x="93" y="362"/>
      <point x="134" y="369"/>
      <point x="183" y="360" type="curve" smooth="yes"/>
      <point x="253" y="347"/>
      <point x="330" y="307"/>
      <point x="397" y="314" type="curve" smooth="yes"/>
      <point x="449" y="319"/>
      <point x="493" y="364"/>
      <point x="514" y="472" type="curve"/>
      <point x="493" y="479" type="line"/>
      <point x="477" y="423"/>
      <point x="443" y="424"/>
      <point x="401" y="431" type="curve" smooth="yes"/>
      <point x="340" y="440"/>
      <point x="265" y="476"/>
      <point x="202" y="472" type="curve" smooth="yes"/>
      <point x="121" y="467"/>
      <point x="61" y="419"/>
    </contour>
  </outline>
</glyph>
<glyph name="exclamdown" format="2">
  <advance width="343"/>
  <unicode hex="00A1"/>
  <anchor x="334.805" y="831.545" name="_bottom"/>
  <outline>
    <contour>
      <point x="316" y="-83" type="curve"/>
      <point x="271" y="12"/>
      <point x="255" y="111"/>
      <point x="230" y="324" type="curve" smooth="yes"/>
      <point x="205" y="537" type="line"/>
      <point x="144" y="537" type="line"/>
      <point x="88" y="168" type="line" smooth="yes"/>
      <point x="73" y="70"/>
      <point x="60" y="34"/>
      <point x="30" y="6" type="curve"/>
      <point x="163" y="-18"/>
      <point x="251" y="-78"/>
    </contour>
    <component base="period" xOffset="59" yOffset="622"/>
  </outline>
</glyph>
<glyph name="sterling" format="2">
  <advance width="645"/>
  <unicode hex="00A3"/>
  <note>
sterling
</note>
  <outline>
    <contour>
      <point x="262" y="111" type="line"/>
      <point x="290" y="121"/>
      <point x="316" y="125"/>
      <point x="332" y="123" type="curve"/>
      <point x="582" y="374" type="line"/>
      <point x="569" y="391" type="line"/>
      <point x="555" y="387"/>
      <point x="540" y="386"/>
      <point x="524" y="386" type="curve" smooth="yes"/>
      <point x="123" y="386" type="line"/>
      <point x="149" y="326" type="line"/>
      <point x="184" y="326" type="line"/>
      <point x="184" y="311" type="line" smooth="yes"/>
      <point x="184" y="226"/>
      <point x="163" y="123"/>
      <point x="45" y="-5" type="curve"/>
      <point x="67" y="-28" type="line"/>
      <point x="93" y="-3"/>
      <point x="178" y="40"/>
      <point x="243" y="33" type="curve" smooth="yes"/>
      <point x="335" y="23"/>
      <point x="383" y="-40"/>
      <point x="466" y="-40" type="curve" smooth="yes"/>
      <point x="542" y="-40"/>
      <point x="615" y="63"/>
      <point x="641" y="117" type="curve"/>
      <point x="622" y="132" type="line"/>
      <point x="600" y="96"/>
      <point x="575" y="77"/>
      <point x="500" y="77" type="curve" smooth="yes"/>
      <point x="443" y="77"/>
      <point x="387" y="113"/>
      <point x="314" y="111" type="curve" smooth="yes"/>
      <point x="276" y="110"/>
      <point x="221" y="81"/>
      <point x="193" y="64" type="curve"/>
      <point x="186" y="77" type="line"/>
      <point x="295" y="197"/>
      <point x="334" y="257"/>
      <point x="343" y="326" type="curve"/>
      <point x="431" y="326" type="line"/>
    </contour>
    <contour>
      <point x="91" y="495" type="curve"/>
      <point x="75" y="485" type="line"/>
      <point x="112" y="411" type="line"/>
      <point x="547" y="411" type="line" smooth="yes"/>
      <point x="575" y="411"/>
      <point x="579" y="413"/>
      <point x="599" y="408" type="curve"/>
      <point x="651" y="483" type="line"/>
      <point x="637" y="494" type="line"/>
      <point x="624" y="487"/>
      <point x="612" y="481"/>
      <point x="569" y="481" type="curve" smooth="yes"/>
      <point x="335" y="481" type="line"/>
      <point x="331" y="507"/>
      <point x="327" y="532"/>
      <point x="327" y="559" type="curve" smooth="yes"/>
      <point x="327" y="632"/>
      <point x="356" y="664"/>
      <point x="393" y="664" type="curve" smooth="yes"/>
      <point x="443" y="664"/>
      <point x="508" y="606"/>
      <point x="540" y="512" type="curve"/>
      <point x="560" y="513" type="line"/>
      <point x="560" y="700" type="line"/>
      <point x="506" y="724"/>
      <point x="450" y="737"/>
      <point x="399" y="737" type="curve" smooth="yes"/>
      <point x="289" y="737"/>
      <point x="151" y="683"/>
      <point x="151" y="523" type="curve" smooth="yes"/>
      <point x="151" y="509"/>
      <point x="152" y="495"/>
      <point x="153" y="481" type="curve"/>
      <point x="129" y="481" type="line" smooth="yes"/>
      <point x="112" y="481"/>
      <point x="100" y="487"/>
    </contour>
    <contour>
      <point x="195" y="23" type="curve"/>
      <point x="92" y="-111" type="line"/>
      <point x="106" y="-123" type="line"/>
      <point x="238" y="22" type="line"/>
      <point x="227" y="27"/>
      <point x="213" y="26"/>
    </contour>
  </outline>
</glyph>
<glyph name="currency" format="2">
  <advance width="835"/>
  <unicode hex="00A4"/>
  <note>
currency
</note>
  <outline>
    <contour>
      <point x="409" y="66" type="curve" smooth="yes"/>
      <point x="447" y="66"/>
      <point x="484" y="74"/>
      <point x="517" y="88" type="curve"/>
      <point x="723" y="-57" type="line"/>
      <point x="765" y="-20" type="line"/>
      <point x="631" y="180" type="line"/>
      <point x="662" y="223"/>
      <point x="680" y="276"/>
      <point x="680" y="333" type="curve" smooth="yes"/>
      <point x="680" y="392"/>
      <point x="661" y="446"/>
      <point x="629" y="491" type="curve"/>
      <point x="765" y="694" type="line"/>
      <point x="723" y="731" type="line"/>
      <point x="512" y="582" type="line"/>
      <point x="480" y="595"/>
      <point x="445" y="602"/>
      <point x="409" y="602" type="curve" smooth="yes"/>
      <point x="377" y="602"/>
      <point x="346" y="596"/>
      <point x="317" y="586" type="curve"/>
      <point x="112" y="731" type="line"/>
      <point x="70" y="694" type="line"/>
      <point x="199" y="502" type="line"/>
      <point x="161" y="456"/>
      <point x="139" y="397"/>
      <point x="139" y="333" type="curve" smooth="yes"/>
      <point x="139" y="271"/>
      <point x="161" y="214"/>
      <point x="197" y="168" type="curve"/>
      <point x="70" y="-21" type="line"/>
      <point x="112" y="-58" type="line"/>
      <point x="312" y="84" type="line"/>
      <point x="342" y="72"/>
      <point x="375" y="66"/>
    </contour>
    <contour>
      <point x="346" y="336" type="curve" smooth="yes"/>
      <point x="346" y="472"/>
      <point x="374" y="561"/>
      <point x="408" y="561" type="curve" smooth="yes"/>
      <point x="444" y="561"/>
      <point x="471" y="472"/>
      <point x="471" y="337" type="curve" smooth="yes"/>
      <point x="471" y="202"/>
      <point x="444" y="113"/>
      <point x="408" y="113" type="curve" smooth="yes"/>
      <point x="374" y="113"/>
      <point x="346" y="202"/>
    </contour>
  </outline>
</glyph>
<glyph name="yen" format="2">
  <advance width="679"/>
  <unicode hex="00A5"/>
  <outline>
    <contour>
      <point x="136" y="287" type="line"/>
      <point x="591" y="287" type="line"/>
      <point x="601" y="379" type="line"/>
      <point x="126" y="379" type="line"/>
    </contour>
    <contour>
      <point x="162" y="130" type="line"/>
      <point x="562" y="130" type="line"/>
      <point x="569" y="222" type="line"/>
      <point x="151" y="222" type="line"/>
    </contour>
    <component base="Y"/>
  </outline>
</glyph>
<glyph name="section" format="2">
  <advance width="520"/>
  <unicode hex="00A7"/>
  <note>
section
</note>
  <outline>
    <contour>
      <point x="242" y="-144" type="curve" smooth="yes"/>
      <point x="408" y="-144"/>
      <point x="486" y="-39"/>
      <point x="486" y="78" type="curve" smooth="yes"/>
      <point x="486" y="153"/>
      <point x="449" y="196"/>
      <point x="402" y="230" type="curve"/>
      <point x="468" y="270"/>
      <point x="505" y="340"/>
      <point x="499" y="413" type="curve" smooth="yes"/>
      <point x="495" y="478"/>
      <point x="457" y="522"/>
      <point x="408" y="555" type="curve" smooth="yes"/>
      <point x="319" y="614"/>
      <point x="196" y="631"/>
      <point x="196" y="717" type="curve" smooth="yes"/>
      <point x="196" y="756"/>
      <point x="233" y="779"/>
      <point x="283" y="779" type="curve" smooth="yes"/>
      <point x="323" y="779"/>
      <point x="375" y="757"/>
      <point x="385" y="686" type="curve" smooth="yes"/>
      <point x="387" y="665"/>
      <point x="387" y="640"/>
      <point x="382" y="610" type="curve"/>
      <point x="396" y="605" type="line"/>
      <point x="476" y="769" type="line"/>
      <point x="424" y="811"/>
      <point x="355" y="832"/>
      <point x="287" y="832" type="curve" smooth="yes"/>
      <point x="169" y="832"/>
      <point x="77" y="773"/>
      <point x="77" y="660" type="curve" smooth="yes"/>
      <point x="77" y="560"/>
      <point x="135" y="518"/>
      <point x="200" y="487" type="curve"/>
      <point x="119" y="467"/>
      <point x="63" y="411"/>
      <point x="63" y="324" type="curve" smooth="yes"/>
      <point x="63" y="209"/>
      <point x="154" y="175"/>
      <point x="235" y="140" type="curve" smooth="yes"/>
      <point x="301" y="112"/>
      <point x="360" y="83"/>
      <point x="360" y="-3" type="curve" smooth="yes"/>
      <point x="360" y="-58"/>
      <point x="322" y="-87"/>
      <point x="264" y="-86" type="curve" smooth="yes"/>
      <point x="151" y="-83"/>
      <point x="83" y="35"/>
      <point x="129" y="151" type="curve"/>
      <point x="112" y="159" type="line"/>
      <point x="20" y="-68" type="line"/>
      <point x="84" y="-119"/>
      <point x="165" y="-144"/>
    </contour>
    <contour>
      <point x="182" y="380" type="curve" smooth="yes"/>
      <point x="182" y="420"/>
      <point x="220" y="447"/>
      <point x="269" y="442" type="curve" smooth="yes"/>
      <point x="337" y="436"/>
      <point x="378" y="380"/>
      <point x="378" y="329" type="curve" smooth="yes"/>
      <point x="378" y="302"/>
      <point x="365" y="276"/>
      <point x="339" y="261" type="curve"/>
      <point x="262" y="296"/>
      <point x="182" y="321"/>
    </contour>
  </outline>
</glyph>
<glyph name="dieresis" format="2">
  <advance width="405"/>
  <unicode hex="00A8"/>
  <outline>
    <contour>
      <point x="119" y="536" type="curve"/>
      <point x="143" y="576"/>
      <point x="174" y="608"/>
      <point x="198" y="620" type="curve"/>
      <point x="238" y="596"/>
      <point x="273" y="568"/>
      <point x="281" y="536" type="curve"/>
      <point x="305" y="580"/>
      <point x="340" y="617"/>
      <point x="370" y="624" type="curve"/>
      <point x="326" y="648"/>
      <point x="288" y="682"/>
      <point x="281" y="712" type="curve"/>
      <point x="257" y="672"/>
      <point x="226" y="640"/>
      <point x="202" y="628" type="curve"/>
      <point x="162" y="652"/>
      <point x="127" y="680"/>
      <point x="119" y="712" type="curve"/>
      <point x="95" y="668"/>
      <point x="60" y="631"/>
      <point x="30" y="624" type="curve"/>
      <point x="74" y="600"/>
      <point x="112" y="566"/>
    </contour>
  </outline>
</glyph>
<glyph name="guillemetleft" format="2">
  <advance width="686"/>
  <unicode hex="00AB"/>
  <note>
guillemotleft
</note>
  <outline>
    <contour>
      <point x="399" y="11" type="curve"/>
      <point x="400" y="29" type="line"/>
      <point x="368" y="37"/>
      <point x="347" y="62"/>
      <point x="326" y="85" type="curve"/>
      <point x="281" y="142"/>
      <point x="229" y="258"/>
      <point x="190" y="285" type="curve"/>
      <point x="294" y="412" type="line" smooth="yes"/>
      <point x="322" y="446"/>
      <point x="354" y="459"/>
      <point x="400" y="459" type="curve" smooth="yes"/>
      <point x="418" y="459"/>
      <point x="425" y="457"/>
      <point x="425" y="452" type="curve" smooth="yes"/>
      <point x="425" y="441"/>
      <point x="397" y="404"/>
      <point x="372" y="373" type="curve" smooth="yes"/>
      <point x="321" y="310" type="line" smooth="yes"/>
      <point x="309" y="296"/>
      <point x="296" y="281"/>
      <point x="285" y="273" type="curve"/>
      <point x="285" y="259" type="line"/>
      <point x="316" y="235"/>
      <point x="372" y="129"/>
      <point x="418" y="73" type="curve" smooth="yes"/>
      <point x="468" y="14"/>
      <point x="528" y="-16"/>
      <point x="643" y="10" type="curve"/>
      <point x="644" y="28" type="line"/>
      <point x="610" y="35"/>
      <point x="590" y="61"/>
      <point x="571" y="84" type="curve" smooth="yes"/>
      <point x="526" y="141"/>
      <point x="473" y="258"/>
      <point x="435" y="285" type="curve"/>
      <point x="542" y="422" type="line" smooth="yes"/>
      <point x="576" y="466"/>
      <point x="591" y="479"/>
      <point x="633" y="481" type="curve"/>
      <point x="633" y="500" type="line"/>
      <point x="175" y="500" type="line"/>
      <point x="165" y="481" type="line"/>
      <point x="187" y="458"/>
      <point x="178" y="442"/>
      <point x="153" y="411" type="curve" smooth="yes"/>
      <point x="79" y="321" type="line" smooth="yes"/>
      <point x="67" y="307"/>
      <point x="55" y="292"/>
      <point x="42" y="284" type="curve"/>
      <point x="42" y="270" type="line"/>
      <point x="75" y="246"/>
      <point x="116" y="135"/>
      <point x="178" y="61" type="curve" smooth="yes"/>
      <point x="207" y="27"/>
      <point x="251" y="-15"/>
    </contour>
  </outline>
</glyph>
<glyph name="registered" format="2">
  <advance width="842"/>
  <unicode hex="00AE"/>
  <note>
registered
</note>
  <anchor x="462" y="65" name="bottom"/>
  <anchor x="404" y="361" name="center"/>
  <anchor x="767" y="10" name="ogonek"/>
  <anchor x="462" y="696" name="top"/>
  <anchor x="-31" y="722" name="topleft"/>
  <anchor x="838" y="722" name="topright"/>
  <outline>
    <contour>
      <point x="429" y="-9" type="curve" smooth="yes"/>
      <point x="703" y="-9"/>
      <point x="812" y="185"/>
      <point x="812" y="391" type="curve" smooth="yes"/>
      <point x="812" y="582"/>
      <point x="704" y="785"/>
      <point x="432" y="785" type="curve" smooth="yes"/>
      <point x="157" y="785"/>
      <point x="30" y="578"/>
      <point x="30" y="387" type="curve" smooth="yes"/>
      <point x="30" y="181"/>
      <point x="144" y="-9"/>
    </contour>
    <contour>
      <point x="461" y="25" type="curve" smooth="yes"/>
      <point x="218" y="25"/>
      <point x="106" y="202"/>
      <point x="88" y="390" type="curve" smooth="yes"/>
      <point x="74" y="565"/>
      <point x="165" y="754"/>
      <point x="400" y="754" type="curve" smooth="yes"/>
      <point x="630" y="754"/>
      <point x="738" y="565"/>
      <point x="753" y="390" type="curve" smooth="yes"/>
      <point x="770" y="202"/>
      <point x="694" y="25"/>
    </contour>
    <contour>
      <point x="743" y="43" type="curve"/>
      <point x="749" y="55" type="line"/>
      <point x="671" y="77"/>
      <point x="647" y="279"/>
      <point x="572" y="342" type="curve" smooth="yes"/>
      <point x="544" y="365"/>
      <point x="503" y="379"/>
      <point x="441" y="381" type="curve"/>
      <point x="441" y="379" type="line"/>
      <point x="578" y="370"/>
      <point x="642" y="447"/>
      <point x="642" y="522" type="curve" smooth="yes"/>
      <point x="642" y="589"/>
      <point x="590" y="655"/>
      <point x="498" y="655" type="curve" smooth="yes"/>
      <point x="455" y="655"/>
      <point x="407" y="641"/>
      <point x="363" y="615" type="curve"/>
      <point x="363" y="648" type="line"/>
      <point x="164" y="648" type="line"/>
      <point x="164" y="627" type="line"/>
      <point x="178" y="627" type="line" smooth="yes"/>
      <point x="207" y="627"/>
      <point x="223" y="608"/>
      <point x="223" y="571" type="curve" smooth="yes"/>
      <point x="223" y="217" type="line" smooth="yes"/>
      <point x="223" y="186"/>
      <point x="218" y="165"/>
      <point x="206" y="144" type="curve"/>
      <point x="380" y="144" type="line"/>
      <point x="368" y="165"/>
      <point x="363" y="186"/>
      <point x="363" y="217" type="curve" smooth="yes"/>
      <point x="363" y="362" type="line"/>
      <point x="424" y="350"/>
      <point x="441" y="331"/>
      <point x="504" y="209" type="curve" smooth="yes"/>
      <point x="557" y="107"/>
      <point x="611" y="73"/>
    </contour>
    <contour>
      <point x="433" y="407" type="curve" smooth="yes"/>
      <point x="411" y="403"/>
      <point x="385" y="403"/>
      <point x="363" y="407" type="curve"/>
      <point x="363" y="570" type="line"/>
      <point x="386" y="582"/>
      <point x="407" y="587"/>
      <point x="424" y="587" type="curve" smooth="yes"/>
      <point x="476" y="587"/>
      <point x="502" y="542"/>
      <point x="502" y="498" type="curve" smooth="yes"/>
      <point x="502" y="445"/>
      <point x="471" y="417"/>
    </contour>
  </outline>
</glyph>
<glyph name="macron" format="2">
  <advance width="448"/>
  <unicode hex="00AF"/>
  <outline>
    <contour>
      <point x="18" y="655" type="curve"/>
      <point x="33" y="580" type="line"/>
      <point x="403" y="580" type="line"/>
      <point x="418" y="655" type="line"/>
      <point x="340" y="642"/>
      <point x="282" y="640"/>
      <point x="218" y="640" type="curve" smooth="yes"/>
      <point x="146" y="640"/>
      <point x="96" y="642"/>
    </contour>
  </outline>
</glyph>
<glyph name="degree" format="2">
  <advance width="364"/>
  <unicode hex="00B0"/>
  <outline>
    <contour>
      <point x="182" y="491" type="curve" smooth="yes"/>
      <point x="226" y="491"/>
      <point x="270" y="524"/>
      <point x="270" y="585" type="curve" smooth="yes"/>
      <point x="270" y="633"/>
      <point x="238" y="682"/>
      <point x="182" y="682" type="curve" smooth="yes"/>
      <point x="125" y="682"/>
      <point x="94" y="635"/>
      <point x="94" y="587" type="curve" smooth="yes"/>
      <point x="94" y="539"/>
      <point x="125" y="491"/>
    </contour>
    <contour>
      <point x="183" y="557" type="curve" smooth="yes"/>
      <point x="158" y="557"/>
      <point x="141" y="570"/>
      <point x="141" y="593" type="curve" smooth="yes"/>
      <point x="141" y="612"/>
      <point x="157" y="627"/>
      <point x="182" y="627" type="curve" smooth="yes"/>
      <point x="208" y="627"/>
      <point x="224" y="613"/>
      <point x="224" y="592" type="curve" smooth="yes"/>
      <point x="224" y="570"/>
      <point x="209" y="557"/>
    </contour>
  </outline>
</glyph>
<glyph name="plusminus" format="2">
  <advance width="610"/>
  <unicode hex="00B1"/>
  <outline>
    <contour>
      <point x="24" y="0" type="line"/>
      <point x="575" y="0" type="line"/>
      <point x="575" y="126" type="line"/>
      <point x="299" y="117" type="line"/>
      <point x="24" y="126" type="line"/>
    </contour>
    <contour>
      <point x="231" y="199" type="line"/>
      <point x="382" y="199" type="line"/>
      <point x="352" y="421" type="line"/>
      <point x="582" y="390" type="line"/>
      <point x="582" y="544" type="line"/>
      <point x="352" y="505" type="line"/>
      <point x="383" y="722" type="line"/>
      <point x="231" y="722" type="line"/>
      <point x="266" y="503" type="line"/>
      <point x="32" y="529" type="line"/>
      <point x="32" y="390" type="line"/>
      <point x="266" y="421" type="line"/>
    </contour>
  </outline>
</glyph>
<glyph name="micro" format="2">
  <advance width="600"/>
  <unicode hex="00B5"/>
  <outline>
    <contour>
      <point x="98" y="-150" type="curve"/>
      <point x="251" y="-150" type="line"/>
      <point x="251" y="-5" type="line"/>
      <point x="257" y="1" type="line"/>
      <point x="269" y="-3"/>
      <point x="281" y="-6"/>
      <point x="294" y="-6" type="curve" smooth="yes"/>
      <point x="332" y="-6"/>
      <point x="368" y="17"/>
      <point x="405" y="69" type="curve"/>
      <point x="420" y="35"/>
      <point x="451" y="0"/>
      <point x="529" y="0" type="curve" smooth="yes"/>
      <point x="605" y="0" type="line"/>
      <point x="608" y="20" type="line"/>
      <point x="576" y="35"/>
      <point x="573" y="50"/>
      <point x="573" y="104" type="curve" smooth="yes"/>
      <point x="573" y="416" type="line" smooth="yes"/>
      <point x="573" y="452"/>
      <point x="578" y="476"/>
      <point x="589" y="500" type="curve"/>
      <point x="335" y="500" type="line"/>
      <point x="335" y="478" type="line"/>
      <point x="347" y="478" type="line" smooth="yes"/>
      <point x="375" y="478"/>
      <point x="389" y="459"/>
      <point x="389" y="421" type="curve" smooth="yes"/>
      <point x="389" y="122" type="line"/>
      <point x="367" y="103"/>
      <point x="339" y="90"/>
      <point x="315" y="90" type="curve" smooth="yes"/>
      <point x="285" y="90"/>
      <point x="261" y="110"/>
      <point x="261" y="164" type="curve" smooth="yes"/>
      <point x="261" y="416" type="line" smooth="yes"/>
      <point x="261" y="452"/>
      <point x="265" y="476"/>
      <point x="275" y="500" type="curve"/>
      <point x="20" y="500" type="line"/>
      <point x="20" y="476" type="line"/>
      <point x="33" y="476" type="line" smooth="yes"/>
      <point x="62" y="476"/>
      <point x="77" y="454"/>
      <point x="77" y="412" type="curve" smooth="yes"/>
      <point x="77" y="43" type="line" smooth="yes"/>
      <point x="77" y="-56"/>
      <point x="85" y="-107"/>
    </contour>
  </outline>
</glyph>
<glyph name="paragraph" format="2">
  <advance width="898"/>
  <unicode hex="00B6"/>
  <outline>
    <contour>
      <point x="244" y="-380" type="curve"/>
      <point x="256" y="-402" type="line"/>
      <point x="478" y="-283"/>
      <point x="618" y="-150"/>
      <point x="618" y="106" type="curve" smooth="yes"/>
      <point x="618" y="634" type="line" smooth="yes"/>
      <point x="618" y="676"/>
      <point x="636" y="698"/>
      <point x="670" y="698" type="curve" smooth="yes"/>
      <point x="686" y="698" type="line"/>
      <point x="686" y="722" type="line"/>
      <point x="428" y="722" type="line"/>
      <point x="428" y="682" type="line"/>
      <point x="389" y="714"/>
      <point x="342" y="729"/>
      <point x="296" y="729" type="curve" smooth="yes"/>
      <point x="160" y="729"/>
      <point x="30" y="597"/>
      <point x="30" y="390" type="curve" smooth="yes"/>
      <point x="30" y="213"/>
      <point x="109" y="34"/>
      <point x="302" y="34" type="curve" smooth="yes"/>
      <point x="340" y="34"/>
      <point x="382" y="40"/>
      <point x="428" y="55" type="curve"/>
      <point x="428" y="39" type="line" smooth="yes"/>
      <point x="428" y="-112"/>
      <point x="404" y="-257"/>
    </contour>
    <contour>
      <point x="386" y="123" type="curve" smooth="yes"/>
      <point x="298" y="123"/>
      <point x="258" y="248"/>
      <point x="258" y="374" type="curve" smooth="yes"/>
      <point x="258" y="505"/>
      <point x="300" y="636"/>
      <point x="374" y="636" type="curve" smooth="yes"/>
      <point x="401" y="636"/>
      <point x="423" y="623"/>
      <point x="428" y="610" type="curve"/>
      <point x="428" y="176" type="line" smooth="yes"/>
      <point x="428" y="138"/>
      <point x="407" y="123"/>
    </contour>
    <contour>
      <point x="412" y="-369" type="curve"/>
      <point x="423" y="-390" type="line"/>
      <point x="770" y="-209"/>
      <point x="790" y="-55"/>
      <point x="790" y="137" type="curve" smooth="yes"/>
      <point x="790" y="556" type="line" smooth="yes"/>
      <point x="790" y="598"/>
      <point x="808" y="620"/>
      <point x="842" y="620" type="curve" smooth="yes"/>
      <point x="858" y="620" type="line"/>
      <point x="858" y="644" type="line"/>
      <point x="672" y="644" type="line"/>
      <point x="676" y="124" type="line" smooth="yes"/>
      <point x="678" y="-96"/>
      <point x="635" y="-244"/>
    </contour>
  </outline>
</glyph>
<glyph name="periodcentered" format="2">
  <advance width="459"/>
  <unicode hex="00B7"/>
  <outline>
    <contour>
      <point x="229" y="145" type="curve"/>
      <point x="237" y="174"/>
      <point x="251" y="204"/>
      <point x="271" y="228" type="curve"/>
      <point x="283" y="225"/>
      <point x="294" y="220"/>
      <point x="304" y="212" type="curve"/>
      <point x="299" y="225"/>
      <point x="295" y="238"/>
      <point x="292" y="251" type="curve"/>
      <point x="312" y="268"/>
      <point x="334" y="279"/>
      <point x="359" y="282" type="curve"/>
      <point x="334" y="293"/>
      <point x="313" y="307"/>
      <point x="294" y="324" type="curve"/>
      <point x="297" y="335"/>
      <point x="301" y="347"/>
      <point x="306" y="359" type="curve"/>
      <point x="295" y="353"/>
      <point x="284" y="348"/>
      <point x="273" y="344" type="curve"/>
      <point x="255" y="364"/>
      <point x="241" y="388"/>
      <point x="229" y="416" type="curve"/>
      <point x="222" y="389"/>
      <point x="210" y="364"/>
      <point x="193" y="343" type="curve"/>
      <point x="181" y="346"/>
      <point x="169" y="351"/>
      <point x="157" y="357" type="curve"/>
      <point x="163" y="346"/>
      <point x="168" y="334"/>
      <point x="172" y="322" type="curve"/>
      <point x="152" y="305"/>
      <point x="128" y="292"/>
      <point x="100" y="282" type="curve"/>
      <point x="126" y="276"/>
      <point x="151" y="263"/>
      <point x="171" y="246" type="curve"/>
      <point x="167" y="232"/>
      <point x="161" y="220"/>
      <point x="152" y="208" type="curve"/>
      <point x="164" y="215"/>
      <point x="178" y="221"/>
      <point x="192" y="225" type="curve"/>
      <point x="212" y="202"/>
      <point x="225" y="174"/>
    </contour>
    <contour>
      <point x="202" y="283" type="curve"/>
      <point x="219" y="291"/>
      <point x="228" y="299"/>
      <point x="232" y="313" type="curve"/>
      <point x="236" y="299"/>
      <point x="246" y="291"/>
      <point x="261" y="283" type="curve"/>
      <point x="246" y="282"/>
      <point x="236" y="269"/>
      <point x="232" y="255" type="curve"/>
      <point x="228" y="269"/>
      <point x="219" y="281"/>
    </contour>
  </outline>
</glyph>
<glyph name="guillemetright" format="2">
  <advance width="689"/>
  <unicode hex="00BB"/>
  <note>
guillemotleft
</note>
  <outline>
    <contour>
      <point x="42" y="25" type="curve"/>
      <point x="43" y="8" type="line"/>
      <point x="159" y="-19"/>
      <point x="219" y="11"/>
      <point x="269" y="71" type="curve" smooth="yes"/>
      <point x="315" y="127"/>
      <point x="371" y="233"/>
      <point x="403" y="258" type="curve"/>
      <point x="403" y="272" type="line"/>
      <point x="392" y="280"/>
      <point x="379" y="295"/>
      <point x="367" y="309" type="curve" smooth="yes"/>
      <point x="315" y="372" type="line" smooth="yes"/>
      <point x="290" y="403"/>
      <point x="268" y="442"/>
      <point x="269" y="459" type="curve"/>
      <point x="273" y="459"/>
      <point x="279" y="459"/>
      <point x="288" y="458" type="curve" smooth="yes"/>
      <point x="325" y="456"/>
      <point x="365" y="447"/>
      <point x="393" y="412" type="curve" smooth="yes"/>
      <point x="498" y="284" type="line"/>
      <point x="459" y="257"/>
      <point x="408" y="139"/>
      <point x="361" y="83" type="curve" smooth="yes"/>
      <point x="342" y="58"/>
      <point x="320" y="34"/>
      <point x="288" y="26" type="curve"/>
      <point x="289" y="9" type="line"/>
      <point x="437" y="-18"/>
      <point x="481" y="24"/>
      <point x="510" y="58" type="curve" smooth="yes"/>
      <point x="573" y="133"/>
      <point x="614" y="245"/>
      <point x="647" y="269" type="curve"/>
      <point x="647" y="283" type="line"/>
      <point x="634" y="291"/>
      <point x="622" y="306"/>
      <point x="610" y="320" type="curve" smooth="yes"/>
      <point x="535" y="411" type="line" smooth="yes"/>
      <point x="510" y="442"/>
      <point x="501" y="458"/>
      <point x="523" y="481" type="curve"/>
      <point x="513" y="500" type="line"/>
      <point x="53" y="500" type="line"/>
      <point x="53" y="481" type="line"/>
      <point x="95" y="479"/>
      <point x="110" y="466"/>
      <point x="144" y="422" type="curve" smooth="yes"/>
      <point x="252" y="284" type="line"/>
      <point x="214" y="257"/>
      <point x="162" y="139"/>
      <point x="116" y="82" type="curve" smooth="yes"/>
      <point x="97" y="57"/>
      <point x="76" y="33"/>
    </contour>
  </outline>
</glyph>
<glyph name="AE" format="2">
  <advance width="1021"/>
  <unicode hex="00C6"/>
  <anchor x="504" y="0" name="bottom"/>
  <anchor x="504" y="722" name="top"/>
  <outline>
    <contour>
      <point x="10" y="-60" type="curve"/>
      <point x="26" y="-78" type="line"/>
      <point x="168" y="25"/>
      <point x="306" y="129"/>
      <point x="412" y="269" type="curve"/>
      <point x="412" y="84" type="line" smooth="yes"/>
      <point x="412" y="48"/>
      <point x="406" y="24"/>
      <point x="392" y="0" type="curve"/>
      <point x="923" y="0" type="line"/>
      <point x="938" y="52"/>
      <point x="959" y="115"/>
      <point x="988" y="262" type="curve"/>
      <point x="960" y="269" type="line"/>
      <point x="911" y="128"/>
      <point x="783" y="92"/>
      <point x="612" y="90" type="curve"/>
      <point x="612" y="411" type="line"/>
      <point x="739" y="410" type="line" smooth="yes"/>
      <point x="818" y="409"/>
      <point x="848" y="406"/>
      <point x="863" y="364" type="curve"/>
      <point x="880" y="368" type="line"/>
      <point x="879" y="529" type="line"/>
      <point x="863" y="531" type="line"/>
      <point x="848" y="489"/>
      <point x="818" y="486"/>
      <point x="739" y="485" type="curve" smooth="yes"/>
      <point x="612" y="484" type="line"/>
      <point x="612" y="652" type="line"/>
      <point x="686" y="652" type="line" smooth="yes"/>
      <point x="848" y="652"/>
      <point x="901" y="601"/>
      <point x="948" y="518" type="curve"/>
      <point x="970" y="527" type="line"/>
      <point x="926" y="722" type="line"/>
      <point x="310" y="722" type="line"/>
      <point x="310" y="700" type="line"/>
      <point x="334" y="700" type="line" smooth="yes"/>
      <point x="385" y="700"/>
      <point x="412" y="681"/>
      <point x="412" y="643" type="curve" smooth="yes"/>
      <point x="412" y="530" type="line"/>
      <point x="266" y="512"/>
      <point x="190" y="439"/>
      <point x="137" y="318" type="curve" smooth="yes"/>
      <point x="83" y="193"/>
      <point x="58" y="8"/>
    </contour>
    <contour>
      <point x="261" y="210" type="curve"/>
      <point x="272" y="396"/>
      <point x="321" y="478"/>
      <point x="411" y="476" type="curve"/>
      <point x="410" y="460" type="line" smooth="yes"/>
      <point x="397" y="330"/>
      <point x="350" y="274"/>
    </contour>
  </outline>
</glyph>
<glyph name="multiply" format="2">
  <advance width="702"/>
  <unicode hex="00D7"/>
  <note>
multiply
</note>
  <outline>
    <contour>
      <point x="327" y="-7" type="curve"/>
      <point x="257" y="65"/>
      <point x="296" y="135"/>
      <point x="353" y="201" type="curve"/>
      <point x="406" y="133"/>
      <point x="444" y="74"/>
      <point x="386" y="-20" type="curve"/>
      <point x="514" y="6"/>
      <point x="609" y="-26"/>
      <point x="629" y="-10" type="curve"/>
      <point x="641" y="111"/>
      <point x="615" y="137"/>
      <point x="644" y="257" type="curve"/>
      <point x="554" y="170"/>
      <point x="501" y="204"/>
      <point x="420" y="267" type="curve"/>
      <point x="484" y="322"/>
      <point x="543" y="359"/>
      <point x="641" y="301" type="curve"/>
      <point x="610" y="421"/>
      <point x="653" y="469"/>
      <point x="621" y="563" type="curve"/>
      <point x="561" y="529"/>
      <point x="491" y="577"/>
      <point x="397" y="532" type="curve"/>
      <point x="432" y="452"/>
      <point x="404" y="392"/>
      <point x="357" y="334" type="curve"/>
      <point x="303" y="411"/>
      <point x="268" y="462"/>
      <point x="309" y="561" type="curve"/>
      <point x="233" y="517"/>
      <point x="175" y="590"/>
      <point x="63" y="536" type="curve"/>
      <point x="84" y="493"/>
      <point x="53" y="371"/>
      <point x="90" y="308" type="curve"/>
      <point x="172" y="356"/>
      <point x="231" y="320"/>
      <point x="288" y="268" type="curve"/>
      <point x="225" y="219"/>
      <point x="168" y="180"/>
      <point x="82" y="221" type="curve"/>
      <point x="40" y="94"/>
      <point x="107" y="38"/>
      <point x="54" y="-23" type="curve"/>
      <point x="178" y="8"/>
      <point x="175" y="-28"/>
    </contour>
  </outline>
</glyph>
<glyph name="Thorn" format="2">
  <advance width="679"/>
  <unicode hex="00DE"/>
  <anchor x="442" y="0" name="bottom"/>
  <anchor x="696" y="0" name="bottom_1"/>
  <anchor x="1399" y="0" name="bottom_2"/>
  <anchor x="1048" y="0" name="caret_1"/>
  <anchor x="442" y="722" name="top"/>
  <anchor x="696" y="722" name="top_1"/>
  <anchor x="1399" y="722" name="top_2"/>
  <outline>
    <contour>
      <point x="145" y="147" type="line"/>
      <point x="307" y="90" type="line"/>
      <point x="307" y="104" type="line"/>
      <point x="349" y="96"/>
      <point x="390" y="97"/>
      <point x="428" y="107" type="curve" smooth="yes"/>
      <point x="570" y="143"/>
      <point x="649" y="302"/>
      <point x="649" y="445" type="curve" smooth="yes"/>
      <point x="649" y="571"/>
      <point x="587" y="684"/>
      <point x="452" y="684" type="curve" smooth="yes"/>
      <point x="401" y="684"/>
      <point x="366" y="678"/>
      <point x="307" y="641" type="curve"/>
      <point x="307" y="676" type="line"/>
      <point x="145" y="676" type="line"/>
    </contour>
    <contour>
      <point x="307" y="204" type="curve" smooth="yes"/>
      <point x="307" y="576" type="line"/>
      <point x="321" y="594"/>
      <point x="345" y="607"/>
      <point x="375" y="607" type="curve" smooth="yes"/>
      <point x="430" y="607"/>
      <point x="453" y="527"/>
      <point x="453" y="434" type="curve" smooth="yes"/>
      <point x="453" y="306"/>
      <point x="410" y="154"/>
      <point x="352" y="154" type="curve" smooth="yes"/>
      <point x="324" y="154"/>
      <point x="307" y="174"/>
    </contour>
    <component base="I" xOffset="30"/>
  </outline>
</glyph>
<glyph name="germandbls" format="2">
  <advance width="756"/>
  <unicode hex="00DF"/>
  <anchor x="251" y="0" name="bottom"/>
  <anchor x="251" y="500" name="top"/>
  <outline>
    <contour>
      <point x="40" y="-174" type="curve"/>
      <point x="54" y="-184" type="line"/>
      <point x="122" y="-100"/>
      <point x="182" y="-48"/>
      <point x="278" y="0" type="curve"/>
      <point x="278" y="627" type="line" smooth="yes"/>
      <point x="278" y="703"/>
      <point x="303" y="736"/>
      <point x="351" y="736" type="curve" smooth="yes"/>
      <point x="416" y="736"/>
      <point x="442" y="654"/>
      <point x="442" y="572" type="curve" smooth="yes"/>
      <point x="442" y="482"/>
      <point x="397" y="423"/>
      <point x="353" y="382" type="curve"/>
      <point x="368" y="185"/>
      <point x="600" y="221"/>
      <point x="600" y="107" type="curve" smooth="yes"/>
      <point x="600" y="65"/>
      <point x="563" y="45"/>
      <point x="525" y="45" type="curve" smooth="yes"/>
      <point x="473" y="45"/>
      <point x="425" y="116"/>
      <point x="415" y="205" type="curve"/>
      <point x="390" y="205" type="line"/>
      <point x="385" y="133"/>
      <point x="359" y="96"/>
      <point x="316" y="69" type="curve"/>
      <point x="363" y="13"/>
      <point x="455" y="-18"/>
      <point x="527" y="-18" type="curve" smooth="yes"/>
      <point x="644" y="-18"/>
      <point x="736" y="53"/>
      <point x="736" y="165" type="curve" smooth="yes"/>
      <point x="736" y="346"/>
      <point x="469" y="300"/>
      <point x="462" y="407" type="curve" smooth="yes"/>
      <point x="457" y="482"/>
      <point x="600" y="471"/>
      <point x="603" y="489" type="curve" smooth="yes"/>
      <point x="630" y="650"/>
      <point x="499" y="806"/>
      <point x="338" y="804" type="curve" smooth="yes"/>
      <point x="170" y="802"/>
      <point x="103" y="691"/>
      <point x="96" y="542" type="curve" smooth="yes"/>
      <point x="94" y="500" type="line"/>
      <point x="42" y="442" type="line"/>
      <point x="48" y="428" type="line"/>
      <point x="94" y="428" type="line"/>
      <point x="94" y="52" type="line" smooth="yes"/>
      <point x="94" y="-41"/>
      <point x="78" y="-108"/>
    </contour>
  </outline>
</glyph>
<glyph name="ae" format="2">
  <advance width="825"/>
  <unicode hex="00E6"/>
  <anchor x="409" y="0" name="bottom"/>
  <anchor x="409" y="500" name="top"/>
  <outline>
    <contour>
      <point x="197" y="-12" type="curve" smooth="yes"/>
      <point x="282" y="-12"/>
      <point x="352" y="40"/>
      <point x="372" y="115" type="curve"/>
      <point x="407" y="44"/>
      <point x="470" y="-12"/>
      <point x="561" y="-12" type="curve" smooth="yes"/>
      <point x="673" y="-12"/>
      <point x="768" y="58"/>
      <point x="805" y="168" type="curve"/>
      <point x="789" y="176" type="line"/>
      <point x="770" y="142"/>
      <point x="721" y="120"/>
      <point x="665" y="120" type="curve" smooth="yes"/>
      <point x="575" y="120"/>
      <point x="513" y="182"/>
      <point x="500" y="282" type="curve"/>
      <point x="759" y="282" type="line"/>
      <point x="769" y="300" type="line"/>
      <point x="785" y="402"/>
      <point x="704" y="506"/>
      <point x="575" y="506" type="curve" smooth="yes"/>
      <point x="500" y="506"/>
      <point x="452" y="479"/>
      <point x="423" y="441" type="curve"/>
      <point x="415" y="460" type="line" smooth="yes"/>
      <point x="407" y="477"/>
      <point x="405" y="488"/>
      <point x="408" y="500" type="curve"/>
      <point x="69" y="500" type="line"/>
      <point x="69" y="462" type="line"/>
      <point x="110" y="462" type="line" smooth="yes"/>
      <point x="199" y="462"/>
      <point x="231" y="423"/>
      <point x="259" y="362" type="curve" smooth="yes"/>
      <point x="260" y="359" type="line"/>
      <point x="121" y="352"/>
      <point x="25" y="269"/>
      <point x="25" y="156" type="curve" smooth="yes"/>
      <point x="25" y="58"/>
      <point x="96" y="-12"/>
    </contour>
    <contour>
      <point x="189" y="212" type="curve" smooth="yes"/>
      <point x="189" y="269"/>
      <point x="222" y="311"/>
      <point x="276" y="324" type="curve"/>
      <point x="343" y="174" type="line"/>
      <point x="328" y="143"/>
      <point x="299" y="124"/>
      <point x="265" y="124" type="curve" smooth="yes"/>
      <point x="219" y="124"/>
      <point x="189" y="158"/>
    </contour>
    <contour>
      <point x="601" y="334" type="curve"/>
      <point x="497" y="334" type="line"/>
      <point x="499" y="401"/>
      <point x="522" y="447"/>
      <point x="552" y="447" type="curve" smooth="yes"/>
      <point x="584" y="447"/>
      <point x="605" y="385"/>
    </contour>
  </outline>
</glyph>
<glyph name="eth" format="2">
  <advance width="574"/>
  <unicode hex="00F0"/>
  <outline>
    <contour>
      <point x="278" y="-12" type="curve" smooth="yes"/>
      <point x="447" y="3"/>
      <point x="545" y="137"/>
      <point x="542" y="293" type="curve" smooth="yes"/>
      <point x="539" y="465"/>
      <point x="415" y="664"/>
      <point x="130" y="758" type="curve"/>
      <point x="121" y="739" type="line"/>
      <point x="284" y="625"/>
      <point x="335" y="446"/>
      <point x="337" y="298" type="curve" smooth="yes"/>
      <point x="338" y="228"/>
      <point x="322" y="51"/>
      <point x="266" y="47" type="curve" smooth="yes"/>
      <point x="234" y="44"/>
      <point x="203" y="108"/>
      <point x="201" y="195" type="curve" smooth="yes"/>
      <point x="199" y="323"/>
      <point x="243" y="359"/>
      <point x="285" y="362" type="curve" smooth="yes"/>
      <point x="315" y="365"/>
      <point x="345" y="350"/>
      <point x="353" y="341" type="curve"/>
      <point x="406" y="346" type="line"/>
      <point x="348" y="412"/>
      <point x="282" y="424"/>
      <point x="213" y="496" type="curve"/>
      <point x="69" y="469"/>
      <point x="9" y="364"/>
      <point x="11" y="256" type="curve" smooth="yes"/>
      <point x="13" y="116"/>
      <point x="117" y="-26"/>
    </contour>
    <component base="hyphen" xScale="0.9078" xyScale="0.6596" yScale="-0.6182" yxScale="0.4491" xOffset="-27" yOffset="673"/>
  </outline>
</glyph>
<glyph name="divide" format="2">
  <advance width="614"/>
  <unicode hex="00F7"/>
  <outline>
    <contour>
      <point x="265" y="424" type="line"/>
      <point x="352" y="424" type="line"/>
      <point x="383" y="556" type="line"/>
      <point x="231" y="556" type="line"/>
    </contour>
    <contour>
      <point x="266" y="229" type="line"/>
      <point x="352" y="229" type="line"/>
      <point x="582" y="211" type="line"/>
      <point x="582" y="356" type="line"/>
      <point x="352" y="328" type="line"/>
      <point x="266" y="326" type="line"/>
      <point x="32" y="343" type="line"/>
      <point x="32" y="211" type="line"/>
    </contour>
    <contour>
      <point x="353" y="131" type="line"/>
      <point x="265" y="131" type="line"/>
      <point x="231" y="-1" type="line"/>
      <point x="382" y="-1" type="line"/>
    </contour>
  </outline>
</glyph>
<glyph name="thorn" format="2">
  <advance width="682"/>
  <unicode hex="00FE"/>
  <anchor x="344" y="0" name="bottom"/>
  <anchor x="344" y="500" name="top"/>
  <outline>
    <contour>
      <point x="78" y="648" type="line"/>
      <point x="78" y="636" type="line"/>
      <point x="96" y="618"/>
      <point x="104" y="591"/>
      <point x="104" y="500" type="curve" smooth="yes"/>
      <point x="104" y="-121" type="line" smooth="yes"/>
      <point x="104" y="-215"/>
      <point x="88" y="-247"/>
      <point x="50" y="-313" type="curve"/>
      <point x="64" y="-323" type="line"/>
      <point x="292" y="-139" type="line"/>
      <point x="289" y="-106"/>
      <point x="288" y="-73"/>
      <point x="288" y="-41" type="curve" smooth="yes"/>
      <point x="288" y="18" type="line"/>
      <point x="327" y="-3"/>
      <point x="368" y="-12"/>
      <point x="409" y="-12" type="curve" smooth="yes"/>
      <point x="537" y="-12"/>
      <point x="657" y="83"/>
      <point x="657" y="239" type="curve" smooth="yes"/>
      <point x="657" y="420"/>
      <point x="521" y="514"/>
      <point x="362" y="514" type="curve" smooth="yes"/>
      <point x="338" y="514"/>
      <point x="313" y="511"/>
      <point x="288" y="507" type="curve"/>
      <point x="288" y="657" type="line" smooth="yes"/>
      <point x="288" y="719"/>
      <point x="291" y="750"/>
      <point x="306" y="800" type="curve"/>
      <point x="294" y="808" type="line"/>
    </contour>
    <contour>
      <point x="288" y="120" type="curve"/>
      <point x="288" y="438" type="line"/>
      <point x="304" y="447"/>
      <point x="322" y="451"/>
      <point x="341" y="451" type="curve" smooth="yes"/>
      <point x="403" y="451"/>
      <point x="471" y="404"/>
      <point x="471" y="307" type="curve" smooth="yes"/>
      <point x="471" y="215"/>
      <point x="428" y="157"/>
      <point x="363" y="133" type="curve" smooth="yes"/>
      <point x="341" y="124"/>
      <point x="315" y="120"/>
    </contour>
  </outline>
</glyph>
<glyph name="Eng" format="2">
  <advance width="843"/>
  <unicode hex="014A"/>
  <outline>
    <contour>
      <point x="532" y="-174" type="curve"/>
      <point x="549" y="-194" type="line"/>
      <point x="713" y="-154"/>
      <point x="765" y="-79"/>
      <point x="785" y="-6" type="curve"/>
      <point x="785" y="35" type="line"/>
      <point x="614" y="35" type="line"/>
      <point x="638" y="12"/>
      <point x="649" y="-11"/>
      <point x="649" y="-36" type="curve" smooth="yes"/>
      <point x="649" y="-87"/>
      <point x="615" y="-146"/>
    </contour>
    <component base="N" identifier="0056B2E6"/>
  </outline>
</glyph>
<glyph name="eng" format="2">
  <advance width="614"/>
  <unicode hex="014B"/>
  <outline>
    <contour>
      <point x="250" y="-116" type="curve"/>
      <point x="250" y="-135" type="line"/>
      <point x="488" y="-153"/>
      <point x="594" y="-90"/>
      <point x="594" y="149" type="curve" smooth="yes"/>
      <point x="594" y="331" type="line" smooth="yes"/>
      <point x="594" y="454"/>
      <point x="510" y="509"/>
      <point x="419" y="509" type="curve" smooth="yes"/>
      <point x="368" y="509"/>
      <point x="314" y="492"/>
      <point x="267" y="460" type="curve"/>
      <point x="267" y="500" type="line"/>
      <point x="20" y="500" type="line"/>
      <point x="20" y="476" type="line"/>
      <point x="36" y="476" type="line" smooth="yes"/>
      <point x="70" y="476"/>
      <point x="88" y="454"/>
      <point x="88" y="412" type="curve" smooth="yes"/>
      <point x="88" y="84" type="line" smooth="yes"/>
      <point x="88" y="48"/>
      <point x="82" y="24"/>
      <point x="68" y="0" type="curve"/>
      <point x="290" y="0" type="line"/>
      <point x="277" y="23"/>
      <point x="272" y="48"/>
      <point x="272" y="84" type="curve" smooth="yes"/>
      <point x="272" y="404" type="line"/>
      <point x="293" y="414"/>
      <point x="312" y="418"/>
      <point x="329" y="418" type="curve" smooth="yes"/>
      <point x="376" y="418"/>
      <point x="403" y="381"/>
      <point x="404" y="288" type="curve" smooth="yes"/>
      <point x="405" y="114" type="line" smooth="yes"/>
      <point x="406" y="-71"/>
      <point x="384" y="-116"/>
    </contour>
  </outline>
</glyph>
<glyph name="OE" format="2">
  <advance width="1131"/>
  <unicode hex="0152"/>
  <anchor x="654" y="0" name="bottom"/>
  <anchor x="654" y="722" name="top"/>
  <outline>
    <contour>
      <point x="398" y="-9" type="curve" smooth="yes"/>
      <point x="460" y="-9"/>
      <point x="501" y="0"/>
      <point x="548" y="0" type="curve" smooth="yes"/>
      <point x="1033" y="0" type="line"/>
      <point x="1098" y="262" type="line"/>
      <point x="1070" y="269" type="line"/>
      <point x="1021" y="128"/>
      <point x="893" y="92"/>
      <point x="722" y="90" type="curve"/>
      <point x="722" y="411" type="line"/>
      <point x="849" y="410" type="line" smooth="yes"/>
      <point x="928" y="409"/>
      <point x="958" y="406"/>
      <point x="973" y="364" type="curve"/>
      <point x="990" y="368" type="line"/>
      <point x="989" y="529" type="line"/>
      <point x="973" y="531" type="line"/>
      <point x="958" y="489"/>
      <point x="928" y="486"/>
      <point x="849" y="485" type="curve" smooth="yes"/>
      <point x="722" y="484" type="line"/>
      <point x="722" y="652" type="line"/>
      <point x="796" y="652" type="line" smooth="yes"/>
      <point x="958" y="652"/>
      <point x="1011" y="601"/>
      <point x="1058" y="518" type="curve"/>
      <point x="1080" y="527" type="line"/>
      <point x="1036" y="722" type="line"/>
      <point x="534" y="722" type="line" smooth="yes"/>
      <point x="503" y="722"/>
      <point x="453" y="730"/>
      <point x="399" y="730" type="curve" smooth="yes"/>
      <point x="149" y="730"/>
      <point x="30" y="537"/>
      <point x="30" y="356" type="curve" smooth="yes"/>
      <point x="30" y="161"/>
      <point x="158" y="-9"/>
    </contour>
    <contour>
      <point x="422" y="59" type="curve" smooth="yes"/>
      <point x="352" y="59"/>
      <point x="279" y="136"/>
      <point x="274" y="353" type="curve" smooth="yes"/>
      <point x="268" y="591"/>
      <point x="344" y="662"/>
      <point x="417" y="667" type="curve" smooth="yes"/>
      <point x="481" y="671"/>
      <point x="528" y="628"/>
      <point x="532" y="547" type="curve"/>
      <point x="532" y="113" type="line"/>
      <point x="534" y="71"/>
      <point x="487" y="59"/>
    </contour>
  </outline>
</glyph>
<glyph name="tbar" format="2">
  <advance width="420"/>
  <unicode hex="0167"/>
  <outline>
    <contour>
      <point x="96" y="0" type="curve"/>
      <point x="318" y="0" type="line"/>
      <point x="305" y="23"/>
      <point x="300" y="48"/>
      <point x="300" y="84" type="curve" smooth="yes"/>
      <point x="300" y="469" type="line" smooth="yes"/>
      <point x="300" y="558"/>
      <point x="302" y="602"/>
      <point x="318" y="651" type="curve"/>
      <point x="306" y="659" type="line"/>
      <point x="90" y="499" type="line"/>
      <point x="90" y="487" type="line"/>
      <point x="108" y="469"/>
      <point x="116" y="442"/>
      <point x="116" y="399" type="curve" smooth="yes"/>
      <point x="116" y="84" type="line" smooth="yes"/>
      <point x="116" y="48"/>
      <point x="110" y="24"/>
    </contour>
    <contour>
      <point x="20" y="436" type="line"/>
      <point x="36" y="445"/>
      <point x="61" y="448"/>
      <point x="90" y="448" type="curve" smooth="yes"/>
      <point x="388" y="448" type="line"/>
      <point x="400" y="510" type="line"/>
      <point x="385" y="501"/>
      <point x="348" y="500"/>
      <point x="312" y="500" type="curve" smooth="yes"/>
      <point x="34" y="500" type="line"/>
    </contour>
    <contour>
      <point x="20" y="255" type="line"/>
      <point x="36" y="264"/>
      <point x="61" y="267"/>
      <point x="90" y="267" type="curve" smooth="yes"/>
      <point x="388" y="267" type="line"/>
      <point x="400" y="329" type="line"/>
      <point x="385" y="320"/>
      <point x="348" y="319"/>
      <point x="312" y="319" type="curve" smooth="yes"/>
      <point x="34" y="319" type="line"/>
    </contour>
  </outline>
</glyph>
<glyph name="Uring" format="2">
  <advance width="709"/>
  <unicode hex="016E"/>
  <anchor x="338" y="0" name="bottom"/>
  <anchor x="609" y="10" name="ogonek"/>
  <anchor x="338" y="873" name="top"/>
  <anchor x="657" y="722" name="topright"/>
  <outline>
    <contour>
      <point x="50" y="638" type="curve" smooth="yes"/>
      <point x="50" y="250" type="line" smooth="yes"/>
      <point x="50" y="33"/>
      <point x="201" y="-28"/>
      <point x="357" y="-29" type="curve" smooth="yes"/>
      <point x="558" y="-30"/>
      <point x="659" y="94"/>
      <point x="659" y="279" type="curve" smooth="yes"/>
      <point x="659" y="638" type="line" smooth="yes"/>
      <point x="659" y="674"/>
      <point x="664" y="702"/>
      <point x="679" y="722" type="curve"/>
      <point x="624" y="734"/>
      <point x="553" y="700"/>
      <point x="475" y="715" type="curve" smooth="yes"/>
      <point x="395" y="730"/>
      <point x="350" y="779"/>
      <point x="350" y="835" type="curve" smooth="yes"/>
      <point x="350" y="886"/>
      <point x="383" y="908"/>
      <point x="414" y="908" type="curve" smooth="yes"/>
      <point x="475" y="908"/>
      <point x="486" y="844"/>
      <point x="452" y="802" type="curve"/>
      <point x="463" y="795" type="line"/>
      <point x="526" y="864"/>
      <point x="482" y="1006"/>
      <point x="371" y="1006" type="curve" smooth="yes"/>
      <point x="306" y="1006"/>
      <point x="242" y="953"/>
      <point x="253" y="870" type="curve" smooth="yes"/>
      <point x="261" y="811"/>
      <point x="312" y="730"/>
      <point x="470" y="691" type="curve" smooth="yes"/>
      <point x="523" y="678"/>
      <point x="529" y="648"/>
      <point x="529" y="557" type="curve" smooth="yes"/>
      <point x="529" y="217" type="line" smooth="yes"/>
      <point x="529" y="138"/>
      <point x="480" y="77"/>
      <point x="396" y="77" type="curve" smooth="yes"/>
      <point x="316" y="77"/>
      <point x="250" y="112"/>
      <point x="250" y="208" type="curve" smooth="yes"/>
      <point x="250" y="634" type="line" smooth="yes"/>
      <point x="250" y="676"/>
      <point x="272" y="698"/>
      <point x="312" y="698" type="curve" smooth="yes"/>
      <point x="332" y="698" type="line"/>
      <point x="332" y="722" type="line"/>
      <point x="30" y="722" type="line"/>
      <point x="44" y="698"/>
      <point x="50" y="674"/>
    </contour>
  </outline>
</glyph>
<glyph name="florin" format="2">
  <advance width="740"/>
  <unicode hex="0192"/>
  <outline>
    <contour>
      <point x="292" y="510" type="curve" smooth="yes"/>
      <point x="276" y="401" type="line"/>
      <point x="154" y="401" type="line"/>
      <point x="110" y="309" type="line"/>
      <point x="127" y="305" type="line"/>
      <point x="144" y="326"/>
      <point x="158" y="331"/>
      <point x="196" y="331" type="curve" smooth="yes"/>
      <point x="266" y="331" type="line"/>
      <point x="242" y="170" type="line" smooth="yes"/>
      <point x="231" y="98"/>
      <point x="221" y="58"/>
      <point x="173" y="58" type="curve" smooth="yes"/>
      <point x="123" y="58"/>
      <point x="86" y="125"/>
      <point x="91" y="225" type="curve"/>
      <point x="74" y="230" type="line"/>
      <point x="-12" y="91" type="line"/>
      <point x="31" y="37"/>
      <point x="89" y="0"/>
      <point x="192" y="0" type="curve" smooth="yes"/>
      <point x="340" y="0"/>
      <point x="407" y="84"/>
      <point x="426" y="212" type="curve" smooth="yes"/>
      <point x="444" y="331" type="line"/>
      <point x="567" y="331" type="line"/>
      <point x="611" y="423" type="line"/>
      <point x="594" y="427" type="line"/>
      <point x="577" y="406"/>
      <point x="563" y="401"/>
      <point x="525" y="401" type="curve" smooth="yes"/>
      <point x="454" y="401" type="line"/>
      <point x="476" y="552" type="line" smooth="yes"/>
      <point x="487" y="624"/>
      <point x="497" y="664"/>
      <point x="545" y="664" type="curve" smooth="yes"/>
      <point x="595" y="664"/>
      <point x="628" y="597"/>
      <point x="623" y="497" type="curve"/>
      <point x="640" y="492" type="line"/>
      <point x="730" y="631" type="line"/>
      <point x="687" y="685"/>
      <point x="629" y="722"/>
      <point x="526" y="722" type="curve" smooth="yes"/>
      <point x="378" y="722"/>
      <point x="311" y="638"/>
    </contour>
  </outline>
</glyph>
<glyph name="jdotless" format="2">
  <advance width="316"/>
  <unicode hex="0237"/>
  <anchor x="160" y="500" name="top"/>
  <outline>
    <contour>
      <point x="10" y="-187" type="curve"/>
      <point x="32" y="-208" type="line"/>
      <point x="143" y="-113"/>
      <point x="212" y="-29"/>
      <point x="264" y="0" type="curve"/>
      <point x="264" y="437" type="line" smooth="yes"/>
      <point x="264" y="464"/>
      <point x="268" y="482"/>
      <point x="276" y="500" type="curve"/>
      <point x="12" y="500" type="line"/>
      <point x="12" y="476" type="line"/>
      <point x="28" y="476" type="line" smooth="yes"/>
      <point x="62" y="476"/>
      <point x="80" y="454"/>
      <point x="80" y="412" type="curve" smooth="yes"/>
      <point x="80" y="53" type="line" smooth="yes"/>
      <point x="80" y="-79"/>
      <point x="72" y="-119"/>
    </contour>
  </outline>
</glyph>
<glyph name="caron" format="2">
  <advance width="354"/>
  <unicode hex="02C7"/>
  <outline>
    <contour>
      <point x="157" y="560" type="line"/>
      <point x="261" y="560" type="line"/>
      <point x="406" y="714" type="line"/>
      <point x="393" y="739" type="line"/>
      <point x="209" y="670" type="line"/>
      <point x="25" y="739" type="line"/>
      <point x="11" y="714" type="line"/>
    </contour>
  </outline>
</glyph>
<glyph name="ring" format="2">
  <advance width="284"/>
  <unicode hex="02DA"/>
  <outline>
    <contour>
      <point x="133" y="557" type="curve" smooth="yes"/>
      <point x="190" y="557"/>
      <point x="229" y="596"/>
      <point x="229" y="643" type="curve" smooth="yes"/>
      <point x="229" y="691"/>
      <point x="190" y="730"/>
      <point x="133" y="730" type="curve" smooth="yes"/>
      <point x="75" y="730"/>
      <point x="36" y="691"/>
      <point x="36" y="643" type="curve" smooth="yes"/>
      <point x="36" y="596"/>
      <point x="75" y="557"/>
    </contour>
    <contour>
      <point x="133" y="580" type="curve" smooth="yes"/>
      <point x="122" y="580"/>
      <point x="111" y="600"/>
      <point x="111" y="643" type="curve" smooth="yes"/>
      <point x="111" y="688"/>
      <point x="122" y="710"/>
      <point x="133" y="710" type="curve" smooth="yes"/>
      <point x="144" y="710"/>
      <point x="155" y="690"/>
      <point x="155" y="646" type="curve" smooth="yes"/>
      <point x="156" y="602"/>
      <point x="144" y="580"/>
    </contour>
  </outline>
</glyph>
<glyph name="tilde" format="2">
  <advance width="434"/>
  <unicode hex="02DC"/>
  <outline>
    <contour>
      <point x="26" y="528" type="curve"/>
      <point x="47" y="519" type="line"/>
      <point x="65" y="562"/>
      <point x="97" y="585"/>
      <point x="144" y="575" type="curve" smooth="yes"/>
      <point x="212" y="561"/>
      <point x="286" y="514"/>
      <point x="351" y="521" type="curve" smooth="yes"/>
      <point x="401" y="527"/>
      <point x="423" y="593"/>
      <point x="464" y="677" type="curve"/>
      <point x="444" y="687" type="line"/>
      <point x="417" y="642"/>
      <point x="395" y="640"/>
      <point x="355" y="647" type="curve" smooth="yes"/>
      <point x="296" y="657"/>
      <point x="226" y="697"/>
      <point x="166" y="690" type="curve" smooth="yes"/>
      <point x="87" y="681"/>
      <point x="47" y="608"/>
    </contour>
  </outline>
</glyph>
<glyph name="gravecomb" format="2">
  <advance width="352"/>
  <unicode hex="0300"/>
  <anchor x="123" y="500" name="_top"/>
  <anchor x="123" y="665" name="top"/>
  <outline>
    <contour>
      <point x="232" y="534" type="line"/>
      <point x="250" y="567" type="line"/>
      <point x="9" y="744" type="line"/>
      <point x="-57" y="615" type="line"/>
    </contour>
  </outline>
</glyph>
<glyph name="tildecomb" format="2">
  <advance width="505"/>
  <unicode hex="0303"/>
  <anchor x="213" y="500" name="_top"/>
  <anchor x="213" y="605" name="top"/>
  <outline>
    <contour>
      <point x="81" y="570" type="curve"/>
      <point x="102" y="562" type="line"/>
      <point x="121" y="602"/>
      <point x="154" y="623"/>
      <point x="203" y="614" type="curve" smooth="yes"/>
      <point x="273" y="601"/>
      <point x="350" y="557"/>
      <point x="417" y="564" type="curve" smooth="yes"/>
      <point x="469" y="569"/>
      <point x="509" y="631"/>
      <point x="534" y="708" type="curve"/>
      <point x="513" y="718" type="line"/>
      <point x="485" y="676"/>
      <point x="463" y="674"/>
      <point x="421" y="681" type="curve" smooth="yes"/>
      <point x="360" y="690"/>
      <point x="288" y="727"/>
      <point x="225" y="721" type="curve" smooth="yes"/>
      <point x="144" y="712"/>
      <point x="106" y="657"/>
    </contour>
  </outline>
</glyph>
<glyph name="dotaccentcomb" format="2">
  <advance width="232"/>
  <unicode hex="0307"/>
  <anchor x="113" y="500" name="_top"/>
  <outline>
    <contour>
      <point x="116" y="568" type="curve"/>
      <point x="144" y="612"/>
      <point x="180" y="656"/>
      <point x="212" y="664" type="curve"/>
      <point x="168" y="692"/>
      <point x="124" y="728"/>
      <point x="116" y="760" type="curve"/>
      <point x="88" y="716"/>
      <point x="52" y="672"/>
      <point x="20" y="664" type="curve"/>
      <point x="64" y="636"/>
      <point x="108" y="600"/>
    </contour>
  </outline>
</glyph>
<glyph name="dieresiscomb" format="2">
  <advance width="400"/>
  <unicode hex="0308"/>
  <anchor x="186" y="500" name="_top"/>
  <outline>
    <contour>
      <point x="81" y="563" type="curve" smooth="yes"/>
      <point x="123" y="563"/>
      <point x="157" y="597"/>
      <point x="157" y="640" type="curve" smooth="yes"/>
      <point x="157" y="682"/>
      <point x="123" y="716"/>
      <point x="81" y="716" type="curve" smooth="yes"/>
      <point x="38" y="716"/>
      <point x="4" y="682"/>
      <point x="4" y="640" type="curve" smooth="yes"/>
      <point x="4" y="597"/>
      <point x="38" y="563"/>
    </contour>
    <contour>
      <point x="290" y="563" type="curve" smooth="yes"/>
      <point x="332" y="563"/>
      <point x="366" y="597"/>
      <point x="366" y="640" type="curve" smooth="yes"/>
      <point x="366" y="682"/>
      <point x="332" y="716"/>
      <point x="290" y="716" type="curve" smooth="yes"/>
      <point x="247" y="716"/>
      <point x="213" y="682"/>
      <point x="213" y="640" type="curve" smooth="yes"/>
      <point x="213" y="597"/>
      <point x="247" y="563"/>
    </contour>
  </outline>
</glyph>
<glyph name="ringcomb" format="2">
  <advance width="284"/>
  <unicode hex="030A"/>
  <anchor x="142" y="500" name="_top"/>
  <anchor x="142" y="651" name="top"/>
  <outline>
    <contour>
      <point x="133" y="555" type="curve" smooth="yes"/>
      <point x="190" y="555"/>
      <point x="229" y="594"/>
      <point x="229" y="641" type="curve" smooth="yes"/>
      <point x="229" y="689"/>
      <point x="190" y="728"/>
      <point x="133" y="728" type="curve" smooth="yes"/>
      <point x="75" y="728"/>
      <point x="36" y="689"/>
      <point x="36" y="641" type="curve" smooth="yes"/>
      <point x="36" y="594"/>
      <point x="75" y="555"/>
    </contour>
    <contour>
      <point x="133" y="571" type="curve" smooth="yes"/>
      <point x="122" y="571"/>
      <point x="111" y="593"/>
      <point x="111" y="640" type="curve" smooth="yes"/>
      <point x="111" y="688"/>
      <point x="122" y="712"/>
      <point x="133" y="712" type="curve" smooth="yes"/>
      <point x="144" y="712"/>
      <point x="155" y="690"/>
      <point x="155" y="643" type="curve" smooth="yes"/>
      <point x="156" y="595"/>
      <point x="144" y="571"/>
    </contour>
  </outline>
</glyph>
<glyph name="hungarumlautcomb" format="2">
  <advance width="434"/>
  <unicode hex="030B"/>
  <anchor x="223" y="500" name="_top"/>
  <anchor x="223" y="695" name="top"/>
  <outline>
    <contour>
      <point x="23" y="578" type="line"/>
      <point x="299" y="670" type="line"/>
      <point x="284" y="782" type="line"/>
      <point x="9" y="627" type="line"/>
    </contour>
    <contour>
      <point x="116" y="535" type="line"/>
      <point x="412" y="568" type="line"/>
      <point x="417" y="680" type="line"/>
      <point x="116" y="585" type="line"/>
    </contour>
  </outline>
</glyph>
<glyph name="commaturnedabovecomb" format="2">
  <advance width="210"/>
  <unicode hex="0312"/>
  <anchor x="109" y="500" name="_top"/>
  <anchor x="109" y="818" name="top"/>
  <outline>
    <contour>
      <point x="83" y="583" type="curve" smooth="yes"/>
      <point x="111" y="583"/>
      <point x="137" y="605"/>
      <point x="137" y="635" type="curve" smooth="yes"/>
      <point x="137" y="680"/>
      <point x="101" y="711"/>
      <point x="101" y="753" type="curve" smooth="yes"/>
      <point x="101" y="782"/>
      <point x="116" y="811"/>
      <point x="142" y="834" type="curve"/>
      <point x="136" y="843" type="line"/>
      <point x="71" y="808"/>
      <point x="25" y="727"/>
      <point x="25" y="663" type="curve" smooth="yes"/>
      <point x="25" y="607"/>
      <point x="55" y="583"/>
    </contour>
  </outline>
</glyph>
<glyph name="ogonekcomb" format="2">
  <advance width="220"/>
  <unicode hex="0328"/>
  <anchor x="178" y="10" name="_ogonek"/>
  <outline>
    <contour>
      <point x="52" y="-248" type="curve"/>
      <point x="83" y="-238"/>
      <point x="124" y="-225"/>
      <point x="185" y="-184" type="curve"/>
      <point x="178" y="-163" type="line"/>
      <point x="122" y="-168"/>
      <point x="85" y="-133"/>
      <point x="85" y="-84" type="curve" smooth="yes"/>
      <point x="85" y="-57"/>
      <point x="97" y="-25"/>
      <point x="122" y="8" type="curve"/>
      <point x="95" y="20" type="line"/>
      <point x="26" y="-26"/>
      <point x="-24" y="-96"/>
      <point x="-24" y="-155" type="curve" smooth="yes"/>
      <point x="-24" y="-194"/>
      <point x="-2" y="-229"/>
    </contour>
  </outline>
</glyph>
<glyph name="Dje-cy" format="2">
  <advance width="811"/>
  <unicode hex="0402"/>
  <outline>
    <component base="T"/>
    <contour>
      <point x="529" y="-139" type="curve"/>
      <point x="538" y="-148" type="line"/>
      <point x="686" y="-73"/>
      <point x="791" y="74"/>
      <point x="791" y="206" type="curve" smooth="yes"/>
      <point x="791" y="311"/>
      <point x="720" y="386"/>
      <point x="620" y="386" type="curve" smooth="yes"/>
      <point x="562" y="386"/>
      <point x="498" y="362"/>
      <point x="465" y="328" type="curve"/>
      <point x="465" y="281" type="line"/>
      <point x="481" y="292"/>
      <point x="500" y="299"/>
      <point x="517" y="299" type="curve" smooth="yes"/>
      <point x="574" y="299"/>
      <point x="610" y="232"/>
      <point x="610" y="126" type="curve" smooth="yes"/>
      <point x="610" y="21"/>
      <point x="579" y="-83"/>
    </contour>
  </outline>
</glyph>
<glyph name="E-cy" format="2">
  <advance width="739"/>
  <unicode hex="0404"/>
  <outline>
    <contour>
      <point x="430" y="-15" type="curve" smooth="yes"/>
      <point x="513" y="-15"/>
      <point x="599" y="-1"/>
      <point x="683" y="22" type="curve"/>
      <point x="706" y="297" type="line"/>
      <point x="690" y="300" type="line"/>
      <point x="651" y="189"/>
      <point x="562" y="61"/>
      <point x="456" y="60" type="curve" smooth="yes"/>
      <point x="322" y="59"/>
      <point x="264" y="211"/>
      <point x="263" y="394" type="curve"/>
      <point x="534" y="393" type="line" smooth="yes"/>
      <point x="596" y="393"/>
      <point x="608" y="392"/>
      <point x="624" y="375" type="curve"/>
      <point x="640" y="378" type="line"/>
      <point x="658" y="512" type="line"/>
      <point x="622" y="505" type="line"/>
      <point x="619" y="485"/>
      <point x="614" y="468"/>
      <point x="550" y="468" type="curve" smooth="yes"/>
      <point x="267" y="467" type="line"/>
      <point x="278" y="613"/>
      <point x="370" y="669"/>
      <point x="457" y="669" type="curve" smooth="yes"/>
      <point x="585" y="669"/>
      <point x="644" y="592"/>
      <point x="615" y="459" type="curve"/>
      <point x="649" y="443" type="line"/>
      <point x="685" y="682" type="line"/>
      <point x="627" y="717"/>
      <point x="538" y="739"/>
      <point x="443" y="739" type="curve" smooth="yes"/>
      <point x="205" y="740"/>
      <point x="30" y="603"/>
      <point x="30" y="356" type="curve" smooth="yes"/>
      <point x="30" y="122"/>
      <point x="186" y="-15"/>
    </contour>
  </outline>
</glyph>
<glyph name="Yi-cy" format="2">
  <advance width="336"/>
  <unicode hex="0407"/>
  <anchor x="127" y="806" name="top"/>
  <outline>
    <component base="I"/>
    <contour>
      <point x="69" y="787" type="curve" smooth="yes"/>
      <point x="107" y="787"/>
      <point x="138" y="818"/>
      <point x="138" y="858" type="curve" smooth="yes"/>
      <point x="138" y="897"/>
      <point x="107" y="928"/>
      <point x="69" y="928" type="curve" smooth="yes"/>
      <point x="28" y="928"/>
      <point x="-3" y="897"/>
      <point x="-3" y="858" type="curve" smooth="yes"/>
      <point x="-3" y="818"/>
      <point x="28" y="787"/>
    </contour>
    <contour>
      <point x="243" y="787" type="curve" smooth="yes"/>
      <point x="283" y="787"/>
      <point x="314" y="818"/>
      <point x="314" y="858" type="curve" smooth="yes"/>
      <point x="314" y="897"/>
      <point x="283" y="928"/>
      <point x="243" y="928" type="curve" smooth="yes"/>
      <point x="204" y="928"/>
      <point x="173" y="897"/>
      <point x="173" y="858" type="curve" smooth="yes"/>
      <point x="173" y="818"/>
      <point x="204" y="787"/>
    </contour>
  </outline>
</glyph>
<glyph name="Lje-cy" format="2">
  <advance width="1138"/>
  <unicode hex="0409"/>
  <outline>
    <contour>
      <point x="517" y="0" type="curve"/>
      <point x="756" y="0" type="line" smooth="yes"/>
      <point x="957" y="0"/>
      <point x="1113" y="84"/>
      <point x="1113" y="249" type="curve" smooth="yes"/>
      <point x="1113" y="413"/>
      <point x="979" y="483"/>
      <point x="742" y="477" type="curve"/>
      <point x="742" y="437" type="line"/>
      <point x="862" y="430"/>
      <point x="913" y="363"/>
      <point x="916" y="260" type="curve" smooth="yes"/>
      <point x="919" y="142"/>
      <point x="863" y="72"/>
      <point x="727" y="70" type="curve"/>
      <point x="727" y="590" type="line" smooth="yes"/>
      <point x="727" y="655"/>
      <point x="727" y="690"/>
      <point x="738" y="722" type="curve"/>
      <point x="238" y="722" type="line"/>
      <point x="238" y="697" type="line"/>
      <point x="276" y="697" type="line" smooth="yes"/>
      <point x="305" y="697"/>
      <point x="317" y="682"/>
      <point x="317" y="641" type="curve" smooth="yes"/>
      <point x="317" y="515"/>
      <point x="309" y="361"/>
      <point x="273" y="261" type="curve" smooth="yes"/>
      <point x="246" y="189"/>
      <point x="202" y="134"/>
      <point x="123" y="134" type="curve" smooth="yes"/>
      <point x="94" y="134"/>
      <point x="65" y="144"/>
      <point x="40" y="165" type="curve"/>
      <point x="20" y="152" type="line"/>
      <point x="65" y="-6" type="line"/>
      <point x="238" y="-22"/>
      <point x="309" y="78"/>
      <point x="346" y="227" type="curve" smooth="yes"/>
      <point x="376" y="348"/>
      <point x="385" y="512"/>
      <point x="387" y="652" type="curve"/>
      <point x="537" y="652" type="line"/>
      <point x="537" y="84" type="line" smooth="yes"/>
      <point x="537" y="48"/>
      <point x="531" y="24"/>
    </contour>
  </outline>
</glyph>
<glyph name="Tshe-cy" format="2">
  <advance width="865"/>
  <unicode hex="040B"/>
  <outline>
    <component base="T"/>
    <contour>
      <point x="664" y="383" type="curve" smooth="yes"/>
      <point x="590" y="383"/>
      <point x="496" y="329"/>
      <point x="462" y="286" type="curve"/>
      <point x="462" y="228" type="line"/>
      <point x="484" y="255"/>
      <point x="522" y="274"/>
      <point x="555" y="272" type="curve" smooth="yes"/>
      <point x="587" y="270"/>
      <point x="604" y="252"/>
      <point x="604" y="200" type="curve" smooth="yes"/>
      <point x="604" y="84" type="line" smooth="yes"/>
      <point x="604" y="48"/>
      <point x="600" y="24"/>
      <point x="590" y="0" type="curve"/>
      <point x="845" y="0" type="line"/>
      <point x="845" y="24" type="line"/>
      <point x="832" y="24" type="line" smooth="yes"/>
      <point x="803" y="24"/>
      <point x="788" y="46"/>
      <point x="788" y="88" type="curve" smooth="yes"/>
      <point x="788" y="230" type="line" smooth="yes"/>
      <point x="788" y="342"/>
      <point x="736" y="383"/>
    </contour>
  </outline>
</glyph>
<glyph name="Dzhe-cy" format="2">
  <advance width="795"/>
  <unicode hex="040F"/>
  <outline>
    <contour>
      <point x="68" y="0" type="curve"/>
      <point x="297" y="0" type="line" smooth="yes"/>
      <point x="376" y="0"/>
      <point x="403" y="-6"/>
      <point x="402" y="-131" type="curve"/>
      <point x="426" y="-131" type="line"/>
      <point x="425" y="-6"/>
      <point x="449" y="0"/>
      <point x="530" y="0" type="curve" smooth="yes"/>
      <point x="755" y="0" type="line"/>
      <point x="740" y="36"/>
      <point x="740" y="72"/>
      <point x="740" y="130" type="curve" smooth="yes"/>
      <point x="740" y="596" type="line" smooth="yes"/>
      <point x="740" y="650"/>
      <point x="742" y="688"/>
      <point x="747" y="722" type="curve"/>
      <point x="482" y="722" type="line"/>
      <point x="482" y="698" type="line"/>
      <point x="498" y="698" type="line" smooth="yes"/>
      <point x="532" y="698"/>
      <point x="550" y="676"/>
      <point x="550" y="634" type="curve" smooth="yes"/>
      <point x="550" y="70" type="line"/>
      <point x="278" y="70" type="line"/>
      <point x="278" y="596" type="line" smooth="yes"/>
      <point x="278" y="650"/>
      <point x="280" y="688"/>
      <point x="285" y="722" type="curve"/>
      <point x="20" y="722" type="line"/>
      <point x="20" y="698" type="line"/>
      <point x="36" y="698" type="line" smooth="yes"/>
      <point x="70" y="698"/>
      <point x="88" y="676"/>
      <point x="88" y="634" type="curve" smooth="yes"/>
      <point x="88" y="84" type="line" smooth="yes"/>
      <point x="88" y="48"/>
      <point x="82" y="24"/>
    </contour>
  </outline>
</glyph>
<glyph name="Be-cy" format="2">
  <advance width="689"/>
  <unicode hex="0411"/>
  <outline>
    <contour>
      <point x="68" y="0" type="curve"/>
      <point x="302" y="0" type="line" smooth="yes"/>
      <point x="503" y="0"/>
      <point x="659" y="84"/>
      <point x="659" y="249" type="curve" smooth="yes"/>
      <point x="659" y="413"/>
      <point x="525" y="483"/>
      <point x="288" y="477" type="curve"/>
      <point x="288" y="437" type="line"/>
      <point x="408" y="430"/>
      <point x="459" y="365"/>
      <point x="459" y="261" type="curve" smooth="yes"/>
      <point x="459" y="141"/>
      <point x="407" y="70"/>
      <point x="278" y="70" type="curve"/>
      <point x="278" y="652" type="line"/>
      <point x="323" y="652" type="line" smooth="yes"/>
      <point x="483" y="652"/>
      <point x="540" y="597"/>
      <point x="580" y="457" type="curve"/>
      <point x="602" y="464" type="line"/>
      <point x="549" y="722" type="line"/>
      <point x="20" y="722" type="line"/>
      <point x="20" y="698" type="line"/>
      <point x="36" y="698" type="line" smooth="yes"/>
      <point x="70" y="698"/>
      <point x="88" y="676"/>
      <point x="88" y="634" type="curve" smooth="yes"/>
      <point x="88" y="84" type="line" smooth="yes"/>
      <point x="88" y="48"/>
      <point x="82" y="24"/>
    </contour>
  </outline>
</glyph>
<glyph name="Ge-cy" format="2">
  <advance width="603"/>
  <unicode hex="0413"/>
  <anchor x="580" y="0" name="bottomright"/>
  <anchor x="300" y="722" name="top"/>
  <outline>
    <contour>
      <point x="68" y="0" type="curve"/>
      <point x="296" y="0" type="line"/>
      <point x="283" y="23"/>
      <point x="278" y="48"/>
      <point x="278" y="84" type="curve" smooth="yes"/>
      <point x="278" y="652" type="line"/>
      <point x="327" y="652" type="line" smooth="yes"/>
      <point x="454" y="652"/>
      <point x="524" y="606"/>
      <point x="566" y="434" type="curve"/>
      <point x="588" y="439" type="line"/>
      <point x="540" y="722" type="line"/>
      <point x="20" y="722" type="line"/>
      <point x="20" y="698" type="line"/>
      <point x="36" y="698" type="line" smooth="yes"/>
      <point x="70" y="698"/>
      <point x="88" y="676"/>
      <point x="88" y="634" type="curve" smooth="yes"/>
      <point x="88" y="84" type="line" smooth="yes"/>
      <point x="88" y="48"/>
      <point x="82" y="24"/>
    </contour>
  </outline>
</glyph>
<glyph name="De-cy" format="2">
  <advance width="799"/>
  <unicode hex="0414"/>
  <outline>
    <contour>
      <point x="759" y="70" type="line"/>
      <point x="692" y="70" type="line"/>
      <point x="692" y="590" type="line" smooth="yes"/>
      <point x="692" y="655"/>
      <point x="692" y="690"/>
      <point x="703" y="722" type="curve"/>
      <point x="144" y="722" type="line"/>
      <point x="144" y="699" type="line"/>
      <point x="165" y="699" type="line" smooth="yes"/>
      <point x="226" y="699"/>
      <point x="247" y="650"/>
      <point x="247" y="499" type="curve" smooth="yes"/>
      <point x="247" y="344"/>
      <point x="223" y="169"/>
      <point x="111" y="70" type="curve"/>
      <point x="30" y="70" type="line"/>
      <point x="30" y="-149" type="line"/>
      <point x="54" y="-149" type="line"/>
      <point x="63" y="-39"/>
      <point x="130" y="0"/>
      <point x="297" y="0" type="curve" smooth="yes"/>
      <point x="622" y="0" type="line" smooth="yes"/>
      <point x="687" y="0"/>
      <point x="725" y="-25"/>
      <point x="735" y="-152" type="curve"/>
      <point x="759" y="-152" type="line"/>
    </contour>
    <contour>
      <point x="163" y="70" type="line"/>
      <point x="300" y="201"/>
      <point x="327" y="405"/>
      <point x="327" y="569" type="curve" smooth="yes"/>
      <point x="327" y="598"/>
      <point x="326" y="626"/>
      <point x="325" y="652" type="curve"/>
      <point x="502" y="652" type="line"/>
      <point x="502" y="70" type="line"/>
    </contour>
  </outline>
</glyph>
<glyph name="Zhe-cy" format="2">
  <advance width="1070"/>
  <unicode hex="0416"/>
  <guideline x="635" y="429" angle="50.7546"/>
  <anchor x="1043" y="0" name="bottomright"/>
  <anchor x="531" y="722" name="top"/>
  <outline>
    <contour>
      <point x="435" y="634" type="curve" smooth="yes"/>
      <point x="435" y="84" type="line" smooth="yes"/>
      <point x="435" y="48"/>
      <point x="429" y="24"/>
      <point x="415" y="0" type="curve"/>
      <point x="655" y="0" type="line"/>
      <point x="641" y="24"/>
      <point x="635" y="48"/>
      <point x="635" y="84" type="curve"/>
      <point x="635" y="722" type="line"/>
      <point x="367" y="722" type="line"/>
      <point x="367" y="698" type="line"/>
      <point x="383" y="698" type="line" smooth="yes"/>
      <point x="417" y="698"/>
      <point x="435" y="676"/>
    </contour>
    <contour>
      <point x="645" y="337" type="curve"/>
      <point x="772" y="345"/>
      <point x="795" y="280"/>
      <point x="831" y="138" type="curve" smooth="yes"/>
      <point x="860" y="23"/>
      <point x="902" y="-86"/>
      <point x="1103" y="-119" type="curve"/>
      <point x="1110" y="-100" type="line"/>
      <point x="1043" y="-61"/>
      <point x="1044" y="118"/>
      <point x="1004" y="253" type="curve" smooth="yes"/>
      <point x="975" y="352"/>
      <point x="922" y="417"/>
      <point x="777" y="424" type="curve"/>
      <point x="876" y="601" type="line" smooth="yes"/>
      <point x="925" y="688"/>
      <point x="962" y="698"/>
      <point x="1022" y="698" type="curve"/>
      <point x="1022" y="722" type="line"/>
      <point x="840" y="722" type="line"/>
      <point x="823" y="655"/>
      <point x="782" y="579"/>
    </contour>
    <contour>
      <point x="425" y="337" type="curve"/>
      <point x="283" y="579"/>
      <point x="243" y="655"/>
      <point x="230" y="722" type="curve"/>
      <point x="48" y="722" type="line"/>
      <point x="48" y="698" type="line"/>
      <point x="108" y="698"/>
      <point x="140" y="688"/>
      <point x="190" y="601" type="curve" smooth="yes"/>
      <point x="293" y="424" type="line"/>
      <point x="148" y="417"/>
      <point x="95" y="352"/>
      <point x="66" y="253" type="curve" smooth="yes"/>
      <point x="26" y="118"/>
      <point x="27" y="-61"/>
      <point x="-40" y="-100" type="curve"/>
      <point x="-33" y="-119" type="line"/>
      <point x="168" y="-86"/>
      <point x="210" y="23"/>
      <point x="239" y="138" type="curve" smooth="yes"/>
      <point x="275" y="280"/>
      <point x="298" y="345"/>
    </contour>
  </outline>
</glyph>
<glyph name="Ze-cy" format="2">
  <advance width="599"/>
  <unicode hex="0417"/>
  <anchor x="310" y="0" name="bottom"/>
  <anchor x="310" y="722" name="top"/>
  <outline>
    <contour>
      <point x="287" y="411" type="curve"/>
      <point x="319" y="396" type="line"/>
      <point x="413" y="448"/>
      <point x="502" y="536"/>
      <point x="502" y="610" type="curve" smooth="yes"/>
      <point x="502" y="710"/>
      <point x="379" y="742"/>
      <point x="252" y="742" type="curve" smooth="yes"/>
      <point x="180" y="742"/>
      <point x="108" y="731"/>
      <point x="56" y="717" type="curve"/>
      <point x="56" y="707" type="line"/>
      <point x="83" y="694"/>
      <point x="81" y="673"/>
      <point x="81" y="560" type="curve"/>
      <point x="105" y="560" type="line"/>
      <point x="110" y="635"/>
      <point x="171" y="676"/>
      <point x="229" y="676" type="curve" smooth="yes"/>
      <point x="305" y="676"/>
      <point x="344" y="618"/>
      <point x="344" y="552" type="curve" smooth="yes"/>
      <point x="344" y="500"/>
      <point x="326" y="447"/>
    </contour>
    <contour>
      <point x="21" y="65" type="curve"/>
      <point x="20" y="54" type="line"/>
      <point x="84" y="16"/>
      <point x="168" y="-4"/>
      <point x="251" y="-4" type="curve" smooth="yes"/>
      <point x="412" y="-4"/>
      <point x="569" y="79"/>
      <point x="569" y="242" type="curve" smooth="yes"/>
      <point x="569" y="438"/>
      <point x="356" y="460"/>
      <point x="153" y="422" type="curve"/>
      <point x="156" y="398" type="line"/>
      <point x="173" y="401"/>
      <point x="189" y="402"/>
      <point x="203" y="402" type="curve" smooth="yes"/>
      <point x="317" y="402"/>
      <point x="371" y="311"/>
      <point x="371" y="224" type="curve" smooth="yes"/>
      <point x="371" y="143"/>
      <point x="324" y="65"/>
      <point x="236" y="65" type="curve" smooth="yes"/>
      <point x="160" y="65"/>
      <point x="77" y="127"/>
      <point x="68" y="250" type="curve"/>
      <point x="45" y="250" type="line"/>
      <point x="39" y="125"/>
      <point x="50" y="82"/>
    </contour>
  </outline>
</glyph>
<glyph name="Ii-cy" format="2">
  <advance width="803"/>
  <unicode hex="0418"/>
  <anchor x="823" y="0" name="bottomright"/>
  <anchor x="390" y="728" name="top"/>
  <outline>
    <contour>
      <point x="295" y="722" type="curve"/>
      <point x="20" y="722" type="line"/>
      <point x="20" y="698" type="line"/>
      <point x="36" y="698" type="line" smooth="yes"/>
      <point x="70" y="698"/>
      <point x="88" y="676"/>
      <point x="88" y="634" type="curve" smooth="yes"/>
      <point x="88" y="84" type="line" smooth="yes"/>
      <point x="88" y="48"/>
      <point x="82" y="24"/>
      <point x="68" y="0" type="curve"/>
      <point x="306" y="0" type="line"/>
      <point x="293" y="23"/>
      <point x="288" y="48"/>
      <point x="288" y="84" type="curve" smooth="yes"/>
      <point x="288" y="94" type="line"/>
      <point x="545" y="492" type="line"/>
      <point x="545" y="84" type="line" smooth="yes"/>
      <point x="545" y="48"/>
      <point x="539" y="24"/>
      <point x="525" y="0" type="curve"/>
      <point x="763" y="0" type="line"/>
      <point x="750" y="23"/>
      <point x="745" y="48"/>
      <point x="745" y="84" type="curve" smooth="yes"/>
      <point x="745" y="596" type="line" smooth="yes"/>
      <point x="745" y="650"/>
      <point x="747" y="688"/>
      <point x="752" y="722" type="curve"/>
      <point x="477" y="722" type="line"/>
      <point x="477" y="698" type="line"/>
      <point x="493" y="698" type="line" smooth="yes"/>
      <point x="527" y="698"/>
      <point x="545" y="676"/>
      <point x="545" y="634" type="curve" smooth="yes"/>
      <point x="545" y="618" type="line"/>
      <point x="288" y="221" type="line"/>
      <point x="288" y="596" type="line" smooth="yes"/>
      <point x="288" y="650"/>
      <point x="290" y="688"/>
    </contour>
  </outline>
</glyph>
<glyph name="Pe-cy" format="2">
  <advance width="736"/>
  <unicode hex="041F"/>
  <anchor x="729" y="0" name="bottomright"/>
  <outline>
    <contour>
      <point x="88" y="634" type="curve" smooth="yes"/>
      <point x="88" y="84" type="line" smooth="yes"/>
      <point x="88" y="48"/>
      <point x="82" y="24"/>
      <point x="68" y="0" type="curve"/>
      <point x="296" y="0" type="line"/>
      <point x="283" y="23"/>
      <point x="278" y="48"/>
      <point x="278" y="84" type="curve" smooth="yes"/>
      <point x="278" y="652" type="line"/>
      <point x="488" y="652" type="line"/>
      <point x="488" y="84" type="line" smooth="yes"/>
      <point x="488" y="48"/>
      <point x="482" y="24"/>
      <point x="468" y="0" type="curve"/>
      <point x="696" y="0" type="line"/>
      <point x="683" y="23"/>
      <point x="678" y="48"/>
      <point x="678" y="84" type="curve" smooth="yes"/>
      <point x="678" y="596" type="line" smooth="yes"/>
      <point x="678" y="650"/>
      <point x="680" y="688"/>
      <point x="685" y="722" type="curve"/>
      <point x="20" y="722" type="line"/>
      <point x="20" y="698" type="line"/>
      <point x="36" y="698" type="line" smooth="yes"/>
      <point x="70" y="698"/>
      <point x="88" y="676"/>
    </contour>
  </outline>
</glyph>
<glyph name="U-cy" format="2">
  <advance width="675"/>
  <unicode hex="0423"/>
  <guideline x="508" y="610" angle="67.511"/>
  <guideline x="67" y="565" angle="113.9989"/>
  <anchor x="400" y="726" name="top"/>
  <outline>
    <contour>
      <point x="79" y="650" type="curve" smooth="yes"/>
      <point x="309" y="133" type="line"/>
      <point x="286" y="89"/>
      <point x="248" y="72"/>
      <point x="211" y="72" type="curve" smooth="yes"/>
      <point x="188" y="72"/>
      <point x="165" y="80"/>
      <point x="147" y="111" type="curve"/>
      <point x="124" y="100" type="line"/>
      <point x="157" y="-32" type="line"/>
      <point x="287" y="-41"/>
      <point x="344" y="40"/>
      <point x="378" y="121" type="curve" smooth="yes"/>
      <point x="597" y="650" type="line" smooth="yes"/>
      <point x="610" y="682"/>
      <point x="620" y="698"/>
      <point x="650" y="698" type="curve" smooth="yes"/>
      <point x="665" y="698" type="line"/>
      <point x="665" y="722" type="line"/>
      <point x="522" y="722" type="line"/>
      <point x="535" y="701"/>
      <point x="531" y="666"/>
      <point x="508" y="610" type="curve" smooth="yes"/>
      <point x="441" y="449" type="line" smooth="yes"/>
      <point x="429" y="421"/>
      <point x="422" y="400"/>
      <point x="419" y="389" type="curve"/>
      <point x="416" y="401"/>
      <point x="411" y="414"/>
      <point x="403" y="433" type="curve" smooth="yes"/>
      <point x="338" y="579" type="line" smooth="yes"/>
      <point x="302" y="661"/>
      <point x="296" y="683"/>
      <point x="296" y="722" type="curve"/>
      <point x="10" y="722" type="line"/>
      <point x="10" y="698" type="line"/>
      <point x="25" y="698" type="line" smooth="yes"/>
      <point x="55" y="698"/>
      <point x="65" y="682"/>
    </contour>
  </outline>
</glyph>
<glyph name="Ef-cy" format="2">
  <advance width="1023"/>
  <unicode hex="0424"/>
  <outline>
    <contour>
      <point x="397" y="0" type="curve"/>
      <point x="625" y="0" type="line"/>
      <point x="612" y="23"/>
      <point x="607" y="120"/>
      <point x="607" y="84" type="curve" smooth="yes"/>
      <point x="607" y="73" type="line"/>
      <point x="847" y="59"/>
      <point x="993" y="219"/>
      <point x="993" y="406" type="curve" smooth="yes"/>
      <point x="993" y="594"/>
      <point x="845" y="746"/>
      <point x="607" y="733" type="curve"/>
      <point x="607" y="800" type="line"/>
      <point x="349" y="800" type="line"/>
      <point x="349" y="776" type="line"/>
      <point x="365" y="776" type="line" smooth="yes"/>
      <point x="399" y="776"/>
      <point x="417" y="766"/>
      <point x="417" y="738" type="curve" smooth="yes"/>
      <point x="417" y="731" type="line"/>
      <point x="175" y="738"/>
      <point x="30" y="579"/>
      <point x="30" y="392" type="curve" smooth="yes"/>
      <point x="30" y="206"/>
      <point x="169" y="52"/>
      <point x="417" y="68" type="curve"/>
      <point x="417" y="84" type="line" smooth="yes"/>
      <point x="417" y="120"/>
      <point x="411" y="24"/>
    </contour>
    <contour>
      <point x="243" y="405" type="curve" smooth="yes"/>
      <point x="243" y="564"/>
      <point x="315" y="685"/>
      <point x="417" y="671" type="curve"/>
      <point x="417" y="130" type="line"/>
      <point x="312" y="122"/>
      <point x="243" y="249"/>
    </contour>
    <contour>
      <point x="607" y="130" type="curve"/>
      <point x="607" y="673" type="line"/>
      <point x="704" y="676"/>
      <point x="781" y="555"/>
      <point x="781" y="401" type="curve" smooth="yes"/>
      <point x="781" y="247"/>
      <point x="705" y="121"/>
    </contour>
  </outline>
</glyph>
<glyph name="Che-cy" format="2">
  <advance width="708"/>
  <unicode hex="0427"/>
  <anchor x="688" y="0" name="bottomright"/>
  <anchor x="354" y="722" name="top"/>
  <outline>
    <contour>
      <point x="440" y="0" type="curve"/>
      <point x="668" y="0" type="line"/>
      <point x="655" y="23"/>
      <point x="650" y="48"/>
      <point x="650" y="84" type="curve" smooth="yes"/>
      <point x="650" y="722" type="line"/>
      <point x="392" y="722" type="line"/>
      <point x="392" y="698" type="line"/>
      <point x="408" y="698" type="line" smooth="yes"/>
      <point x="442" y="698"/>
      <point x="460" y="676"/>
      <point x="460" y="634" type="curve" smooth="yes"/>
      <point x="460" y="84" type="line" smooth="yes"/>
      <point x="460" y="48"/>
      <point x="454" y="24"/>
    </contour>
    <contour>
      <point x="284" y="772" type="curve"/>
      <point x="274" y="782" type="line"/>
      <point x="106" y="693"/>
      <point x="30" y="550"/>
      <point x="30" y="425" type="curve" smooth="yes"/>
      <point x="30" y="264"/>
      <point x="144" y="180"/>
      <point x="272" y="180" type="curve" smooth="yes"/>
      <point x="338" y="180"/>
      <point x="409" y="203"/>
      <point x="468" y="250" type="curve"/>
      <point x="467" y="323" type="line"/>
      <point x="431" y="299"/>
      <point x="396" y="288"/>
      <point x="365" y="288" type="curve" smooth="yes"/>
      <point x="272" y="288"/>
      <point x="206" y="385"/>
      <point x="206" y="529" type="curve" smooth="yes"/>
      <point x="206" y="620"/>
      <point x="234" y="715"/>
    </contour>
  </outline>
</glyph>
<glyph name="Hardsign-cy" format="2">
  <advance width="849"/>
  <unicode hex="042A"/>
  <anchor x="455" y="722" name="top"/>
  <outline>
    <contour>
      <point x="443" y="722" type="curve"/>
      <point x="58" y="722" type="line"/>
      <point x="10" y="439" type="line"/>
      <point x="32" y="435" type="line"/>
      <point x="74" y="607"/>
      <point x="144" y="652"/>
      <point x="229" y="652" type="curve" smooth="yes"/>
      <point x="240" y="652" type="line"/>
      <point x="240" y="84" type="line" smooth="yes"/>
      <point x="240" y="48"/>
      <point x="234" y="24"/>
      <point x="220" y="0" type="curve"/>
      <point x="462" y="0" type="line" smooth="yes"/>
      <point x="663" y="0"/>
      <point x="819" y="84"/>
      <point x="819" y="249" type="curve" smooth="yes"/>
      <point x="819" y="413"/>
      <point x="685" y="483"/>
      <point x="448" y="477" type="curve"/>
      <point x="448" y="437" type="line"/>
      <point x="568" y="430"/>
      <point x="619" y="363"/>
      <point x="622" y="260" type="curve" smooth="yes"/>
      <point x="625" y="141"/>
      <point x="568" y="71"/>
      <point x="430" y="70" type="curve"/>
      <point x="430" y="596" type="line" smooth="yes"/>
      <point x="430" y="650"/>
      <point x="434" y="688"/>
    </contour>
  </outline>
</glyph>
